<?xml version="1.0" encoding="utf-8" standalone="no"?>
<!DOCTYPE svg PUBLIC "-//W3C//DTD SVG 1.1//EN"
  "http://www.w3.org/Graphics/SVG/1.1/DTD/svg11.dtd">
<svg height="288pt" version="1.1" viewBox="0 0 432 288" width="432pt" xmlns="http://www.w3.org/2000/svg" xmlns:xlink="http://www.w3.org/1999/xlink">
 <metadata>
  <rdf:RDF xmlns:cc="http://creativecommons.org/ns#" xmlns:dc="http://purl.org/dc/elements/1.1/" xmlns:rdf="http://www.w3.org/1999/02/22-rdf-syntax-ns#">
   <cc:Work>
    <dc:type rdf:resource="http://purl.org/dc/dcmitype/StillImage"/>
    <dc:date>2021-10-07T12:04:23.542020</dc:date>
    <dc:format>image/svg+xml</dc:format>
    <dc:creator>
     <cc:Agent>
      <dc:title>Matplotlib v3.4.3, https://matplotlib.org/</dc:title>
     </cc:Agent>
    </dc:creator>
   </cc:Work>
  </rdf:RDF>
 </metadata>
 <defs>
  <style type="text/css">*{stroke-linecap:butt;stroke-linejoin:round;}</style>
 </defs>
 <g id="figure_1">
  <g id="patch_1">
   <path d="M 0 288 
L 432 288 
L 432 0 
L 0 0 
z
" style="fill:none;"/>
  </g>
  <g id="axes_1">
   <g id="patch_2">
    <path d="M 54 252 
L 388.8 252 
L 388.8 34.56 
L 54 34.56 
z
" style="fill:#ffffff;"/>
   </g>
   <g id="matplotlib.axis_1">
    <g id="xtick_1">
     <g id="line2d_1">
      <defs>
       <path d="M 0 0 
L 0 3.5 
" id="m49546e5999" style="stroke:#000000;stroke-width:0.8;"/>
      </defs>
      <g>
       <use style="stroke:#000000;stroke-width:0.8;" x="54" xlink:href="#m49546e5999" y="252"/>
      </g>
     </g>
     <g id="text_1">
      <!-- −1.0 -->
      <g transform="translate(41.858594 266.598437)scale(0.1 -0.1)">
       <defs>
        <path d="M 678 2272 
L 4684 2272 
L 4684 1741 
L 678 1741 
L 678 2272 
z
" id="DejaVuSans-2212" transform="scale(0.015625)"/>
        <path d="M 794 531 
L 1825 531 
L 1825 4091 
L 703 3866 
L 703 4441 
L 1819 4666 
L 2450 4666 
L 2450 531 
L 3481 531 
L 3481 0 
L 794 0 
L 794 531 
z
" id="DejaVuSans-31" transform="scale(0.015625)"/>
        <path d="M 684 794 
L 1344 794 
L 1344 0 
L 684 0 
L 684 794 
z
" id="DejaVuSans-2e" transform="scale(0.015625)"/>
        <path d="M 2034 4250 
Q 1547 4250 1301 3770 
Q 1056 3291 1056 2328 
Q 1056 1369 1301 889 
Q 1547 409 2034 409 
Q 2525 409 2770 889 
Q 3016 1369 3016 2328 
Q 3016 3291 2770 3770 
Q 2525 4250 2034 4250 
z
M 2034 4750 
Q 2819 4750 3233 4129 
Q 3647 3509 3647 2328 
Q 3647 1150 3233 529 
Q 2819 -91 2034 -91 
Q 1250 -91 836 529 
Q 422 1150 422 2328 
Q 422 3509 836 4129 
Q 1250 4750 2034 4750 
z
" id="DejaVuSans-30" transform="scale(0.015625)"/>
       </defs>
       <use xlink:href="#DejaVuSans-2212"/>
       <use x="83.789062" xlink:href="#DejaVuSans-31"/>
       <use x="147.412109" xlink:href="#DejaVuSans-2e"/>
       <use x="179.199219" xlink:href="#DejaVuSans-30"/>
      </g>
     </g>
    </g>
    <g id="xtick_2">
     <g id="line2d_2">
      <g>
       <use style="stroke:#000000;stroke-width:0.8;" x="113.785714" xlink:href="#m49546e5999" y="252"/>
      </g>
     </g>
     <g id="text_2">
      <!-- −0.5 -->
      <g transform="translate(101.644308 266.598437)scale(0.1 -0.1)">
       <defs>
        <path d="M 691 4666 
L 3169 4666 
L 3169 4134 
L 1269 4134 
L 1269 2991 
Q 1406 3038 1543 3061 
Q 1681 3084 1819 3084 
Q 2600 3084 3056 2656 
Q 3513 2228 3513 1497 
Q 3513 744 3044 326 
Q 2575 -91 1722 -91 
Q 1428 -91 1123 -41 
Q 819 9 494 109 
L 494 744 
Q 775 591 1075 516 
Q 1375 441 1709 441 
Q 2250 441 2565 725 
Q 2881 1009 2881 1497 
Q 2881 1984 2565 2268 
Q 2250 2553 1709 2553 
Q 1456 2553 1204 2497 
Q 953 2441 691 2322 
L 691 4666 
z
" id="DejaVuSans-35" transform="scale(0.015625)"/>
       </defs>
       <use xlink:href="#DejaVuSans-2212"/>
       <use x="83.789062" xlink:href="#DejaVuSans-30"/>
       <use x="147.412109" xlink:href="#DejaVuSans-2e"/>
       <use x="179.199219" xlink:href="#DejaVuSans-35"/>
      </g>
     </g>
    </g>
    <g id="xtick_3">
     <g id="line2d_3">
      <g>
       <use style="stroke:#000000;stroke-width:0.8;" x="173.571429" xlink:href="#m49546e5999" y="252"/>
      </g>
     </g>
     <g id="text_3">
      <!-- 0.0 -->
      <g transform="translate(165.619866 266.598437)scale(0.1 -0.1)">
       <use xlink:href="#DejaVuSans-30"/>
       <use x="63.623047" xlink:href="#DejaVuSans-2e"/>
       <use x="95.410156" xlink:href="#DejaVuSans-30"/>
      </g>
     </g>
    </g>
    <g id="xtick_4">
     <g id="line2d_4">
      <g>
       <use style="stroke:#000000;stroke-width:0.8;" x="233.357143" xlink:href="#m49546e5999" y="252"/>
      </g>
     </g>
     <g id="text_4">
      <!-- 0.5 -->
      <g transform="translate(225.40558 266.598437)scale(0.1 -0.1)">
       <use xlink:href="#DejaVuSans-30"/>
       <use x="63.623047" xlink:href="#DejaVuSans-2e"/>
       <use x="95.410156" xlink:href="#DejaVuSans-35"/>
      </g>
     </g>
    </g>
    <g id="xtick_5">
     <g id="line2d_5">
      <g>
       <use style="stroke:#000000;stroke-width:0.8;" x="293.142857" xlink:href="#m49546e5999" y="252"/>
      </g>
     </g>
     <g id="text_5">
      <!-- 1.0 -->
      <g transform="translate(285.191295 266.598437)scale(0.1 -0.1)">
       <use xlink:href="#DejaVuSans-31"/>
       <use x="63.623047" xlink:href="#DejaVuSans-2e"/>
       <use x="95.410156" xlink:href="#DejaVuSans-30"/>
      </g>
     </g>
    </g>
    <g id="xtick_6">
     <g id="line2d_6">
      <g>
       <use style="stroke:#000000;stroke-width:0.8;" x="352.928571" xlink:href="#m49546e5999" y="252"/>
      </g>
     </g>
     <g id="text_6">
      <!-- 1.5 -->
      <g transform="translate(344.977009 266.598437)scale(0.1 -0.1)">
       <use xlink:href="#DejaVuSans-31"/>
       <use x="63.623047" xlink:href="#DejaVuSans-2e"/>
       <use x="95.410156" xlink:href="#DejaVuSans-35"/>
      </g>
     </g>
    </g>
   </g>
   <g id="matplotlib.axis_2">
    <g id="ytick_1">
     <g id="line2d_7">
      <defs>
       <path d="M 0 0 
L -3.5 0 
" id="m2565b33fdd" style="stroke:#000000;stroke-width:0.8;"/>
      </defs>
      <g>
       <use style="stroke:#000000;stroke-width:0.8;" x="54" xlink:href="#m2565b33fdd" y="252"/>
      </g>
     </g>
     <g id="text_7">
      <!-- 0.0000 -->
      <g transform="translate(12.009375 255.799219)scale(0.1 -0.1)">
       <use xlink:href="#DejaVuSans-30"/>
       <use x="63.623047" xlink:href="#DejaVuSans-2e"/>
       <use x="95.410156" xlink:href="#DejaVuSans-30"/>
       <use x="159.033203" xlink:href="#DejaVuSans-30"/>
       <use x="222.65625" xlink:href="#DejaVuSans-30"/>
       <use x="286.279297" xlink:href="#DejaVuSans-30"/>
      </g>
     </g>
    </g>
    <g id="ytick_2">
     <g id="line2d_8">
      <g>
       <use style="stroke:#000000;stroke-width:0.8;" x="54" xlink:href="#m2565b33fdd" y="223.008"/>
      </g>
     </g>
     <g id="text_8">
      <!-- 0.0002 -->
      <g transform="translate(12.009375 226.807219)scale(0.1 -0.1)">
       <defs>
        <path d="M 1228 531 
L 3431 531 
L 3431 0 
L 469 0 
L 469 531 
Q 828 903 1448 1529 
Q 2069 2156 2228 2338 
Q 2531 2678 2651 2914 
Q 2772 3150 2772 3378 
Q 2772 3750 2511 3984 
Q 2250 4219 1831 4219 
Q 1534 4219 1204 4116 
Q 875 4013 500 3803 
L 500 4441 
Q 881 4594 1212 4672 
Q 1544 4750 1819 4750 
Q 2544 4750 2975 4387 
Q 3406 4025 3406 3419 
Q 3406 3131 3298 2873 
Q 3191 2616 2906 2266 
Q 2828 2175 2409 1742 
Q 1991 1309 1228 531 
z
" id="DejaVuSans-32" transform="scale(0.015625)"/>
       </defs>
       <use xlink:href="#DejaVuSans-30"/>
       <use x="63.623047" xlink:href="#DejaVuSans-2e"/>
       <use x="95.410156" xlink:href="#DejaVuSans-30"/>
       <use x="159.033203" xlink:href="#DejaVuSans-30"/>
       <use x="222.65625" xlink:href="#DejaVuSans-30"/>
       <use x="286.279297" xlink:href="#DejaVuSans-32"/>
      </g>
     </g>
    </g>
    <g id="ytick_3">
     <g id="line2d_9">
      <g>
       <use style="stroke:#000000;stroke-width:0.8;" x="54" xlink:href="#m2565b33fdd" y="194.016"/>
      </g>
     </g>
     <g id="text_9">
      <!-- 0.0004 -->
      <g transform="translate(12.009375 197.815219)scale(0.1 -0.1)">
       <defs>
        <path d="M 2419 4116 
L 825 1625 
L 2419 1625 
L 2419 4116 
z
M 2253 4666 
L 3047 4666 
L 3047 1625 
L 3713 1625 
L 3713 1100 
L 3047 1100 
L 3047 0 
L 2419 0 
L 2419 1100 
L 313 1100 
L 313 1709 
L 2253 4666 
z
" id="DejaVuSans-34" transform="scale(0.015625)"/>
       </defs>
       <use xlink:href="#DejaVuSans-30"/>
       <use x="63.623047" xlink:href="#DejaVuSans-2e"/>
       <use x="95.410156" xlink:href="#DejaVuSans-30"/>
       <use x="159.033203" xlink:href="#DejaVuSans-30"/>
       <use x="222.65625" xlink:href="#DejaVuSans-30"/>
       <use x="286.279297" xlink:href="#DejaVuSans-34"/>
      </g>
     </g>
    </g>
    <g id="ytick_4">
     <g id="line2d_10">
      <g>
       <use style="stroke:#000000;stroke-width:0.8;" x="54" xlink:href="#m2565b33fdd" y="165.024"/>
      </g>
     </g>
     <g id="text_10">
      <!-- 0.0006 -->
      <g transform="translate(12.009375 168.823219)scale(0.1 -0.1)">
       <defs>
        <path d="M 2113 2584 
Q 1688 2584 1439 2293 
Q 1191 2003 1191 1497 
Q 1191 994 1439 701 
Q 1688 409 2113 409 
Q 2538 409 2786 701 
Q 3034 994 3034 1497 
Q 3034 2003 2786 2293 
Q 2538 2584 2113 2584 
z
M 3366 4563 
L 3366 3988 
Q 3128 4100 2886 4159 
Q 2644 4219 2406 4219 
Q 1781 4219 1451 3797 
Q 1122 3375 1075 2522 
Q 1259 2794 1537 2939 
Q 1816 3084 2150 3084 
Q 2853 3084 3261 2657 
Q 3669 2231 3669 1497 
Q 3669 778 3244 343 
Q 2819 -91 2113 -91 
Q 1303 -91 875 529 
Q 447 1150 447 2328 
Q 447 3434 972 4092 
Q 1497 4750 2381 4750 
Q 2619 4750 2861 4703 
Q 3103 4656 3366 4563 
z
" id="DejaVuSans-36" transform="scale(0.015625)"/>
       </defs>
       <use xlink:href="#DejaVuSans-30"/>
       <use x="63.623047" xlink:href="#DejaVuSans-2e"/>
       <use x="95.410156" xlink:href="#DejaVuSans-30"/>
       <use x="159.033203" xlink:href="#DejaVuSans-30"/>
       <use x="222.65625" xlink:href="#DejaVuSans-30"/>
       <use x="286.279297" xlink:href="#DejaVuSans-36"/>
      </g>
     </g>
    </g>
    <g id="ytick_5">
     <g id="line2d_11">
      <g>
       <use style="stroke:#000000;stroke-width:0.8;" x="54" xlink:href="#m2565b33fdd" y="136.032"/>
      </g>
     </g>
     <g id="text_11">
      <!-- 0.0008 -->
      <g transform="translate(12.009375 139.831219)scale(0.1 -0.1)">
       <defs>
        <path d="M 2034 2216 
Q 1584 2216 1326 1975 
Q 1069 1734 1069 1313 
Q 1069 891 1326 650 
Q 1584 409 2034 409 
Q 2484 409 2743 651 
Q 3003 894 3003 1313 
Q 3003 1734 2745 1975 
Q 2488 2216 2034 2216 
z
M 1403 2484 
Q 997 2584 770 2862 
Q 544 3141 544 3541 
Q 544 4100 942 4425 
Q 1341 4750 2034 4750 
Q 2731 4750 3128 4425 
Q 3525 4100 3525 3541 
Q 3525 3141 3298 2862 
Q 3072 2584 2669 2484 
Q 3125 2378 3379 2068 
Q 3634 1759 3634 1313 
Q 3634 634 3220 271 
Q 2806 -91 2034 -91 
Q 1263 -91 848 271 
Q 434 634 434 1313 
Q 434 1759 690 2068 
Q 947 2378 1403 2484 
z
M 1172 3481 
Q 1172 3119 1398 2916 
Q 1625 2713 2034 2713 
Q 2441 2713 2670 2916 
Q 2900 3119 2900 3481 
Q 2900 3844 2670 4047 
Q 2441 4250 2034 4250 
Q 1625 4250 1398 4047 
Q 1172 3844 1172 3481 
z
" id="DejaVuSans-38" transform="scale(0.015625)"/>
       </defs>
       <use xlink:href="#DejaVuSans-30"/>
       <use x="63.623047" xlink:href="#DejaVuSans-2e"/>
       <use x="95.410156" xlink:href="#DejaVuSans-30"/>
       <use x="159.033203" xlink:href="#DejaVuSans-30"/>
       <use x="222.65625" xlink:href="#DejaVuSans-30"/>
       <use x="286.279297" xlink:href="#DejaVuSans-38"/>
      </g>
     </g>
    </g>
    <g id="ytick_6">
     <g id="line2d_12">
      <g>
       <use style="stroke:#000000;stroke-width:0.8;" x="54" xlink:href="#m2565b33fdd" y="107.04"/>
      </g>
     </g>
     <g id="text_12">
      <!-- 0.0010 -->
      <g transform="translate(12.009375 110.839219)scale(0.1 -0.1)">
       <use xlink:href="#DejaVuSans-30"/>
       <use x="63.623047" xlink:href="#DejaVuSans-2e"/>
       <use x="95.410156" xlink:href="#DejaVuSans-30"/>
       <use x="159.033203" xlink:href="#DejaVuSans-30"/>
       <use x="222.65625" xlink:href="#DejaVuSans-31"/>
       <use x="286.279297" xlink:href="#DejaVuSans-30"/>
      </g>
     </g>
    </g>
    <g id="ytick_7">
     <g id="line2d_13">
      <g>
       <use style="stroke:#000000;stroke-width:0.8;" x="54" xlink:href="#m2565b33fdd" y="78.048"/>
      </g>
     </g>
     <g id="text_13">
      <!-- 0.0012 -->
      <g transform="translate(12.009375 81.847219)scale(0.1 -0.1)">
       <use xlink:href="#DejaVuSans-30"/>
       <use x="63.623047" xlink:href="#DejaVuSans-2e"/>
       <use x="95.410156" xlink:href="#DejaVuSans-30"/>
       <use x="159.033203" xlink:href="#DejaVuSans-30"/>
       <use x="222.65625" xlink:href="#DejaVuSans-31"/>
       <use x="286.279297" xlink:href="#DejaVuSans-32"/>
      </g>
     </g>
    </g>
    <g id="ytick_8">
     <g id="line2d_14">
      <g>
       <use style="stroke:#000000;stroke-width:0.8;" x="54" xlink:href="#m2565b33fdd" y="49.056"/>
      </g>
     </g>
     <g id="text_14">
      <!-- 0.0014 -->
      <g transform="translate(12.009375 52.855219)scale(0.1 -0.1)">
       <use xlink:href="#DejaVuSans-30"/>
       <use x="63.623047" xlink:href="#DejaVuSans-2e"/>
       <use x="95.410156" xlink:href="#DejaVuSans-30"/>
       <use x="159.033203" xlink:href="#DejaVuSans-30"/>
       <use x="222.65625" xlink:href="#DejaVuSans-31"/>
       <use x="286.279297" xlink:href="#DejaVuSans-34"/>
      </g>
     </g>
    </g>
   </g>
   <g id="line2d_15">
    <path clip-path="url(#p3d15a64cd9)" d="M 173.571429 252 
L 175.962857 249.890199 
L 178.354286 248.066773 
L 180.745714 246.516504 
L 183.137143 245.225571 
L 185.528572 244.178144 
L 187.92 243.353716 
L 190.311429 242.723483 
L 192.702857 242.248799 
L 195.094287 241.88608 
L 197.485715 241.596361 
L 199.877143 241.351354 
L 202.268571 241.133167 
L 204.659999 240.931173 
L 207.051429 240.739133 
L 209.442859 240.553319 
L 211.834285 240.371437 
L 214.225715 240.192028 
L 216.617145 240.014133 
L 219.008571 239.8371 
L 221.400001 239.660479 
L 223.791427 239.483947 
L 226.182857 239.307268 
L 228.574287 239.130268 
L 230.965713 238.952814 
L 233.357143 238.774805 
L 235.748569 238.596163 
L 238.140003 238.416825 
L 240.531429 238.236743 
L 242.922855 238.055877 
L 245.314289 237.874195 
L 247.705715 237.691674 
L 250.097141 237.50829 
L 252.488575 237.324028 
L 254.880001 237.138873 
L 257.271427 236.952814 
L 259.662861 236.765841 
L 262.054287 236.577947 
L 264.445713 236.389126 
L 266.837139 236.199372 
L 269.228573 236.008681 
L 271.619999 235.81705 
L 274.011425 235.624478 
L 276.402859 235.430962 
L 278.794285 235.236499 
L 281.185711 235.041092 
L 283.577145 234.844737 
L 285.968571 234.647435 
L 288.359997 234.449188 
L 290.751431 234.249994 
L 293.142857 234.049854 
L 295.534283 233.848771 
L 297.92571 233.646745 
L 300.317136 233.443774 
L 302.708577 233.239865 
L 305.100003 233.035016 
L 307.491429 232.829229 
L 309.882855 232.622508 
L 312.274282 232.414852 
L 314.665708 232.206264 
L 317.057149 231.996745 
L 319.448575 231.786298 
L 321.840001 231.574926 
L 324.231427 231.362629 
L 326.622854 231.14941 
L 329.01428 230.935272 
L 331.405721 230.720216 
L 333.797147 230.504245 
L 336.188573 230.287362 
L 338.579999 230.069566 
L 340.971426 229.850865 
L 343.362852 229.631257 
L 345.754293 229.410746 
L 348.145719 229.189332 
L 350.537145 228.967022 
L 352.928571 228.743813 
L 355.319998 228.519712 
L 357.711424 228.294721 
L 360.10285 228.068839 
L 362.494291 227.84207 
L 364.885717 227.614418 
L 367.277143 227.385885 
L 369.66857 227.15647 
L 372.059996 226.926182 
L 374.451422 226.695016 
L 376.842863 226.462982 
L 379.234289 226.230076 
L 381.625715 225.996303 
L 384.017142 225.761665 
L 386.408568 225.526166 
L 388.799994 225.289805 
" style="fill:none;stroke:#1f77b4;stroke-linecap:square;stroke-width:1.5;"/>
   </g>
   <g id="line2d_16">
    <path clip-path="url(#p3d15a64cd9)" d="M 54 255.326739 
L 388.8 225.609467 
" style="fill:none;stroke:#ff7f0e;stroke-dasharray:5.55,2.4;stroke-dashoffset:0;stroke-width:1.5;"/>
   </g>
   <g id="line2d_17">
    <path clip-path="url(#p3d15a64cd9)" d="M 173.571429 252 
L 175.962857 247.133987 
L 178.354286 242.595505 
L 180.745714 238.373223 
L 183.137143 234.456516 
L 185.528572 230.835462 
L 187.92 227.500846 
L 190.311429 224.444166 
L 192.702857 221.657639 
L 195.094287 219.13417 
L 197.485715 216.867246 
L 199.877143 214.850625 
L 202.268571 213.077648 
L 204.659999 211.539926 
L 207.051429 210.225319 
L 209.442859 209.11573 
L 211.834285 208.186084 
L 214.225715 207.40602 
L 216.617145 206.743894 
L 219.008571 206.170973 
L 221.400001 205.663808 
L 223.791427 205.204598 
L 226.182857 204.78038 
L 228.574287 204.381889 
L 230.965713 204.002518 
L 233.357143 203.637554 
L 235.748569 203.283568 
L 238.140003 202.938062 
L 240.531429 202.599163 
L 242.922855 202.26547 
L 245.314289 201.935902 
L 247.705715 201.609626 
L 250.097141 201.285982 
L 252.488575 200.964461 
L 254.880001 200.644635 
L 257.271427 200.326168 
L 259.662861 200.008789 
L 262.054287 199.692262 
L 264.445713 199.376402 
L 266.837139 199.061049 
L 269.228573 198.746066 
L 271.619999 198.431341 
L 274.011425 198.116781 
L 276.402859 197.802296 
L 278.794285 197.487816 
L 281.185711 197.17328 
L 283.577145 196.858631 
L 285.968571 196.543826 
L 288.359997 196.228823 
L 290.751431 195.913579 
L 293.142857 195.598065 
L 295.534283 195.282255 
L 297.92571 194.966121 
L 300.317136 194.649641 
L 302.708577 194.332794 
L 305.100003 194.015558 
L 307.491429 193.697927 
L 309.882855 193.379873 
L 312.274282 193.061393 
L 314.665708 192.74247 
L 317.057149 192.423092 
L 319.448575 192.103253 
L 321.840001 191.782942 
L 324.231427 191.46215 
L 326.622854 191.140873 
L 329.01428 190.819099 
L 331.405721 190.496822 
L 333.797147 190.174043 
L 336.188573 189.850749 
L 338.579999 189.526937 
L 340.971426 189.202609 
L 343.362852 188.877751 
L 345.754293 188.552369 
L 348.145719 188.226451 
L 350.537145 187.899997 
L 352.928571 187.573004 
L 355.319998 187.245474 
L 357.711424 186.917396 
L 360.10285 186.588774 
L 362.494291 186.259604 
L 364.885717 185.929885 
L 367.277143 185.599613 
L 369.66857 185.268789 
L 372.059996 184.937407 
L 374.451422 184.605473 
L 376.842863 184.272978 
L 379.234289 183.939926 
L 381.625715 183.606313 
L 384.017142 183.272139 
L 386.408568 182.937404 
L 388.799994 182.602108 
" style="fill:none;stroke:#2ca02c;stroke-linecap:square;stroke-width:1.5;"/>
   </g>
   <g id="line2d_18">
    <path clip-path="url(#p3d15a64cd9)" d="M 54 227.712867 
L 388.8 182.786263 
" style="fill:none;stroke:#d62728;stroke-dasharray:5.55,2.4;stroke-dashoffset:0;stroke-width:1.5;"/>
   </g>
   <g id="line2d_19">
    <path clip-path="url(#p3d15a64cd9)" d="M 173.571429 252 
L 175.962857 245.451713 
L 178.354286 239.207791 
L 180.745714 233.25955 
L 183.137143 227.598722 
L 185.528572 222.217456 
L 187.92 217.108314 
L 190.311429 212.264271 
L 192.702857 207.678733 
L 195.094287 203.345544 
L 197.485715 199.25902 
L 199.877143 195.413977 
L 202.268571 191.805788 
L 204.659999 188.430417 
L 207.051429 185.284504 
L 209.442859 182.365381 
L 211.834285 179.671092 
L 214.225715 177.200273 
L 216.617145 174.951823 
L 219.008571 172.924207 
L 221.400001 171.114235 
L 223.791427 169.515444 
L 226.182857 168.116418 
L 228.574287 166.899917 
L 230.965713 165.843667 
L 233.357143 164.922616 
L 235.748569 164.111829 
L 238.140003 163.388762 
L 240.531429 162.734404 
L 242.922855 162.133532 
L 245.314289 161.574268 
L 247.705715 161.047505 
L 250.097141 160.546301 
L 252.488575 160.065364 
L 254.880001 159.600628 
L 257.271427 159.14897 
L 259.662861 158.707936 
L 262.054287 158.275618 
L 264.445713 157.850497 
L 266.837139 157.43135 
L 269.228573 157.017207 
L 271.619999 156.607249 
L 274.011425 156.200835 
L 276.402859 155.797416 
L 278.794285 155.396537 
L 281.185711 154.997818 
L 283.577145 154.60093 
L 285.968571 154.20562 
L 288.359997 153.811634 
L 290.751431 153.418779 
L 293.142857 153.026887 
L 295.534283 152.635795 
L 297.92571 152.245379 
L 300.317136 151.855528 
L 302.708577 151.466133 
L 305.100003 151.077109 
L 307.491429 150.688372 
L 309.882855 150.299863 
L 312.274282 149.911514 
L 314.665708 149.523258 
L 317.057149 149.135061 
L 319.448575 148.746872 
L 321.840001 148.358641 
L 324.231427 147.970351 
L 326.622854 147.581952 
L 329.01428 147.193417 
L 331.405721 146.804714 
L 333.797147 146.415833 
L 336.188573 146.026742 
L 338.579999 145.637414 
L 340.971426 145.247833 
L 343.362852 144.857991 
L 345.754293 144.467862 
L 348.145719 144.077429 
L 350.537145 143.686683 
L 352.928571 143.295609 
L 355.319998 142.904197 
L 357.711424 142.512439 
L 360.10285 142.120319 
L 362.494291 141.727818 
L 364.885717 141.334947 
L 367.277143 140.941687 
L 369.66857 140.548022 
L 372.059996 140.153961 
L 374.451422 139.759495 
L 376.842863 139.364606 
L 379.234289 138.969288 
L 381.625715 138.573547 
L 384.017142 138.177377 
L 386.408568 137.780759 
L 388.799994 137.383702 
" style="fill:none;stroke:#9467bd;stroke-linecap:square;stroke-width:1.5;"/>
   </g>
   <g id="line2d_20">
    <path clip-path="url(#p3d15a64cd9)" d="M 54 191.903414 
L 388.8 137.470886 
" style="fill:none;stroke:#8c564b;stroke-dasharray:5.55,2.4;stroke-dashoffset:0;stroke-width:1.5;"/>
   </g>
   <g id="line2d_21">
    <path clip-path="url(#p3d15a64cd9)" d="M 173.571429 252 
L 175.962857 244.433242 
L 178.354286 237.13627 
L 180.745714 230.102672 
L 183.137143 223.32627 
L 185.528572 216.801132 
L 187.92 210.521561 
L 190.311429 204.482088 
L 192.702857 198.67748 
L 195.094287 193.102747 
L 197.485715 187.753133 
L 199.877143 182.624143 
L 202.268571 177.711535 
L 204.659999 173.011353 
L 207.051429 168.519929 
L 209.442859 164.233958 
L 211.834285 160.150468 
L 214.225715 156.266928 
L 216.617145 152.581262 
L 219.008571 149.091927 
L 221.400001 145.797985 
L 223.791427 142.699167 
L 226.182857 139.795853 
L 228.574287 137.08908 
L 230.965713 134.580308 
L 233.357143 132.270996 
L 235.748569 130.161846 
L 238.140003 128.251667 
L 240.531429 126.536013 
L 242.922855 125.006082 
L 245.314289 123.648249 
L 247.705715 122.444751 
L 250.097141 121.375288 
L 252.488575 120.419076 
L 254.880001 119.556515 
L 257.271427 118.770274 
L 259.662861 118.04573 
L 262.054287 117.370902 
L 264.445713 116.73617 
L 266.837139 116.133889 
L 269.228573 115.557985 
L 271.619999 115.003674 
L 274.011425 114.467132 
L 276.402859 113.945322 
L 278.794285 113.43579 
L 281.185711 112.936577 
L 283.577145 112.446055 
L 285.968571 111.962925 
L 288.359997 111.48608 
L 290.751431 111.014636 
L 293.142857 110.547816 
L 295.534283 110.085003 
L 297.92571 109.62565 
L 300.317136 109.169301 
L 302.708577 108.715551 
L 305.100003 108.264096 
L 307.491429 107.814598 
L 309.882855 107.366839 
L 312.274282 106.920598 
L 314.665708 106.475657 
L 317.057149 106.031847 
L 319.448575 105.589049 
L 321.840001 105.147112 
L 324.231427 104.7059 
L 326.622854 104.26533 
L 329.01428 103.825299 
L 331.405721 103.385741 
L 333.797147 102.946555 
L 336.188573 102.507672 
L 338.579999 102.069042 
L 340.971426 101.630615 
L 343.362852 101.192323 
L 345.754293 100.754132 
L 348.145719 100.315992 
L 350.537145 99.877868 
L 352.928571 99.439711 
L 355.319998 99.00152 
L 357.711424 98.563228 
L 360.10285 98.124835 
L 362.494291 97.686289 
L 364.885717 97.247592 
L 367.277143 96.808726 
L 369.66857 96.369641 
L 372.059996 95.930336 
L 374.451422 95.490778 
L 376.842863 95.050984 
L 379.234289 94.610903 
L 381.625715 94.170535 
L 384.017142 93.729881 
L 386.408568 93.288905 
L 388.799994 92.847609 
" style="fill:none;stroke:#e377c2;stroke-linecap:square;stroke-width:1.5;"/>
   </g>
   <g id="line2d_22">
    <path clip-path="url(#p3d15a64cd9)" d="M 54 154.764777 
L 388.8 92.766924 
" style="fill:none;stroke:#7f7f7f;stroke-dasharray:5.55,2.4;stroke-dashoffset:0;stroke-width:1.5;"/>
   </g>
   <g id="line2d_23">
    <path clip-path="url(#p3d15a64cd9)" d="M 173.571429 252 
L 175.962857 243.82571 
L 178.354286 235.887036 
L 180.745714 228.179256 
L 183.137143 220.697791 
L 185.528572 213.438203 
L 187.92 206.396199 
L 190.311429 199.567611 
L 192.702857 192.948415 
L 195.094287 186.53473 
L 197.485715 180.322801 
L 199.877143 174.309008 
L 202.268571 168.489883 
L 204.659999 162.862093 
L 207.051429 157.422465 
L 209.442859 152.167979 
L 211.834285 147.095775 
L 214.225715 142.203178 
L 216.617145 137.487706 
L 219.008571 132.947099 
L 221.400001 128.579332 
L 223.791427 124.382648 
L 226.182857 120.355607 
L 228.574287 116.497127 
L 230.965713 112.806509 
L 233.357143 109.283549 
L 235.748569 105.928535 
L 238.140003 102.74236 
L 240.531429 99.726511 
L 242.922855 96.883097 
L 245.314289 94.214699 
L 247.705715 91.724068 
L 250.097141 89.413769 
L 252.488575 87.285288 
L 254.880001 85.338202 
L 257.271427 83.569069 
L 259.662861 81.970717 
L 262.054287 80.531991 
L 264.445713 79.238428 
L 266.837139 78.073356 
L 269.228573 77.019375 
L 271.619999 76.059662 
L 274.011425 75.178859 
L 276.402859 74.36355 
L 278.794285 73.602327 
L 281.185711 72.885756 
L 283.577145 72.206059 
L 285.968571 71.556924 
L 288.359997 70.93322 
L 290.751431 70.330779 
L 293.142857 69.746193 
L 295.534283 69.176693 
L 297.92571 68.620019 
L 300.317136 68.074246 
L 302.708577 67.537839 
L 305.100003 67.009516 
L 307.491429 66.488145 
L 309.882855 65.972816 
L 312.274282 65.462752 
L 314.665708 64.957295 
L 317.057149 64.455872 
L 319.448575 63.957975 
L 321.840001 63.4632 
L 324.231427 62.971159 
L 326.622854 62.481532 
L 329.01428 61.994047 
L 331.405721 61.508453 
L 333.797147 61.024529 
L 336.188573 60.542091 
L 338.579999 60.060934 
L 340.971426 59.580943 
L 343.362852 59.101964 
L 345.754293 58.623879 
L 348.145719 58.146587 
L 350.537145 57.669954 
L 352.928571 57.193928 
L 355.319998 56.718391 
L 357.711424 56.24331 
L 360.10285 55.768584 
L 362.494291 55.294161 
L 364.885717 54.819991 
L 367.277143 54.346024 
L 369.66857 53.872209 
L 372.059996 53.398495 
L 374.451422 52.924849 
L 376.842863 52.451236 
L 379.234289 51.977623 
L 381.625715 51.50396 
L 384.017142 51.030246 
L 386.408568 50.556431 
L 388.799994 50.082497 
" style="fill:none;stroke:#bcbd22;stroke-linecap:square;stroke-width:1.5;"/>
   </g>
   <g id="line2d_24">
    <path clip-path="url(#p3d15a64cd9)" d="M 54 119.223752 
L 388.8 49.613284 
" style="fill:none;stroke:#17becf;stroke-dasharray:5.55,2.4;stroke-dashoffset:0;stroke-width:1.5;"/>
   </g>
   <g id="patch_3">
    <path d="M 54 252 
L 54 34.56 
" style="fill:none;stroke:#000000;stroke-linecap:square;stroke-linejoin:miter;stroke-width:0.8;"/>
   </g>
   <g id="patch_4">
    <path d="M 388.8 252 
L 388.8 34.56 
" style="fill:none;stroke:#000000;stroke-linecap:square;stroke-linejoin:miter;stroke-width:0.8;"/>
   </g>
   <g id="patch_5">
    <path d="M 54 252 
L 388.8 252 
" style="fill:none;stroke:#000000;stroke-linecap:square;stroke-linejoin:miter;stroke-width:0.8;"/>
   </g>
   <g id="patch_6">
    <path d="M 54 34.56 
L 388.8 34.56 
" style="fill:none;stroke:#000000;stroke-linecap:square;stroke-linejoin:miter;stroke-width:0.8;"/>
   </g>
  </g>
 </g>
 <defs>
  <clipPath id="p3d15a64cd9">
   <rect height="217.44" width="334.8" x="54" y="34.56"/>
  </clipPath>
 </defs>
</svg>
