<?xml version="1.0" encoding="utf-8" standalone="no"?>
<!DOCTYPE svg PUBLIC "-//W3C//DTD SVG 1.1//EN"
  "http://www.w3.org/Graphics/SVG/1.1/DTD/svg11.dtd">
<svg height="288pt" version="1.1" viewBox="0 0 432 288" width="432pt" xmlns="http://www.w3.org/2000/svg" xmlns:xlink="http://www.w3.org/1999/xlink">
 <metadata>
  <rdf:RDF xmlns:cc="http://creativecommons.org/ns#" xmlns:dc="http://purl.org/dc/elements/1.1/" xmlns:rdf="http://www.w3.org/1999/02/22-rdf-syntax-ns#">
   <cc:Work>
    <dc:type rdf:resource="http://purl.org/dc/dcmitype/StillImage"/>
    <dc:date>2021-10-08T10:07:48.863848</dc:date>
    <dc:format>image/svg+xml</dc:format>
    <dc:creator>
     <cc:Agent>
      <dc:title>Matplotlib v3.4.3, https://matplotlib.org/</dc:title>
     </cc:Agent>
    </dc:creator>
   </cc:Work>
  </rdf:RDF>
 </metadata>
 <defs>
  <style type="text/css">*{stroke-linecap:butt;stroke-linejoin:round;}</style>
 </defs>
 <g id="figure_1">
  <g id="patch_1">
   <path d="M 0 288 
L 432 288 
L 432 0 
L 0 0 
z
" style="fill:none;"/>
  </g>
  <g id="axes_1">
   <g id="patch_2">
    <path d="M 54 252 
L 388.8 252 
L 388.8 34.56 
L 54 34.56 
z
" style="fill:#ffffff;"/>
   </g>
   <g id="matplotlib.axis_1">
    <g id="xtick_1">
     <g id="line2d_1">
      <defs>
       <path d="M 0 0 
L 0 3.5 
" id="m457d70616c" style="stroke:#000000;stroke-width:0.8;"/>
      </defs>
      <g>
       <use style="stroke:#000000;stroke-width:0.8;" x="54" xlink:href="#m457d70616c" y="252"/>
      </g>
     </g>
     <g id="text_1">
      <!-- −7 -->
      <g transform="translate(46.628906 266.598437)scale(0.1 -0.1)">
       <defs>
        <path d="M 678 2272 
L 4684 2272 
L 4684 1741 
L 678 1741 
L 678 2272 
z
" id="DejaVuSans-2212" transform="scale(0.015625)"/>
        <path d="M 525 4666 
L 3525 4666 
L 3525 4397 
L 1831 0 
L 1172 0 
L 2766 4134 
L 525 4134 
L 525 4666 
z
" id="DejaVuSans-37" transform="scale(0.015625)"/>
       </defs>
       <use xlink:href="#DejaVuSans-2212"/>
       <use x="83.789062" xlink:href="#DejaVuSans-37"/>
      </g>
     </g>
    </g>
    <g id="xtick_2">
     <g id="line2d_2">
      <g>
       <use style="stroke:#000000;stroke-width:0.8;" x="92.045455" xlink:href="#m457d70616c" y="252"/>
      </g>
     </g>
     <g id="text_2">
      <!-- −6 -->
      <g transform="translate(84.674361 266.598437)scale(0.1 -0.1)">
       <defs>
        <path d="M 2113 2584 
Q 1688 2584 1439 2293 
Q 1191 2003 1191 1497 
Q 1191 994 1439 701 
Q 1688 409 2113 409 
Q 2538 409 2786 701 
Q 3034 994 3034 1497 
Q 3034 2003 2786 2293 
Q 2538 2584 2113 2584 
z
M 3366 4563 
L 3366 3988 
Q 3128 4100 2886 4159 
Q 2644 4219 2406 4219 
Q 1781 4219 1451 3797 
Q 1122 3375 1075 2522 
Q 1259 2794 1537 2939 
Q 1816 3084 2150 3084 
Q 2853 3084 3261 2657 
Q 3669 2231 3669 1497 
Q 3669 778 3244 343 
Q 2819 -91 2113 -91 
Q 1303 -91 875 529 
Q 447 1150 447 2328 
Q 447 3434 972 4092 
Q 1497 4750 2381 4750 
Q 2619 4750 2861 4703 
Q 3103 4656 3366 4563 
z
" id="DejaVuSans-36" transform="scale(0.015625)"/>
       </defs>
       <use xlink:href="#DejaVuSans-2212"/>
       <use x="83.789062" xlink:href="#DejaVuSans-36"/>
      </g>
     </g>
    </g>
    <g id="xtick_3">
     <g id="line2d_3">
      <g>
       <use style="stroke:#000000;stroke-width:0.8;" x="130.090909" xlink:href="#m457d70616c" y="252"/>
      </g>
     </g>
     <g id="text_3">
      <!-- −5 -->
      <g transform="translate(122.719815 266.598437)scale(0.1 -0.1)">
       <defs>
        <path d="M 691 4666 
L 3169 4666 
L 3169 4134 
L 1269 4134 
L 1269 2991 
Q 1406 3038 1543 3061 
Q 1681 3084 1819 3084 
Q 2600 3084 3056 2656 
Q 3513 2228 3513 1497 
Q 3513 744 3044 326 
Q 2575 -91 1722 -91 
Q 1428 -91 1123 -41 
Q 819 9 494 109 
L 494 744 
Q 775 591 1075 516 
Q 1375 441 1709 441 
Q 2250 441 2565 725 
Q 2881 1009 2881 1497 
Q 2881 1984 2565 2268 
Q 2250 2553 1709 2553 
Q 1456 2553 1204 2497 
Q 953 2441 691 2322 
L 691 4666 
z
" id="DejaVuSans-35" transform="scale(0.015625)"/>
       </defs>
       <use xlink:href="#DejaVuSans-2212"/>
       <use x="83.789062" xlink:href="#DejaVuSans-35"/>
      </g>
     </g>
    </g>
    <g id="xtick_4">
     <g id="line2d_4">
      <g>
       <use style="stroke:#000000;stroke-width:0.8;" x="168.136364" xlink:href="#m457d70616c" y="252"/>
      </g>
     </g>
     <g id="text_4">
      <!-- −4 -->
      <g transform="translate(160.76527 266.598437)scale(0.1 -0.1)">
       <defs>
        <path d="M 2419 4116 
L 825 1625 
L 2419 1625 
L 2419 4116 
z
M 2253 4666 
L 3047 4666 
L 3047 1625 
L 3713 1625 
L 3713 1100 
L 3047 1100 
L 3047 0 
L 2419 0 
L 2419 1100 
L 313 1100 
L 313 1709 
L 2253 4666 
z
" id="DejaVuSans-34" transform="scale(0.015625)"/>
       </defs>
       <use xlink:href="#DejaVuSans-2212"/>
       <use x="83.789062" xlink:href="#DejaVuSans-34"/>
      </g>
     </g>
    </g>
    <g id="xtick_5">
     <g id="line2d_5">
      <g>
       <use style="stroke:#000000;stroke-width:0.8;" x="206.181818" xlink:href="#m457d70616c" y="252"/>
      </g>
     </g>
     <g id="text_5">
      <!-- −3 -->
      <g transform="translate(198.810724 266.598437)scale(0.1 -0.1)">
       <defs>
        <path d="M 2597 2516 
Q 3050 2419 3304 2112 
Q 3559 1806 3559 1356 
Q 3559 666 3084 287 
Q 2609 -91 1734 -91 
Q 1441 -91 1130 -33 
Q 819 25 488 141 
L 488 750 
Q 750 597 1062 519 
Q 1375 441 1716 441 
Q 2309 441 2620 675 
Q 2931 909 2931 1356 
Q 2931 1769 2642 2001 
Q 2353 2234 1838 2234 
L 1294 2234 
L 1294 2753 
L 1863 2753 
Q 2328 2753 2575 2939 
Q 2822 3125 2822 3475 
Q 2822 3834 2567 4026 
Q 2313 4219 1838 4219 
Q 1578 4219 1281 4162 
Q 984 4106 628 3988 
L 628 4550 
Q 988 4650 1302 4700 
Q 1616 4750 1894 4750 
Q 2613 4750 3031 4423 
Q 3450 4097 3450 3541 
Q 3450 3153 3228 2886 
Q 3006 2619 2597 2516 
z
" id="DejaVuSans-33" transform="scale(0.015625)"/>
       </defs>
       <use xlink:href="#DejaVuSans-2212"/>
       <use x="83.789062" xlink:href="#DejaVuSans-33"/>
      </g>
     </g>
    </g>
    <g id="xtick_6">
     <g id="line2d_6">
      <g>
       <use style="stroke:#000000;stroke-width:0.8;" x="244.227273" xlink:href="#m457d70616c" y="252"/>
      </g>
     </g>
     <g id="text_6">
      <!-- −2 -->
      <g transform="translate(236.856179 266.598437)scale(0.1 -0.1)">
       <defs>
        <path d="M 1228 531 
L 3431 531 
L 3431 0 
L 469 0 
L 469 531 
Q 828 903 1448 1529 
Q 2069 2156 2228 2338 
Q 2531 2678 2651 2914 
Q 2772 3150 2772 3378 
Q 2772 3750 2511 3984 
Q 2250 4219 1831 4219 
Q 1534 4219 1204 4116 
Q 875 4013 500 3803 
L 500 4441 
Q 881 4594 1212 4672 
Q 1544 4750 1819 4750 
Q 2544 4750 2975 4387 
Q 3406 4025 3406 3419 
Q 3406 3131 3298 2873 
Q 3191 2616 2906 2266 
Q 2828 2175 2409 1742 
Q 1991 1309 1228 531 
z
" id="DejaVuSans-32" transform="scale(0.015625)"/>
       </defs>
       <use xlink:href="#DejaVuSans-2212"/>
       <use x="83.789062" xlink:href="#DejaVuSans-32"/>
      </g>
     </g>
    </g>
    <g id="xtick_7">
     <g id="line2d_7">
      <g>
       <use style="stroke:#000000;stroke-width:0.8;" x="282.272727" xlink:href="#m457d70616c" y="252"/>
      </g>
     </g>
     <g id="text_7">
      <!-- −1 -->
      <g transform="translate(274.901634 266.598437)scale(0.1 -0.1)">
       <defs>
        <path d="M 794 531 
L 1825 531 
L 1825 4091 
L 703 3866 
L 703 4441 
L 1819 4666 
L 2450 4666 
L 2450 531 
L 3481 531 
L 3481 0 
L 794 0 
L 794 531 
z
" id="DejaVuSans-31" transform="scale(0.015625)"/>
       </defs>
       <use xlink:href="#DejaVuSans-2212"/>
       <use x="83.789062" xlink:href="#DejaVuSans-31"/>
      </g>
     </g>
    </g>
    <g id="xtick_8">
     <g id="line2d_8">
      <g>
       <use style="stroke:#000000;stroke-width:0.8;" x="320.318182" xlink:href="#m457d70616c" y="252"/>
      </g>
     </g>
     <g id="text_8">
      <!-- 0 -->
      <g transform="translate(317.136932 266.598437)scale(0.1 -0.1)">
       <defs>
        <path d="M 2034 4250 
Q 1547 4250 1301 3770 
Q 1056 3291 1056 2328 
Q 1056 1369 1301 889 
Q 1547 409 2034 409 
Q 2525 409 2770 889 
Q 3016 1369 3016 2328 
Q 3016 3291 2770 3770 
Q 2525 4250 2034 4250 
z
M 2034 4750 
Q 2819 4750 3233 4129 
Q 3647 3509 3647 2328 
Q 3647 1150 3233 529 
Q 2819 -91 2034 -91 
Q 1250 -91 836 529 
Q 422 1150 422 2328 
Q 422 3509 836 4129 
Q 1250 4750 2034 4750 
z
" id="DejaVuSans-30" transform="scale(0.015625)"/>
       </defs>
       <use xlink:href="#DejaVuSans-30"/>
      </g>
     </g>
    </g>
    <g id="xtick_9">
     <g id="line2d_9">
      <g>
       <use style="stroke:#000000;stroke-width:0.8;" x="358.363636" xlink:href="#m457d70616c" y="252"/>
      </g>
     </g>
     <g id="text_9">
      <!-- 1 -->
      <g transform="translate(355.182386 266.598437)scale(0.1 -0.1)">
       <use xlink:href="#DejaVuSans-31"/>
      </g>
     </g>
    </g>
    <g id="text_10">
     <!-- $V_{DS} (V)$ -->
     <g transform="translate(205.6 280.276563)scale(0.1 -0.1)">
      <defs>
       <path d="M 1319 0 
L 500 4666 
L 1119 4666 
L 1797 653 
L 4063 4666 
L 4750 4666 
L 2053 0 
L 1319 0 
z
" id="DejaVuSans-Oblique-56" transform="scale(0.015625)"/>
       <path d="M 1081 4666 
L 2438 4666 
Q 3519 4666 4070 4208 
Q 4622 3750 4622 2847 
Q 4622 2250 4412 1698 
Q 4203 1147 3834 769 
Q 3463 381 2891 190 
Q 2319 0 1538 0 
L 172 0 
L 1081 4666 
z
M 1613 4147 
L 909 519 
L 1734 519 
Q 2794 519 3375 1128 
Q 3956 1738 3956 2847 
Q 3956 3519 3581 3833 
Q 3206 4147 2406 4147 
L 1613 4147 
z
" id="DejaVuSans-Oblique-44" transform="scale(0.015625)"/>
       <path d="M 3859 4513 
L 3738 3897 
Q 3422 4066 3111 4152 
Q 2800 4238 2509 4238 
Q 1944 4238 1609 3991 
Q 1275 3744 1275 3334 
Q 1275 3109 1398 2989 
Q 1522 2869 2034 2731 
L 2413 2638 
Q 3053 2472 3303 2217 
Q 3553 1963 3553 1503 
Q 3553 797 2998 353 
Q 2444 -91 1538 -91 
Q 1166 -91 791 -17 
Q 416 56 38 206 
L 166 856 
Q 513 641 861 531 
Q 1209 422 1556 422 
Q 2147 422 2503 684 
Q 2859 947 2859 1369 
Q 2859 1650 2717 1795 
Q 2575 1941 2106 2059 
L 1728 2156 
Q 1081 2325 845 2545 
Q 609 2766 609 3163 
Q 609 3859 1145 4304 
Q 1681 4750 2541 4750 
Q 2875 4750 3203 4690 
Q 3531 4631 3859 4513 
z
" id="DejaVuSans-Oblique-53" transform="scale(0.015625)"/>
       <path d="M 1984 4856 
Q 1566 4138 1362 3434 
Q 1159 2731 1159 2009 
Q 1159 1288 1364 580 
Q 1569 -128 1984 -844 
L 1484 -844 
Q 1016 -109 783 600 
Q 550 1309 550 2009 
Q 550 2706 781 3412 
Q 1013 4119 1484 4856 
L 1984 4856 
z
" id="DejaVuSans-28" transform="scale(0.015625)"/>
       <path d="M 513 4856 
L 1013 4856 
Q 1481 4119 1714 3412 
Q 1947 2706 1947 2009 
Q 1947 1309 1714 600 
Q 1481 -109 1013 -844 
L 513 -844 
Q 928 -128 1133 580 
Q 1338 1288 1338 2009 
Q 1338 2731 1133 3434 
Q 928 4138 513 4856 
z
" id="DejaVuSans-29" transform="scale(0.015625)"/>
      </defs>
      <use transform="translate(0 0.125)" xlink:href="#DejaVuSans-Oblique-56"/>
      <use transform="translate(68.408203 -16.28125)scale(0.7)" xlink:href="#DejaVuSans-Oblique-44"/>
      <use transform="translate(122.30957 -16.28125)scale(0.7)" xlink:href="#DejaVuSans-Oblique-53"/>
      <use transform="translate(169.477539 0.125)" xlink:href="#DejaVuSans-28"/>
      <use transform="translate(208.491211 0.125)" xlink:href="#DejaVuSans-Oblique-56"/>
      <use transform="translate(276.899414 0.125)" xlink:href="#DejaVuSans-29"/>
     </g>
    </g>
   </g>
   <g id="matplotlib.axis_2">
    <g id="ytick_1">
     <g id="line2d_10">
      <defs>
       <path d="M 0 0 
L -3.5 0 
" id="m45024061a5" style="stroke:#000000;stroke-width:0.8;"/>
      </defs>
      <g>
       <use style="stroke:#000000;stroke-width:0.8;" x="54" xlink:href="#m45024061a5" y="252"/>
      </g>
     </g>
     <g id="text_11">
      <!-- 0.0000 -->
      <g transform="translate(12.009375 255.799219)scale(0.1 -0.1)">
       <defs>
        <path d="M 684 794 
L 1344 794 
L 1344 0 
L 684 0 
L 684 794 
z
" id="DejaVuSans-2e" transform="scale(0.015625)"/>
       </defs>
       <use xlink:href="#DejaVuSans-30"/>
       <use x="63.623047" xlink:href="#DejaVuSans-2e"/>
       <use x="95.410156" xlink:href="#DejaVuSans-30"/>
       <use x="159.033203" xlink:href="#DejaVuSans-30"/>
       <use x="222.65625" xlink:href="#DejaVuSans-30"/>
       <use x="286.279297" xlink:href="#DejaVuSans-30"/>
      </g>
     </g>
    </g>
    <g id="ytick_2">
     <g id="line2d_11">
      <g>
       <use style="stroke:#000000;stroke-width:0.8;" x="54" xlink:href="#m45024061a5" y="223.008"/>
      </g>
     </g>
     <g id="text_12">
      <!-- 0.0002 -->
      <g transform="translate(12.009375 226.807219)scale(0.1 -0.1)">
       <use xlink:href="#DejaVuSans-30"/>
       <use x="63.623047" xlink:href="#DejaVuSans-2e"/>
       <use x="95.410156" xlink:href="#DejaVuSans-30"/>
       <use x="159.033203" xlink:href="#DejaVuSans-30"/>
       <use x="222.65625" xlink:href="#DejaVuSans-30"/>
       <use x="286.279297" xlink:href="#DejaVuSans-32"/>
      </g>
     </g>
    </g>
    <g id="ytick_3">
     <g id="line2d_12">
      <g>
       <use style="stroke:#000000;stroke-width:0.8;" x="54" xlink:href="#m45024061a5" y="194.016"/>
      </g>
     </g>
     <g id="text_13">
      <!-- 0.0004 -->
      <g transform="translate(12.009375 197.815219)scale(0.1 -0.1)">
       <use xlink:href="#DejaVuSans-30"/>
       <use x="63.623047" xlink:href="#DejaVuSans-2e"/>
       <use x="95.410156" xlink:href="#DejaVuSans-30"/>
       <use x="159.033203" xlink:href="#DejaVuSans-30"/>
       <use x="222.65625" xlink:href="#DejaVuSans-30"/>
       <use x="286.279297" xlink:href="#DejaVuSans-34"/>
      </g>
     </g>
    </g>
    <g id="ytick_4">
     <g id="line2d_13">
      <g>
       <use style="stroke:#000000;stroke-width:0.8;" x="54" xlink:href="#m45024061a5" y="165.024"/>
      </g>
     </g>
     <g id="text_14">
      <!-- 0.0006 -->
      <g transform="translate(12.009375 168.823219)scale(0.1 -0.1)">
       <use xlink:href="#DejaVuSans-30"/>
       <use x="63.623047" xlink:href="#DejaVuSans-2e"/>
       <use x="95.410156" xlink:href="#DejaVuSans-30"/>
       <use x="159.033203" xlink:href="#DejaVuSans-30"/>
       <use x="222.65625" xlink:href="#DejaVuSans-30"/>
       <use x="286.279297" xlink:href="#DejaVuSans-36"/>
      </g>
     </g>
    </g>
    <g id="ytick_5">
     <g id="line2d_14">
      <g>
       <use style="stroke:#000000;stroke-width:0.8;" x="54" xlink:href="#m45024061a5" y="136.032"/>
      </g>
     </g>
     <g id="text_15">
      <!-- 0.0008 -->
      <g transform="translate(12.009375 139.831219)scale(0.1 -0.1)">
       <defs>
        <path d="M 2034 2216 
Q 1584 2216 1326 1975 
Q 1069 1734 1069 1313 
Q 1069 891 1326 650 
Q 1584 409 2034 409 
Q 2484 409 2743 651 
Q 3003 894 3003 1313 
Q 3003 1734 2745 1975 
Q 2488 2216 2034 2216 
z
M 1403 2484 
Q 997 2584 770 2862 
Q 544 3141 544 3541 
Q 544 4100 942 4425 
Q 1341 4750 2034 4750 
Q 2731 4750 3128 4425 
Q 3525 4100 3525 3541 
Q 3525 3141 3298 2862 
Q 3072 2584 2669 2484 
Q 3125 2378 3379 2068 
Q 3634 1759 3634 1313 
Q 3634 634 3220 271 
Q 2806 -91 2034 -91 
Q 1263 -91 848 271 
Q 434 634 434 1313 
Q 434 1759 690 2068 
Q 947 2378 1403 2484 
z
M 1172 3481 
Q 1172 3119 1398 2916 
Q 1625 2713 2034 2713 
Q 2441 2713 2670 2916 
Q 2900 3119 2900 3481 
Q 2900 3844 2670 4047 
Q 2441 4250 2034 4250 
Q 1625 4250 1398 4047 
Q 1172 3844 1172 3481 
z
" id="DejaVuSans-38" transform="scale(0.015625)"/>
       </defs>
       <use xlink:href="#DejaVuSans-30"/>
       <use x="63.623047" xlink:href="#DejaVuSans-2e"/>
       <use x="95.410156" xlink:href="#DejaVuSans-30"/>
       <use x="159.033203" xlink:href="#DejaVuSans-30"/>
       <use x="222.65625" xlink:href="#DejaVuSans-30"/>
       <use x="286.279297" xlink:href="#DejaVuSans-38"/>
      </g>
     </g>
    </g>
    <g id="ytick_6">
     <g id="line2d_15">
      <g>
       <use style="stroke:#000000;stroke-width:0.8;" x="54" xlink:href="#m45024061a5" y="107.04"/>
      </g>
     </g>
     <g id="text_16">
      <!-- 0.0010 -->
      <g transform="translate(12.009375 110.839219)scale(0.1 -0.1)">
       <use xlink:href="#DejaVuSans-30"/>
       <use x="63.623047" xlink:href="#DejaVuSans-2e"/>
       <use x="95.410156" xlink:href="#DejaVuSans-30"/>
       <use x="159.033203" xlink:href="#DejaVuSans-30"/>
       <use x="222.65625" xlink:href="#DejaVuSans-31"/>
       <use x="286.279297" xlink:href="#DejaVuSans-30"/>
      </g>
     </g>
    </g>
    <g id="ytick_7">
     <g id="line2d_16">
      <g>
       <use style="stroke:#000000;stroke-width:0.8;" x="54" xlink:href="#m45024061a5" y="78.048"/>
      </g>
     </g>
     <g id="text_17">
      <!-- 0.0012 -->
      <g transform="translate(12.009375 81.847219)scale(0.1 -0.1)">
       <use xlink:href="#DejaVuSans-30"/>
       <use x="63.623047" xlink:href="#DejaVuSans-2e"/>
       <use x="95.410156" xlink:href="#DejaVuSans-30"/>
       <use x="159.033203" xlink:href="#DejaVuSans-30"/>
       <use x="222.65625" xlink:href="#DejaVuSans-31"/>
       <use x="286.279297" xlink:href="#DejaVuSans-32"/>
      </g>
     </g>
    </g>
    <g id="ytick_8">
     <g id="line2d_17">
      <g>
       <use style="stroke:#000000;stroke-width:0.8;" x="54" xlink:href="#m45024061a5" y="49.056"/>
      </g>
     </g>
     <g id="text_18">
      <!-- 0.0014 -->
      <g transform="translate(12.009375 52.855219)scale(0.1 -0.1)">
       <use xlink:href="#DejaVuSans-30"/>
       <use x="63.623047" xlink:href="#DejaVuSans-2e"/>
       <use x="95.410156" xlink:href="#DejaVuSans-30"/>
       <use x="159.033203" xlink:href="#DejaVuSans-30"/>
       <use x="222.65625" xlink:href="#DejaVuSans-31"/>
       <use x="286.279297" xlink:href="#DejaVuSans-34"/>
      </g>
     </g>
    </g>
    <g id="text_19">
     <!-- $I_D (A)$ -->
     <g transform="translate(5.929687 154.93)rotate(-90)scale(0.1 -0.1)">
      <defs>
       <path d="M 1081 4666 
L 1716 4666 
L 806 0 
L 172 0 
L 1081 4666 
z
" id="DejaVuSans-Oblique-49" transform="scale(0.015625)"/>
       <path d="M 2356 4666 
L 3072 4666 
L 3938 0 
L 3278 0 
L 3084 1197 
L 984 1197 
L 325 0 
L -341 0 
L 2356 4666 
z
M 2584 4044 
L 1275 1722 
L 2988 1722 
L 2584 4044 
z
" id="DejaVuSans-Oblique-41" transform="scale(0.015625)"/>
      </defs>
      <use transform="translate(0 0.125)" xlink:href="#DejaVuSans-Oblique-49"/>
      <use transform="translate(29.492188 -16.28125)scale(0.7)" xlink:href="#DejaVuSans-Oblique-44"/>
      <use transform="translate(86.12793 0.125)" xlink:href="#DejaVuSans-28"/>
      <use transform="translate(125.141602 0.125)" xlink:href="#DejaVuSans-Oblique-41"/>
      <use transform="translate(193.549805 0.125)" xlink:href="#DejaVuSans-29"/>
     </g>
    </g>
   </g>
   <g id="line2d_18">
    <path clip-path="url(#pe2ca96b78a)" d="M 320.318182 252 
L 321.079091 249.890199 
L 321.84 248.066773 
L 322.600909 246.516504 
L 323.361818 245.225571 
L 324.122727 244.178144 
L 324.883636 243.353716 
L 325.644545 242.723483 
L 326.405454 242.248799 
L 327.166364 241.88608 
L 327.927273 241.596361 
L 328.688182 241.351354 
L 329.449091 241.133167 
L 330.21 240.931173 
L 330.970909 240.739133 
L 331.731819 240.553319 
L 332.492727 240.371437 
L 333.253636 240.192028 
L 334.014546 240.014133 
L 334.775454 239.8371 
L 335.536364 239.660479 
L 336.297272 239.483947 
L 337.058182 239.307268 
L 337.819091 239.130268 
L 338.58 238.952814 
L 339.340909 238.774805 
L 340.101817 238.596163 
L 340.862728 238.416825 
L 341.623636 238.236743 
L 342.384545 238.055877 
L 343.145455 237.874195 
L 343.906364 237.691674 
L 344.667272 237.50829 
L 345.428183 237.324028 
L 346.189091 237.138873 
L 346.95 236.952814 
L 347.71091 236.765841 
L 348.471819 236.577947 
L 349.232727 236.389126 
L 349.993635 236.199372 
L 350.754546 236.008681 
L 351.515454 235.81705 
L 352.276363 235.624478 
L 353.037273 235.430962 
L 353.798182 235.236499 
L 354.55909 235.041092 
L 355.320001 234.844737 
L 356.080909 234.647435 
L 356.841817 234.449188 
L 357.602728 234.249994 
L 358.363636 234.049854 
L 359.124545 233.848771 
L 359.885453 233.646745 
L 360.646361 233.443774 
L 361.407274 233.239865 
L 362.168183 233.035016 
L 362.929091 232.829229 
L 363.689999 232.622508 
L 364.450908 232.414852 
L 365.211816 232.206264 
L 365.972729 231.996745 
L 366.733637 231.786298 
L 367.494546 231.574926 
L 368.255454 231.362629 
L 369.016363 231.14941 
L 369.777271 230.935272 
L 370.538184 230.720216 
L 371.299092 230.504245 
L 372.060001 230.287362 
L 372.820909 230.069566 
L 373.581817 229.850865 
L 374.342726 229.631257 
L 375.103639 229.410746 
L 375.864547 229.189332 
L 376.625455 228.967022 
L 377.386364 228.743813 
L 378.147272 228.519712 
L 378.90818 228.294721 
L 379.669089 228.068839 
L 380.430002 227.84207 
L 381.19091 227.614418 
L 381.951818 227.385885 
L 382.712727 227.15647 
L 383.473635 226.926182 
L 384.234543 226.695016 
L 384.995456 226.462982 
L 385.756365 226.230076 
L 386.517273 225.996303 
L 387.278181 225.761665 
L 388.03909 225.526166 
L 388.799998 225.289805 
" style="fill:none;stroke:#1f77b4;stroke-linecap:square;stroke-width:1.5;"/>
   </g>
   <g id="line2d_19">
    <path clip-path="url(#pe2ca96b78a)" d="M 161.564452 289 
L 388.8 225.609467 
" style="fill:none;stroke:#ff7f0e;stroke-dasharray:5.55,2.4;stroke-dashoffset:0;stroke-width:1.5;"/>
   </g>
   <g id="line2d_20">
    <path clip-path="url(#pe2ca96b78a)" d="M 320.318182 252 
L 321.079091 247.133987 
L 321.84 242.595505 
L 322.600909 238.373223 
L 323.361818 234.456516 
L 324.122727 230.835462 
L 324.883636 227.500846 
L 325.644545 224.444166 
L 326.405454 221.657639 
L 327.166364 219.13417 
L 327.927273 216.867246 
L 328.688182 214.850625 
L 329.449091 213.077648 
L 330.21 211.539926 
L 330.970909 210.225319 
L 331.731819 209.11573 
L 332.492727 208.186084 
L 333.253636 207.40602 
L 334.014546 206.743894 
L 334.775454 206.170973 
L 335.536364 205.663808 
L 336.297272 205.204598 
L 337.058182 204.78038 
L 337.819091 204.381889 
L 338.58 204.002518 
L 339.340909 203.637554 
L 340.101817 203.283568 
L 340.862728 202.938062 
L 341.623636 202.599163 
L 342.384545 202.26547 
L 343.145455 201.935902 
L 343.906364 201.609626 
L 344.667272 201.285982 
L 345.428183 200.964461 
L 346.189091 200.644635 
L 346.95 200.326168 
L 347.71091 200.008789 
L 348.471819 199.692262 
L 349.232727 199.376402 
L 349.993635 199.061049 
L 350.754546 198.746066 
L 351.515454 198.431341 
L 352.276363 198.116781 
L 353.037273 197.802296 
L 353.798182 197.487816 
L 354.55909 197.17328 
L 355.320001 196.858631 
L 356.080909 196.543826 
L 356.841817 196.228823 
L 357.602728 195.913579 
L 358.363636 195.598065 
L 359.124545 195.282255 
L 359.885453 194.966121 
L 360.646361 194.649641 
L 361.407274 194.332794 
L 362.168183 194.015558 
L 362.929091 193.697927 
L 363.689999 193.379873 
L 364.450908 193.061393 
L 365.211816 192.74247 
L 365.972729 192.423092 
L 366.733637 192.103253 
L 367.494546 191.782942 
L 368.255454 191.46215 
L 369.016363 191.140873 
L 369.777271 190.819099 
L 370.538184 190.496822 
L 371.299092 190.174043 
L 372.060001 189.850749 
L 372.820909 189.526937 
L 373.581817 189.202609 
L 374.342726 188.877751 
L 375.103639 188.552369 
L 375.864547 188.226451 
L 376.625455 187.899997 
L 377.386364 187.573004 
L 378.147272 187.245474 
L 378.90818 186.917396 
L 379.669089 186.588774 
L 380.430002 186.259604 
L 381.19091 185.929885 
L 381.951818 185.599613 
L 382.712727 185.268789 
L 383.473635 184.937407 
L 384.234543 184.605473 
L 384.995456 184.272978 
L 385.756365 183.939926 
L 386.517273 183.606313 
L 387.278181 183.272139 
L 388.03909 182.937404 
L 388.799998 182.602108 
" style="fill:none;stroke:#2ca02c;stroke-linecap:square;stroke-width:1.5;"/>
   </g>
   <g id="line2d_21">
    <path clip-path="url(#pe2ca96b78a)" d="M 136.952349 289 
L 388.8 182.786263 
" style="fill:none;stroke:#d62728;stroke-dasharray:5.55,2.4;stroke-dashoffset:0;stroke-width:1.5;"/>
   </g>
   <g id="line2d_22">
    <path clip-path="url(#pe2ca96b78a)" d="M 320.318182 252 
L 321.079091 245.451713 
L 321.84 239.207791 
L 322.600909 233.25955 
L 323.361818 227.598722 
L 324.122727 222.217456 
L 324.883636 217.108314 
L 325.644545 212.264271 
L 326.405454 207.678733 
L 327.166364 203.345544 
L 327.927273 199.25902 
L 328.688182 195.413977 
L 329.449091 191.805788 
L 330.21 188.430417 
L 330.970909 185.284504 
L 331.731819 182.365381 
L 332.492727 179.671092 
L 333.253636 177.200273 
L 334.014546 174.951823 
L 334.775454 172.924207 
L 335.536364 171.114235 
L 336.297272 169.515444 
L 337.058182 168.116418 
L 337.819091 166.899917 
L 338.58 165.843667 
L 339.340909 164.922616 
L 340.101817 164.111829 
L 340.862728 163.388762 
L 341.623636 162.734404 
L 342.384545 162.133532 
L 343.145455 161.574268 
L 343.906364 161.047505 
L 344.667272 160.546301 
L 345.428183 160.065364 
L 346.189091 159.600628 
L 346.95 159.14897 
L 347.71091 158.707936 
L 348.471819 158.275618 
L 349.232727 157.850497 
L 349.993635 157.43135 
L 350.754546 157.017207 
L 351.515454 156.607249 
L 352.276363 156.200835 
L 353.037273 155.797416 
L 353.798182 155.396537 
L 354.55909 154.997818 
L 355.320001 154.60093 
L 356.080909 154.20562 
L 356.841817 153.811634 
L 357.602728 153.418779 
L 358.363636 153.026887 
L 359.124545 152.635795 
L 359.885453 152.245379 
L 360.646361 151.855528 
L 361.407274 151.466133 
L 362.168183 151.077109 
L 362.929091 150.688372 
L 363.689999 150.299863 
L 364.450908 149.911514 
L 365.211816 149.523258 
L 365.972729 149.135061 
L 366.733637 148.746872 
L 367.494546 148.358641 
L 368.255454 147.970351 
L 369.016363 147.581952 
L 369.777271 147.193417 
L 370.538184 146.804714 
L 371.299092 146.415833 
L 372.060001 146.026742 
L 372.820909 145.637414 
L 373.581817 145.247833 
L 374.342726 144.857991 
L 375.103639 144.467862 
L 375.864547 144.077429 
L 376.625455 143.686683 
L 377.386364 143.295609 
L 378.147272 142.904197 
L 378.90818 142.512439 
L 379.669089 142.120319 
L 380.430002 141.727818 
L 381.19091 141.334947 
L 381.951818 140.941687 
L 382.712727 140.548022 
L 383.473635 140.153961 
L 384.234543 139.759495 
L 384.995456 139.364606 
L 385.756365 138.969288 
L 386.517273 138.573547 
L 387.278181 138.177377 
L 388.03909 137.780759 
L 388.799998 137.383702 
" style="fill:none;stroke:#9467bd;stroke-linecap:square;stroke-width:1.5;"/>
   </g>
   <g id="line2d_23">
    <path clip-path="url(#pe2ca96b78a)" d="M 92.249688 289 
L 388.8 137.470886 
" style="fill:none;stroke:#8c564b;stroke-dasharray:5.55,2.4;stroke-dashoffset:0;stroke-width:1.5;"/>
   </g>
   <g id="line2d_24">
    <path clip-path="url(#pe2ca96b78a)" d="M 320.318182 252 
L 321.079091 244.433242 
L 321.84 237.13627 
L 322.600909 230.102672 
L 323.361818 223.32627 
L 324.122727 216.801132 
L 324.883636 210.521561 
L 325.644545 204.482088 
L 326.405454 198.67748 
L 327.166364 193.102747 
L 327.927273 187.753133 
L 328.688182 182.624143 
L 329.449091 177.711535 
L 330.21 173.011353 
L 330.970909 168.519929 
L 331.731819 164.233958 
L 332.492727 160.150468 
L 333.253636 156.266928 
L 334.014546 152.581262 
L 334.775454 149.091927 
L 335.536364 145.797985 
L 336.297272 142.699167 
L 337.058182 139.795853 
L 337.819091 137.08908 
L 338.58 134.580308 
L 339.340909 132.270996 
L 340.101817 130.161846 
L 340.862728 128.251667 
L 341.623636 126.536013 
L 342.384545 125.006082 
L 343.145455 123.648249 
L 343.906364 122.444751 
L 344.667272 121.375288 
L 345.428183 120.419076 
L 346.189091 119.556515 
L 346.95 118.770274 
L 347.71091 118.04573 
L 348.471819 117.370902 
L 349.232727 116.73617 
L 349.993635 116.133889 
L 350.754546 115.557985 
L 351.515454 115.003674 
L 352.276363 114.467132 
L 353.037273 113.945322 
L 353.798182 113.43579 
L 354.55909 112.936577 
L 355.320001 112.446055 
L 356.080909 111.962925 
L 356.841817 111.48608 
L 357.602728 111.014636 
L 358.363636 110.547816 
L 359.124545 110.085003 
L 359.885453 109.62565 
L 360.646361 109.169301 
L 361.407274 108.715551 
L 362.168183 108.264096 
L 362.929091 107.814598 
L 363.689999 107.366839 
L 364.450908 106.920598 
L 365.211816 106.475657 
L 365.972729 106.031847 
L 366.733637 105.589049 
L 367.494546 105.147112 
L 368.255454 104.7059 
L 369.016363 104.26533 
L 369.777271 103.825299 
L 370.538184 103.385741 
L 371.299092 102.946555 
L 372.060001 102.507672 
L 372.820909 102.069042 
L 373.581817 101.630615 
L 374.342726 101.192323 
L 375.103639 100.754132 
L 375.864547 100.315992 
L 376.625455 99.877868 
L 377.386364 99.439711 
L 378.147272 99.00152 
L 378.90818 98.563228 
L 379.669089 98.124835 
L 380.430002 97.686289 
L 381.19091 97.247592 
L 381.951818 96.808726 
L 382.712727 96.369641 
L 383.473635 95.930336 
L 384.234543 95.490778 
L 384.995456 95.050984 
L 385.756365 94.610903 
L 386.517273 94.170535 
L 387.278181 93.729881 
L 388.03909 93.288905 
L 388.799998 92.847609 
" style="fill:none;stroke:#e377c2;stroke-linecap:square;stroke-width:1.5;"/>
   </g>
   <g id="line2d_25">
    <path clip-path="url(#pe2ca96b78a)" d="M 54 287.617318 
L 388.8 92.766924 
" style="fill:none;stroke:#7f7f7f;stroke-dasharray:5.55,2.4;stroke-dashoffset:0;stroke-width:1.5;"/>
   </g>
   <g id="line2d_26">
    <path clip-path="url(#pe2ca96b78a)" d="M 320.318182 252 
L 321.079091 243.82571 
L 321.84 235.887036 
L 322.600909 228.179256 
L 323.361818 220.697791 
L 324.122727 213.438203 
L 324.883636 206.396199 
L 325.644545 199.567611 
L 326.405454 192.948415 
L 327.166364 186.53473 
L 327.927273 180.322801 
L 328.688182 174.309008 
L 329.449091 168.489883 
L 330.21 162.862093 
L 330.970909 157.422465 
L 331.731819 152.167979 
L 332.492727 147.095775 
L 333.253636 142.203178 
L 334.014546 137.487706 
L 334.775454 132.947099 
L 335.536364 128.579332 
L 336.297272 124.382648 
L 337.058182 120.355607 
L 337.819091 116.497127 
L 338.58 112.806509 
L 339.340909 109.283549 
L 340.101817 105.928535 
L 340.862728 102.74236 
L 341.623636 99.726511 
L 342.384545 96.883097 
L 343.145455 94.214699 
L 343.906364 91.724068 
L 344.667272 89.413769 
L 345.428183 87.285288 
L 346.189091 85.338202 
L 346.95 83.569069 
L 347.71091 81.970717 
L 348.471819 80.531991 
L 349.232727 79.238428 
L 349.993635 78.073356 
L 350.754546 77.019375 
L 351.515454 76.059662 
L 352.276363 75.178859 
L 353.037273 74.36355 
L 353.798182 73.602327 
L 354.55909 72.885756 
L 355.320001 72.206059 
L 356.080909 71.556924 
L 356.841817 70.93322 
L 357.602728 70.330779 
L 358.363636 69.746193 
L 359.124545 69.176693 
L 359.885453 68.620019 
L 360.646361 68.074246 
L 361.407274 67.537839 
L 362.168183 67.009516 
L 362.929091 66.488145 
L 363.689999 65.972816 
L 364.450908 65.462752 
L 365.211816 64.957295 
L 365.972729 64.455872 
L 366.733637 63.957975 
L 367.494546 63.4632 
L 368.255454 62.971159 
L 369.016363 62.481532 
L 369.777271 61.994047 
L 370.538184 61.508453 
L 371.299092 61.024529 
L 372.060001 60.542091 
L 372.820909 60.060934 
L 373.581817 59.580943 
L 374.342726 59.101964 
L 375.103639 58.623879 
L 375.864547 58.146587 
L 376.625455 57.669954 
L 377.386364 57.193928 
L 378.147272 56.718391 
L 378.90818 56.24331 
L 379.669089 55.768584 
L 380.430002 55.294161 
L 381.19091 54.819991 
L 381.951818 54.346024 
L 382.712727 53.872209 
L 383.473635 53.398495 
L 384.234543 52.924849 
L 384.995456 52.451236 
L 385.756365 51.977623 
L 386.517273 51.50396 
L 387.278181 51.030246 
L 388.03909 50.556431 
L 388.799998 50.082497 
" style="fill:none;stroke:#bcbd22;stroke-linecap:square;stroke-width:1.5;"/>
   </g>
   <g id="line2d_27">
    <path clip-path="url(#pe2ca96b78a)" d="M 54 268.38904 
L 388.8 49.613284 
" style="fill:none;stroke:#17becf;stroke-dasharray:5.55,2.4;stroke-dashoffset:0;stroke-width:1.5;"/>
   </g>
   <g id="patch_3">
    <path d="M 54 252 
L 54 34.56 
" style="fill:none;stroke:#000000;stroke-linecap:square;stroke-linejoin:miter;stroke-width:0.8;"/>
   </g>
   <g id="patch_4">
    <path d="M 388.8 252 
L 388.8 34.56 
" style="fill:none;stroke:#000000;stroke-linecap:square;stroke-linejoin:miter;stroke-width:0.8;"/>
   </g>
   <g id="patch_5">
    <path d="M 54 252 
L 388.8 252 
" style="fill:none;stroke:#000000;stroke-linecap:square;stroke-linejoin:miter;stroke-width:0.8;"/>
   </g>
   <g id="patch_6">
    <path d="M 54 34.56 
L 388.8 34.56 
" style="fill:none;stroke:#000000;stroke-linecap:square;stroke-linejoin:miter;stroke-width:0.8;"/>
   </g>
   <g id="text_20">
    <!-- Determining of λ by x-intersect of tangents at saturation -->
    <g transform="translate(50.956875 28.56)scale(0.12 -0.12)">
     <defs>
      <path d="M 1259 4147 
L 1259 519 
L 2022 519 
Q 2988 519 3436 956 
Q 3884 1394 3884 2338 
Q 3884 3275 3436 3711 
Q 2988 4147 2022 4147 
L 1259 4147 
z
M 628 4666 
L 1925 4666 
Q 3281 4666 3915 4102 
Q 4550 3538 4550 2338 
Q 4550 1131 3912 565 
Q 3275 0 1925 0 
L 628 0 
L 628 4666 
z
" id="DejaVuSans-44" transform="scale(0.015625)"/>
      <path d="M 3597 1894 
L 3597 1613 
L 953 1613 
Q 991 1019 1311 708 
Q 1631 397 2203 397 
Q 2534 397 2845 478 
Q 3156 559 3463 722 
L 3463 178 
Q 3153 47 2828 -22 
Q 2503 -91 2169 -91 
Q 1331 -91 842 396 
Q 353 884 353 1716 
Q 353 2575 817 3079 
Q 1281 3584 2069 3584 
Q 2775 3584 3186 3129 
Q 3597 2675 3597 1894 
z
M 3022 2063 
Q 3016 2534 2758 2815 
Q 2500 3097 2075 3097 
Q 1594 3097 1305 2825 
Q 1016 2553 972 2059 
L 3022 2063 
z
" id="DejaVuSans-65" transform="scale(0.015625)"/>
      <path d="M 1172 4494 
L 1172 3500 
L 2356 3500 
L 2356 3053 
L 1172 3053 
L 1172 1153 
Q 1172 725 1289 603 
Q 1406 481 1766 481 
L 2356 481 
L 2356 0 
L 1766 0 
Q 1100 0 847 248 
Q 594 497 594 1153 
L 594 3053 
L 172 3053 
L 172 3500 
L 594 3500 
L 594 4494 
L 1172 4494 
z
" id="DejaVuSans-74" transform="scale(0.015625)"/>
      <path d="M 2631 2963 
Q 2534 3019 2420 3045 
Q 2306 3072 2169 3072 
Q 1681 3072 1420 2755 
Q 1159 2438 1159 1844 
L 1159 0 
L 581 0 
L 581 3500 
L 1159 3500 
L 1159 2956 
Q 1341 3275 1631 3429 
Q 1922 3584 2338 3584 
Q 2397 3584 2469 3576 
Q 2541 3569 2628 3553 
L 2631 2963 
z
" id="DejaVuSans-72" transform="scale(0.015625)"/>
      <path d="M 3328 2828 
Q 3544 3216 3844 3400 
Q 4144 3584 4550 3584 
Q 5097 3584 5394 3201 
Q 5691 2819 5691 2113 
L 5691 0 
L 5113 0 
L 5113 2094 
Q 5113 2597 4934 2840 
Q 4756 3084 4391 3084 
Q 3944 3084 3684 2787 
Q 3425 2491 3425 1978 
L 3425 0 
L 2847 0 
L 2847 2094 
Q 2847 2600 2669 2842 
Q 2491 3084 2119 3084 
Q 1678 3084 1418 2786 
Q 1159 2488 1159 1978 
L 1159 0 
L 581 0 
L 581 3500 
L 1159 3500 
L 1159 2956 
Q 1356 3278 1631 3431 
Q 1906 3584 2284 3584 
Q 2666 3584 2933 3390 
Q 3200 3197 3328 2828 
z
" id="DejaVuSans-6d" transform="scale(0.015625)"/>
      <path d="M 603 3500 
L 1178 3500 
L 1178 0 
L 603 0 
L 603 3500 
z
M 603 4863 
L 1178 4863 
L 1178 4134 
L 603 4134 
L 603 4863 
z
" id="DejaVuSans-69" transform="scale(0.015625)"/>
      <path d="M 3513 2113 
L 3513 0 
L 2938 0 
L 2938 2094 
Q 2938 2591 2744 2837 
Q 2550 3084 2163 3084 
Q 1697 3084 1428 2787 
Q 1159 2491 1159 1978 
L 1159 0 
L 581 0 
L 581 3500 
L 1159 3500 
L 1159 2956 
Q 1366 3272 1645 3428 
Q 1925 3584 2291 3584 
Q 2894 3584 3203 3211 
Q 3513 2838 3513 2113 
z
" id="DejaVuSans-6e" transform="scale(0.015625)"/>
      <path d="M 2906 1791 
Q 2906 2416 2648 2759 
Q 2391 3103 1925 3103 
Q 1463 3103 1205 2759 
Q 947 2416 947 1791 
Q 947 1169 1205 825 
Q 1463 481 1925 481 
Q 2391 481 2648 825 
Q 2906 1169 2906 1791 
z
M 3481 434 
Q 3481 -459 3084 -895 
Q 2688 -1331 1869 -1331 
Q 1566 -1331 1297 -1286 
Q 1028 -1241 775 -1147 
L 775 -588 
Q 1028 -725 1275 -790 
Q 1522 -856 1778 -856 
Q 2344 -856 2625 -561 
Q 2906 -266 2906 331 
L 2906 616 
Q 2728 306 2450 153 
Q 2172 0 1784 0 
Q 1141 0 747 490 
Q 353 981 353 1791 
Q 353 2603 747 3093 
Q 1141 3584 1784 3584 
Q 2172 3584 2450 3431 
Q 2728 3278 2906 2969 
L 2906 3500 
L 3481 3500 
L 3481 434 
z
" id="DejaVuSans-67" transform="scale(0.015625)"/>
      <path id="DejaVuSans-20" transform="scale(0.015625)"/>
      <path d="M 1959 3097 
Q 1497 3097 1228 2736 
Q 959 2375 959 1747 
Q 959 1119 1226 758 
Q 1494 397 1959 397 
Q 2419 397 2687 759 
Q 2956 1122 2956 1747 
Q 2956 2369 2687 2733 
Q 2419 3097 1959 3097 
z
M 1959 3584 
Q 2709 3584 3137 3096 
Q 3566 2609 3566 1747 
Q 3566 888 3137 398 
Q 2709 -91 1959 -91 
Q 1206 -91 779 398 
Q 353 888 353 1747 
Q 353 2609 779 3096 
Q 1206 3584 1959 3584 
z
" id="DejaVuSans-6f" transform="scale(0.015625)"/>
      <path d="M 2375 4863 
L 2375 4384 
L 1825 4384 
Q 1516 4384 1395 4259 
Q 1275 4134 1275 3809 
L 1275 3500 
L 2222 3500 
L 2222 3053 
L 1275 3053 
L 1275 0 
L 697 0 
L 697 3053 
L 147 3053 
L 147 3500 
L 697 3500 
L 697 3744 
Q 697 4328 969 4595 
Q 1241 4863 1831 4863 
L 2375 4863 
z
" id="DejaVuSans-66" transform="scale(0.015625)"/>
      <path d="M 1981 4316 
L 3597 0 
L 2988 0 
L 2006 2588 
L 800 0 
L 191 0 
L 1725 3356 
L 1494 3975 
Q 1347 4369 1013 4369 
L 713 4369 
L 713 4863 
L 1078 4856 
Q 1784 4847 1981 4316 
z
" id="DejaVuSans-3bb" transform="scale(0.015625)"/>
      <path d="M 3116 1747 
Q 3116 2381 2855 2742 
Q 2594 3103 2138 3103 
Q 1681 3103 1420 2742 
Q 1159 2381 1159 1747 
Q 1159 1113 1420 752 
Q 1681 391 2138 391 
Q 2594 391 2855 752 
Q 3116 1113 3116 1747 
z
M 1159 2969 
Q 1341 3281 1617 3432 
Q 1894 3584 2278 3584 
Q 2916 3584 3314 3078 
Q 3713 2572 3713 1747 
Q 3713 922 3314 415 
Q 2916 -91 2278 -91 
Q 1894 -91 1617 61 
Q 1341 213 1159 525 
L 1159 0 
L 581 0 
L 581 4863 
L 1159 4863 
L 1159 2969 
z
" id="DejaVuSans-62" transform="scale(0.015625)"/>
      <path d="M 2059 -325 
Q 1816 -950 1584 -1140 
Q 1353 -1331 966 -1331 
L 506 -1331 
L 506 -850 
L 844 -850 
Q 1081 -850 1212 -737 
Q 1344 -625 1503 -206 
L 1606 56 
L 191 3500 
L 800 3500 
L 1894 763 
L 2988 3500 
L 3597 3500 
L 2059 -325 
z
" id="DejaVuSans-79" transform="scale(0.015625)"/>
      <path d="M 3513 3500 
L 2247 1797 
L 3578 0 
L 2900 0 
L 1881 1375 
L 863 0 
L 184 0 
L 1544 1831 
L 300 3500 
L 978 3500 
L 1906 2253 
L 2834 3500 
L 3513 3500 
z
" id="DejaVuSans-78" transform="scale(0.015625)"/>
      <path d="M 313 2009 
L 1997 2009 
L 1997 1497 
L 313 1497 
L 313 2009 
z
" id="DejaVuSans-2d" transform="scale(0.015625)"/>
      <path d="M 2834 3397 
L 2834 2853 
Q 2591 2978 2328 3040 
Q 2066 3103 1784 3103 
Q 1356 3103 1142 2972 
Q 928 2841 928 2578 
Q 928 2378 1081 2264 
Q 1234 2150 1697 2047 
L 1894 2003 
Q 2506 1872 2764 1633 
Q 3022 1394 3022 966 
Q 3022 478 2636 193 
Q 2250 -91 1575 -91 
Q 1294 -91 989 -36 
Q 684 19 347 128 
L 347 722 
Q 666 556 975 473 
Q 1284 391 1588 391 
Q 1994 391 2212 530 
Q 2431 669 2431 922 
Q 2431 1156 2273 1281 
Q 2116 1406 1581 1522 
L 1381 1569 
Q 847 1681 609 1914 
Q 372 2147 372 2553 
Q 372 3047 722 3315 
Q 1072 3584 1716 3584 
Q 2034 3584 2315 3537 
Q 2597 3491 2834 3397 
z
" id="DejaVuSans-73" transform="scale(0.015625)"/>
      <path d="M 3122 3366 
L 3122 2828 
Q 2878 2963 2633 3030 
Q 2388 3097 2138 3097 
Q 1578 3097 1268 2742 
Q 959 2388 959 1747 
Q 959 1106 1268 751 
Q 1578 397 2138 397 
Q 2388 397 2633 464 
Q 2878 531 3122 666 
L 3122 134 
Q 2881 22 2623 -34 
Q 2366 -91 2075 -91 
Q 1284 -91 818 406 
Q 353 903 353 1747 
Q 353 2603 823 3093 
Q 1294 3584 2113 3584 
Q 2378 3584 2631 3529 
Q 2884 3475 3122 3366 
z
" id="DejaVuSans-63" transform="scale(0.015625)"/>
      <path d="M 2194 1759 
Q 1497 1759 1228 1600 
Q 959 1441 959 1056 
Q 959 750 1161 570 
Q 1363 391 1709 391 
Q 2188 391 2477 730 
Q 2766 1069 2766 1631 
L 2766 1759 
L 2194 1759 
z
M 3341 1997 
L 3341 0 
L 2766 0 
L 2766 531 
Q 2569 213 2275 61 
Q 1981 -91 1556 -91 
Q 1019 -91 701 211 
Q 384 513 384 1019 
Q 384 1609 779 1909 
Q 1175 2209 1959 2209 
L 2766 2209 
L 2766 2266 
Q 2766 2663 2505 2880 
Q 2244 3097 1772 3097 
Q 1472 3097 1187 3025 
Q 903 2953 641 2809 
L 641 3341 
Q 956 3463 1253 3523 
Q 1550 3584 1831 3584 
Q 2591 3584 2966 3190 
Q 3341 2797 3341 1997 
z
" id="DejaVuSans-61" transform="scale(0.015625)"/>
      <path d="M 544 1381 
L 544 3500 
L 1119 3500 
L 1119 1403 
Q 1119 906 1312 657 
Q 1506 409 1894 409 
Q 2359 409 2629 706 
Q 2900 1003 2900 1516 
L 2900 3500 
L 3475 3500 
L 3475 0 
L 2900 0 
L 2900 538 
Q 2691 219 2414 64 
Q 2138 -91 1772 -91 
Q 1169 -91 856 284 
Q 544 659 544 1381 
z
M 1991 3584 
L 1991 3584 
z
" id="DejaVuSans-75" transform="scale(0.015625)"/>
     </defs>
     <use xlink:href="#DejaVuSans-44"/>
     <use x="77.001953" xlink:href="#DejaVuSans-65"/>
     <use x="138.525391" xlink:href="#DejaVuSans-74"/>
     <use x="177.734375" xlink:href="#DejaVuSans-65"/>
     <use x="239.257812" xlink:href="#DejaVuSans-72"/>
     <use x="278.621094" xlink:href="#DejaVuSans-6d"/>
     <use x="376.033203" xlink:href="#DejaVuSans-69"/>
     <use x="403.816406" xlink:href="#DejaVuSans-6e"/>
     <use x="467.195312" xlink:href="#DejaVuSans-69"/>
     <use x="494.978516" xlink:href="#DejaVuSans-6e"/>
     <use x="558.357422" xlink:href="#DejaVuSans-67"/>
     <use x="621.833984" xlink:href="#DejaVuSans-20"/>
     <use x="653.621094" xlink:href="#DejaVuSans-6f"/>
     <use x="714.802734" xlink:href="#DejaVuSans-66"/>
     <use x="750.007812" xlink:href="#DejaVuSans-20"/>
     <use x="781.794922" xlink:href="#DejaVuSans-3bb"/>
     <use x="840.974609" xlink:href="#DejaVuSans-20"/>
     <use x="872.761719" xlink:href="#DejaVuSans-62"/>
     <use x="936.238281" xlink:href="#DejaVuSans-79"/>
     <use x="995.417969" xlink:href="#DejaVuSans-20"/>
     <use x="1027.205078" xlink:href="#DejaVuSans-78"/>
     <use x="1086.384766" xlink:href="#DejaVuSans-2d"/>
     <use x="1122.46875" xlink:href="#DejaVuSans-69"/>
     <use x="1150.251953" xlink:href="#DejaVuSans-6e"/>
     <use x="1213.630859" xlink:href="#DejaVuSans-74"/>
     <use x="1252.839844" xlink:href="#DejaVuSans-65"/>
     <use x="1314.363281" xlink:href="#DejaVuSans-72"/>
     <use x="1355.476562" xlink:href="#DejaVuSans-73"/>
     <use x="1407.576172" xlink:href="#DejaVuSans-65"/>
     <use x="1469.099609" xlink:href="#DejaVuSans-63"/>
     <use x="1524.080078" xlink:href="#DejaVuSans-74"/>
     <use x="1563.289062" xlink:href="#DejaVuSans-20"/>
     <use x="1595.076172" xlink:href="#DejaVuSans-6f"/>
     <use x="1656.257812" xlink:href="#DejaVuSans-66"/>
     <use x="1691.462891" xlink:href="#DejaVuSans-20"/>
     <use x="1723.25" xlink:href="#DejaVuSans-74"/>
     <use x="1762.458984" xlink:href="#DejaVuSans-61"/>
     <use x="1823.738281" xlink:href="#DejaVuSans-6e"/>
     <use x="1887.117188" xlink:href="#DejaVuSans-67"/>
     <use x="1950.59375" xlink:href="#DejaVuSans-65"/>
     <use x="2012.117188" xlink:href="#DejaVuSans-6e"/>
     <use x="2075.496094" xlink:href="#DejaVuSans-74"/>
     <use x="2114.705078" xlink:href="#DejaVuSans-73"/>
     <use x="2166.804688" xlink:href="#DejaVuSans-20"/>
     <use x="2198.591797" xlink:href="#DejaVuSans-61"/>
     <use x="2259.871094" xlink:href="#DejaVuSans-74"/>
     <use x="2299.080078" xlink:href="#DejaVuSans-20"/>
     <use x="2330.867188" xlink:href="#DejaVuSans-73"/>
     <use x="2382.966797" xlink:href="#DejaVuSans-61"/>
     <use x="2444.246094" xlink:href="#DejaVuSans-74"/>
     <use x="2483.455078" xlink:href="#DejaVuSans-75"/>
     <use x="2546.833984" xlink:href="#DejaVuSans-72"/>
     <use x="2587.947266" xlink:href="#DejaVuSans-61"/>
     <use x="2649.226562" xlink:href="#DejaVuSans-74"/>
     <use x="2688.435547" xlink:href="#DejaVuSans-69"/>
     <use x="2716.21875" xlink:href="#DejaVuSans-6f"/>
     <use x="2777.400391" xlink:href="#DejaVuSans-6e"/>
    </g>
   </g>
  </g>
 </g>
 <defs>
  <clipPath id="pe2ca96b78a">
   <rect height="217.44" width="334.8" x="54" y="34.56"/>
  </clipPath>
 </defs>
</svg>
