<?xml version="1.0" encoding="utf-8" standalone="no"?>
<!DOCTYPE svg PUBLIC "-//W3C//DTD SVG 1.1//EN"
  "http://www.w3.org/Graphics/SVG/1.1/DTD/svg11.dtd">
<svg height="288pt" version="1.1" viewBox="0 0 432 288" width="432pt" xmlns="http://www.w3.org/2000/svg" xmlns:xlink="http://www.w3.org/1999/xlink">
 <metadata>
  <rdf:RDF xmlns:cc="http://creativecommons.org/ns#" xmlns:dc="http://purl.org/dc/elements/1.1/" xmlns:rdf="http://www.w3.org/1999/02/22-rdf-syntax-ns#">
   <cc:Work>
    <dc:type rdf:resource="http://purl.org/dc/dcmitype/StillImage"/>
    <dc:date>2021-10-07T14:18:40.234437</dc:date>
    <dc:format>image/svg+xml</dc:format>
    <dc:creator>
     <cc:Agent>
      <dc:title>Matplotlib v3.4.3, https://matplotlib.org/</dc:title>
     </cc:Agent>
    </dc:creator>
   </cc:Work>
  </rdf:RDF>
 </metadata>
 <defs>
  <style type="text/css">*{stroke-linecap:butt;stroke-linejoin:round;}</style>
 </defs>
 <g id="figure_1">
  <g id="patch_1">
   <path d="M 0 288 
L 432 288 
L 432 0 
L 0 0 
z
" style="fill:none;"/>
  </g>
  <g id="axes_1">
   <g id="patch_2">
    <path d="M 54 252 
L 388.8 252 
L 388.8 34.56 
L 54 34.56 
z
" style="fill:#ffffff;"/>
   </g>
   <g id="matplotlib.axis_1">
    <g id="xtick_1">
     <g id="line2d_1">
      <path clip-path="url(#p1c02164e4a)" d="M 54 252 
L 54 34.56 
" style="fill:none;stroke:#b0b0b0;stroke-linecap:square;stroke-width:0.8;"/>
     </g>
     <g id="line2d_2">
      <defs>
       <path d="M 0 0 
L 0 3.5 
" id="m82035b3a7e" style="stroke:#000000;stroke-width:0.8;"/>
      </defs>
      <g>
       <use style="stroke:#000000;stroke-width:0.8;" x="54" xlink:href="#m82035b3a7e" y="252"/>
      </g>
     </g>
     <g id="text_1">
      <!-- 0.0 -->
      <g transform="translate(46.048437 266.598437)scale(0.1 -0.1)">
       <defs>
        <path d="M 2034 4250 
Q 1547 4250 1301 3770 
Q 1056 3291 1056 2328 
Q 1056 1369 1301 889 
Q 1547 409 2034 409 
Q 2525 409 2770 889 
Q 3016 1369 3016 2328 
Q 3016 3291 2770 3770 
Q 2525 4250 2034 4250 
z
M 2034 4750 
Q 2819 4750 3233 4129 
Q 3647 3509 3647 2328 
Q 3647 1150 3233 529 
Q 2819 -91 2034 -91 
Q 1250 -91 836 529 
Q 422 1150 422 2328 
Q 422 3509 836 4129 
Q 1250 4750 2034 4750 
z
" id="DejaVuSans-30" transform="scale(0.015625)"/>
        <path d="M 684 794 
L 1344 794 
L 1344 0 
L 684 0 
L 684 794 
z
" id="DejaVuSans-2e" transform="scale(0.015625)"/>
       </defs>
       <use xlink:href="#DejaVuSans-30"/>
       <use x="63.623047" xlink:href="#DejaVuSans-2e"/>
       <use x="95.410156" xlink:href="#DejaVuSans-30"/>
      </g>
     </g>
    </g>
    <g id="xtick_2">
     <g id="line2d_3">
      <path clip-path="url(#p1c02164e4a)" d="M 91.2 252 
L 91.2 34.56 
" style="fill:none;stroke:#b0b0b0;stroke-linecap:square;stroke-width:0.8;"/>
     </g>
     <g id="line2d_4">
      <g>
       <use style="stroke:#000000;stroke-width:0.8;" x="91.2" xlink:href="#m82035b3a7e" y="252"/>
      </g>
     </g>
     <g id="text_2">
      <!-- 0.2 -->
      <g transform="translate(83.248438 266.598437)scale(0.1 -0.1)">
       <defs>
        <path d="M 1228 531 
L 3431 531 
L 3431 0 
L 469 0 
L 469 531 
Q 828 903 1448 1529 
Q 2069 2156 2228 2338 
Q 2531 2678 2651 2914 
Q 2772 3150 2772 3378 
Q 2772 3750 2511 3984 
Q 2250 4219 1831 4219 
Q 1534 4219 1204 4116 
Q 875 4013 500 3803 
L 500 4441 
Q 881 4594 1212 4672 
Q 1544 4750 1819 4750 
Q 2544 4750 2975 4387 
Q 3406 4025 3406 3419 
Q 3406 3131 3298 2873 
Q 3191 2616 2906 2266 
Q 2828 2175 2409 1742 
Q 1991 1309 1228 531 
z
" id="DejaVuSans-32" transform="scale(0.015625)"/>
       </defs>
       <use xlink:href="#DejaVuSans-30"/>
       <use x="63.623047" xlink:href="#DejaVuSans-2e"/>
       <use x="95.410156" xlink:href="#DejaVuSans-32"/>
      </g>
     </g>
    </g>
    <g id="xtick_3">
     <g id="line2d_5">
      <path clip-path="url(#p1c02164e4a)" d="M 128.4 252 
L 128.4 34.56 
" style="fill:none;stroke:#b0b0b0;stroke-linecap:square;stroke-width:0.8;"/>
     </g>
     <g id="line2d_6">
      <g>
       <use style="stroke:#000000;stroke-width:0.8;" x="128.4" xlink:href="#m82035b3a7e" y="252"/>
      </g>
     </g>
     <g id="text_3">
      <!-- 0.4 -->
      <g transform="translate(120.448438 266.598437)scale(0.1 -0.1)">
       <defs>
        <path d="M 2419 4116 
L 825 1625 
L 2419 1625 
L 2419 4116 
z
M 2253 4666 
L 3047 4666 
L 3047 1625 
L 3713 1625 
L 3713 1100 
L 3047 1100 
L 3047 0 
L 2419 0 
L 2419 1100 
L 313 1100 
L 313 1709 
L 2253 4666 
z
" id="DejaVuSans-34" transform="scale(0.015625)"/>
       </defs>
       <use xlink:href="#DejaVuSans-30"/>
       <use x="63.623047" xlink:href="#DejaVuSans-2e"/>
       <use x="95.410156" xlink:href="#DejaVuSans-34"/>
      </g>
     </g>
    </g>
    <g id="xtick_4">
     <g id="line2d_7">
      <path clip-path="url(#p1c02164e4a)" d="M 165.6 252 
L 165.6 34.56 
" style="fill:none;stroke:#b0b0b0;stroke-linecap:square;stroke-width:0.8;"/>
     </g>
     <g id="line2d_8">
      <g>
       <use style="stroke:#000000;stroke-width:0.8;" x="165.6" xlink:href="#m82035b3a7e" y="252"/>
      </g>
     </g>
     <g id="text_4">
      <!-- 0.6 -->
      <g transform="translate(157.648438 266.598437)scale(0.1 -0.1)">
       <defs>
        <path d="M 2113 2584 
Q 1688 2584 1439 2293 
Q 1191 2003 1191 1497 
Q 1191 994 1439 701 
Q 1688 409 2113 409 
Q 2538 409 2786 701 
Q 3034 994 3034 1497 
Q 3034 2003 2786 2293 
Q 2538 2584 2113 2584 
z
M 3366 4563 
L 3366 3988 
Q 3128 4100 2886 4159 
Q 2644 4219 2406 4219 
Q 1781 4219 1451 3797 
Q 1122 3375 1075 2522 
Q 1259 2794 1537 2939 
Q 1816 3084 2150 3084 
Q 2853 3084 3261 2657 
Q 3669 2231 3669 1497 
Q 3669 778 3244 343 
Q 2819 -91 2113 -91 
Q 1303 -91 875 529 
Q 447 1150 447 2328 
Q 447 3434 972 4092 
Q 1497 4750 2381 4750 
Q 2619 4750 2861 4703 
Q 3103 4656 3366 4563 
z
" id="DejaVuSans-36" transform="scale(0.015625)"/>
       </defs>
       <use xlink:href="#DejaVuSans-30"/>
       <use x="63.623047" xlink:href="#DejaVuSans-2e"/>
       <use x="95.410156" xlink:href="#DejaVuSans-36"/>
      </g>
     </g>
    </g>
    <g id="xtick_5">
     <g id="line2d_9">
      <path clip-path="url(#p1c02164e4a)" d="M 202.8 252 
L 202.8 34.56 
" style="fill:none;stroke:#b0b0b0;stroke-linecap:square;stroke-width:0.8;"/>
     </g>
     <g id="line2d_10">
      <g>
       <use style="stroke:#000000;stroke-width:0.8;" x="202.8" xlink:href="#m82035b3a7e" y="252"/>
      </g>
     </g>
     <g id="text_5">
      <!-- 0.8 -->
      <g transform="translate(194.848438 266.598437)scale(0.1 -0.1)">
       <defs>
        <path d="M 2034 2216 
Q 1584 2216 1326 1975 
Q 1069 1734 1069 1313 
Q 1069 891 1326 650 
Q 1584 409 2034 409 
Q 2484 409 2743 651 
Q 3003 894 3003 1313 
Q 3003 1734 2745 1975 
Q 2488 2216 2034 2216 
z
M 1403 2484 
Q 997 2584 770 2862 
Q 544 3141 544 3541 
Q 544 4100 942 4425 
Q 1341 4750 2034 4750 
Q 2731 4750 3128 4425 
Q 3525 4100 3525 3541 
Q 3525 3141 3298 2862 
Q 3072 2584 2669 2484 
Q 3125 2378 3379 2068 
Q 3634 1759 3634 1313 
Q 3634 634 3220 271 
Q 2806 -91 2034 -91 
Q 1263 -91 848 271 
Q 434 634 434 1313 
Q 434 1759 690 2068 
Q 947 2378 1403 2484 
z
M 1172 3481 
Q 1172 3119 1398 2916 
Q 1625 2713 2034 2713 
Q 2441 2713 2670 2916 
Q 2900 3119 2900 3481 
Q 2900 3844 2670 4047 
Q 2441 4250 2034 4250 
Q 1625 4250 1398 4047 
Q 1172 3844 1172 3481 
z
" id="DejaVuSans-38" transform="scale(0.015625)"/>
       </defs>
       <use xlink:href="#DejaVuSans-30"/>
       <use x="63.623047" xlink:href="#DejaVuSans-2e"/>
       <use x="95.410156" xlink:href="#DejaVuSans-38"/>
      </g>
     </g>
    </g>
    <g id="xtick_6">
     <g id="line2d_11">
      <path clip-path="url(#p1c02164e4a)" d="M 240 252 
L 240 34.56 
" style="fill:none;stroke:#b0b0b0;stroke-linecap:square;stroke-width:0.8;"/>
     </g>
     <g id="line2d_12">
      <g>
       <use style="stroke:#000000;stroke-width:0.8;" x="240" xlink:href="#m82035b3a7e" y="252"/>
      </g>
     </g>
     <g id="text_6">
      <!-- 1.0 -->
      <g transform="translate(232.048438 266.598437)scale(0.1 -0.1)">
       <defs>
        <path d="M 794 531 
L 1825 531 
L 1825 4091 
L 703 3866 
L 703 4441 
L 1819 4666 
L 2450 4666 
L 2450 531 
L 3481 531 
L 3481 0 
L 794 0 
L 794 531 
z
" id="DejaVuSans-31" transform="scale(0.015625)"/>
       </defs>
       <use xlink:href="#DejaVuSans-31"/>
       <use x="63.623047" xlink:href="#DejaVuSans-2e"/>
       <use x="95.410156" xlink:href="#DejaVuSans-30"/>
      </g>
     </g>
    </g>
    <g id="xtick_7">
     <g id="line2d_13">
      <path clip-path="url(#p1c02164e4a)" d="M 277.2 252 
L 277.2 34.56 
" style="fill:none;stroke:#b0b0b0;stroke-linecap:square;stroke-width:0.8;"/>
     </g>
     <g id="line2d_14">
      <g>
       <use style="stroke:#000000;stroke-width:0.8;" x="277.2" xlink:href="#m82035b3a7e" y="252"/>
      </g>
     </g>
     <g id="text_7">
      <!-- 1.2 -->
      <g transform="translate(269.248438 266.598437)scale(0.1 -0.1)">
       <use xlink:href="#DejaVuSans-31"/>
       <use x="63.623047" xlink:href="#DejaVuSans-2e"/>
       <use x="95.410156" xlink:href="#DejaVuSans-32"/>
      </g>
     </g>
    </g>
    <g id="xtick_8">
     <g id="line2d_15">
      <path clip-path="url(#p1c02164e4a)" d="M 314.4 252 
L 314.4 34.56 
" style="fill:none;stroke:#b0b0b0;stroke-linecap:square;stroke-width:0.8;"/>
     </g>
     <g id="line2d_16">
      <g>
       <use style="stroke:#000000;stroke-width:0.8;" x="314.4" xlink:href="#m82035b3a7e" y="252"/>
      </g>
     </g>
     <g id="text_8">
      <!-- 1.4 -->
      <g transform="translate(306.448438 266.598437)scale(0.1 -0.1)">
       <use xlink:href="#DejaVuSans-31"/>
       <use x="63.623047" xlink:href="#DejaVuSans-2e"/>
       <use x="95.410156" xlink:href="#DejaVuSans-34"/>
      </g>
     </g>
    </g>
    <g id="xtick_9">
     <g id="line2d_17">
      <path clip-path="url(#p1c02164e4a)" d="M 351.6 252 
L 351.6 34.56 
" style="fill:none;stroke:#b0b0b0;stroke-linecap:square;stroke-width:0.8;"/>
     </g>
     <g id="line2d_18">
      <g>
       <use style="stroke:#000000;stroke-width:0.8;" x="351.6" xlink:href="#m82035b3a7e" y="252"/>
      </g>
     </g>
     <g id="text_9">
      <!-- 1.6 -->
      <g transform="translate(343.648438 266.598437)scale(0.1 -0.1)">
       <use xlink:href="#DejaVuSans-31"/>
       <use x="63.623047" xlink:href="#DejaVuSans-2e"/>
       <use x="95.410156" xlink:href="#DejaVuSans-36"/>
      </g>
     </g>
    </g>
    <g id="xtick_10">
     <g id="line2d_19">
      <path clip-path="url(#p1c02164e4a)" d="M 388.8 252 
L 388.8 34.56 
" style="fill:none;stroke:#b0b0b0;stroke-linecap:square;stroke-width:0.8;"/>
     </g>
     <g id="line2d_20">
      <g>
       <use style="stroke:#000000;stroke-width:0.8;" x="388.8" xlink:href="#m82035b3a7e" y="252"/>
      </g>
     </g>
     <g id="text_10">
      <!-- 1.8 -->
      <g transform="translate(380.848438 266.598437)scale(0.1 -0.1)">
       <use xlink:href="#DejaVuSans-31"/>
       <use x="63.623047" xlink:href="#DejaVuSans-2e"/>
       <use x="95.410156" xlink:href="#DejaVuSans-38"/>
      </g>
     </g>
    </g>
    <g id="text_11">
     <!-- $V_{DS}$ -->
     <g transform="translate(212.9 280.276563)scale(0.1 -0.1)">
      <defs>
       <path d="M 1319 0 
L 500 4666 
L 1119 4666 
L 1797 653 
L 4063 4666 
L 4750 4666 
L 2053 0 
L 1319 0 
z
" id="DejaVuSans-Oblique-56" transform="scale(0.015625)"/>
       <path d="M 1081 4666 
L 2438 4666 
Q 3519 4666 4070 4208 
Q 4622 3750 4622 2847 
Q 4622 2250 4412 1698 
Q 4203 1147 3834 769 
Q 3463 381 2891 190 
Q 2319 0 1538 0 
L 172 0 
L 1081 4666 
z
M 1613 4147 
L 909 519 
L 1734 519 
Q 2794 519 3375 1128 
Q 3956 1738 3956 2847 
Q 3956 3519 3581 3833 
Q 3206 4147 2406 4147 
L 1613 4147 
z
" id="DejaVuSans-Oblique-44" transform="scale(0.015625)"/>
       <path d="M 3859 4513 
L 3738 3897 
Q 3422 4066 3111 4152 
Q 2800 4238 2509 4238 
Q 1944 4238 1609 3991 
Q 1275 3744 1275 3334 
Q 1275 3109 1398 2989 
Q 1522 2869 2034 2731 
L 2413 2638 
Q 3053 2472 3303 2217 
Q 3553 1963 3553 1503 
Q 3553 797 2998 353 
Q 2444 -91 1538 -91 
Q 1166 -91 791 -17 
Q 416 56 38 206 
L 166 856 
Q 513 641 861 531 
Q 1209 422 1556 422 
Q 2147 422 2503 684 
Q 2859 947 2859 1369 
Q 2859 1650 2717 1795 
Q 2575 1941 2106 2059 
L 1728 2156 
Q 1081 2325 845 2545 
Q 609 2766 609 3163 
Q 609 3859 1145 4304 
Q 1681 4750 2541 4750 
Q 2875 4750 3203 4690 
Q 3531 4631 3859 4513 
z
" id="DejaVuSans-Oblique-53" transform="scale(0.015625)"/>
      </defs>
      <use transform="translate(0 0.09375)" xlink:href="#DejaVuSans-Oblique-56"/>
      <use transform="translate(68.408203 -16.3125)scale(0.7)" xlink:href="#DejaVuSans-Oblique-44"/>
      <use transform="translate(122.30957 -16.3125)scale(0.7)" xlink:href="#DejaVuSans-Oblique-53"/>
     </g>
    </g>
   </g>
   <g id="matplotlib.axis_2">
    <g id="ytick_1">
     <g id="line2d_21">
      <path clip-path="url(#p1c02164e4a)" d="M 54 252 
L 388.8 252 
" style="fill:none;stroke:#b0b0b0;stroke-linecap:square;stroke-width:0.8;"/>
     </g>
     <g id="line2d_22">
      <defs>
       <path d="M 0 0 
L -3.5 0 
" id="md130e65977" style="stroke:#000000;stroke-width:0.8;"/>
      </defs>
      <g>
       <use style="stroke:#000000;stroke-width:0.8;" x="54" xlink:href="#md130e65977" y="252"/>
      </g>
     </g>
     <g id="text_12">
      <!-- 0.00000 -->
      <g transform="translate(5.646875 255.799219)scale(0.1 -0.1)">
       <use xlink:href="#DejaVuSans-30"/>
       <use x="63.623047" xlink:href="#DejaVuSans-2e"/>
       <use x="95.410156" xlink:href="#DejaVuSans-30"/>
       <use x="159.033203" xlink:href="#DejaVuSans-30"/>
       <use x="222.65625" xlink:href="#DejaVuSans-30"/>
       <use x="286.279297" xlink:href="#DejaVuSans-30"/>
       <use x="349.902344" xlink:href="#DejaVuSans-30"/>
      </g>
     </g>
    </g>
    <g id="ytick_2">
     <g id="line2d_23">
      <path clip-path="url(#p1c02164e4a)" d="M 54 224.82 
L 388.8 224.82 
" style="fill:none;stroke:#b0b0b0;stroke-linecap:square;stroke-width:0.8;"/>
     </g>
     <g id="line2d_24">
      <g>
       <use style="stroke:#000000;stroke-width:0.8;" x="54" xlink:href="#md130e65977" y="224.82"/>
      </g>
     </g>
     <g id="text_13">
      <!-- 0.00025 -->
      <g transform="translate(5.646875 228.619219)scale(0.1 -0.1)">
       <defs>
        <path d="M 691 4666 
L 3169 4666 
L 3169 4134 
L 1269 4134 
L 1269 2991 
Q 1406 3038 1543 3061 
Q 1681 3084 1819 3084 
Q 2600 3084 3056 2656 
Q 3513 2228 3513 1497 
Q 3513 744 3044 326 
Q 2575 -91 1722 -91 
Q 1428 -91 1123 -41 
Q 819 9 494 109 
L 494 744 
Q 775 591 1075 516 
Q 1375 441 1709 441 
Q 2250 441 2565 725 
Q 2881 1009 2881 1497 
Q 2881 1984 2565 2268 
Q 2250 2553 1709 2553 
Q 1456 2553 1204 2497 
Q 953 2441 691 2322 
L 691 4666 
z
" id="DejaVuSans-35" transform="scale(0.015625)"/>
       </defs>
       <use xlink:href="#DejaVuSans-30"/>
       <use x="63.623047" xlink:href="#DejaVuSans-2e"/>
       <use x="95.410156" xlink:href="#DejaVuSans-30"/>
       <use x="159.033203" xlink:href="#DejaVuSans-30"/>
       <use x="222.65625" xlink:href="#DejaVuSans-30"/>
       <use x="286.279297" xlink:href="#DejaVuSans-32"/>
       <use x="349.902344" xlink:href="#DejaVuSans-35"/>
      </g>
     </g>
    </g>
    <g id="ytick_3">
     <g id="line2d_25">
      <path clip-path="url(#p1c02164e4a)" d="M 54 197.64 
L 388.8 197.64 
" style="fill:none;stroke:#b0b0b0;stroke-linecap:square;stroke-width:0.8;"/>
     </g>
     <g id="line2d_26">
      <g>
       <use style="stroke:#000000;stroke-width:0.8;" x="54" xlink:href="#md130e65977" y="197.64"/>
      </g>
     </g>
     <g id="text_14">
      <!-- 0.00050 -->
      <g transform="translate(5.646875 201.439219)scale(0.1 -0.1)">
       <use xlink:href="#DejaVuSans-30"/>
       <use x="63.623047" xlink:href="#DejaVuSans-2e"/>
       <use x="95.410156" xlink:href="#DejaVuSans-30"/>
       <use x="159.033203" xlink:href="#DejaVuSans-30"/>
       <use x="222.65625" xlink:href="#DejaVuSans-30"/>
       <use x="286.279297" xlink:href="#DejaVuSans-35"/>
       <use x="349.902344" xlink:href="#DejaVuSans-30"/>
      </g>
     </g>
    </g>
    <g id="ytick_4">
     <g id="line2d_27">
      <path clip-path="url(#p1c02164e4a)" d="M 54 170.46 
L 388.8 170.46 
" style="fill:none;stroke:#b0b0b0;stroke-linecap:square;stroke-width:0.8;"/>
     </g>
     <g id="line2d_28">
      <g>
       <use style="stroke:#000000;stroke-width:0.8;" x="54" xlink:href="#md130e65977" y="170.46"/>
      </g>
     </g>
     <g id="text_15">
      <!-- 0.00075 -->
      <g transform="translate(5.646875 174.259219)scale(0.1 -0.1)">
       <defs>
        <path d="M 525 4666 
L 3525 4666 
L 3525 4397 
L 1831 0 
L 1172 0 
L 2766 4134 
L 525 4134 
L 525 4666 
z
" id="DejaVuSans-37" transform="scale(0.015625)"/>
       </defs>
       <use xlink:href="#DejaVuSans-30"/>
       <use x="63.623047" xlink:href="#DejaVuSans-2e"/>
       <use x="95.410156" xlink:href="#DejaVuSans-30"/>
       <use x="159.033203" xlink:href="#DejaVuSans-30"/>
       <use x="222.65625" xlink:href="#DejaVuSans-30"/>
       <use x="286.279297" xlink:href="#DejaVuSans-37"/>
       <use x="349.902344" xlink:href="#DejaVuSans-35"/>
      </g>
     </g>
    </g>
    <g id="ytick_5">
     <g id="line2d_29">
      <path clip-path="url(#p1c02164e4a)" d="M 54 143.28 
L 388.8 143.28 
" style="fill:none;stroke:#b0b0b0;stroke-linecap:square;stroke-width:0.8;"/>
     </g>
     <g id="line2d_30">
      <g>
       <use style="stroke:#000000;stroke-width:0.8;" x="54" xlink:href="#md130e65977" y="143.28"/>
      </g>
     </g>
     <g id="text_16">
      <!-- 0.00100 -->
      <g transform="translate(5.646875 147.079219)scale(0.1 -0.1)">
       <use xlink:href="#DejaVuSans-30"/>
       <use x="63.623047" xlink:href="#DejaVuSans-2e"/>
       <use x="95.410156" xlink:href="#DejaVuSans-30"/>
       <use x="159.033203" xlink:href="#DejaVuSans-30"/>
       <use x="222.65625" xlink:href="#DejaVuSans-31"/>
       <use x="286.279297" xlink:href="#DejaVuSans-30"/>
       <use x="349.902344" xlink:href="#DejaVuSans-30"/>
      </g>
     </g>
    </g>
    <g id="ytick_6">
     <g id="line2d_31">
      <path clip-path="url(#p1c02164e4a)" d="M 54 116.1 
L 388.8 116.1 
" style="fill:none;stroke:#b0b0b0;stroke-linecap:square;stroke-width:0.8;"/>
     </g>
     <g id="line2d_32">
      <g>
       <use style="stroke:#000000;stroke-width:0.8;" x="54" xlink:href="#md130e65977" y="116.1"/>
      </g>
     </g>
     <g id="text_17">
      <!-- 0.00125 -->
      <g transform="translate(5.646875 119.899219)scale(0.1 -0.1)">
       <use xlink:href="#DejaVuSans-30"/>
       <use x="63.623047" xlink:href="#DejaVuSans-2e"/>
       <use x="95.410156" xlink:href="#DejaVuSans-30"/>
       <use x="159.033203" xlink:href="#DejaVuSans-30"/>
       <use x="222.65625" xlink:href="#DejaVuSans-31"/>
       <use x="286.279297" xlink:href="#DejaVuSans-32"/>
       <use x="349.902344" xlink:href="#DejaVuSans-35"/>
      </g>
     </g>
    </g>
    <g id="ytick_7">
     <g id="line2d_33">
      <path clip-path="url(#p1c02164e4a)" d="M 54 88.92 
L 388.8 88.92 
" style="fill:none;stroke:#b0b0b0;stroke-linecap:square;stroke-width:0.8;"/>
     </g>
     <g id="line2d_34">
      <g>
       <use style="stroke:#000000;stroke-width:0.8;" x="54" xlink:href="#md130e65977" y="88.92"/>
      </g>
     </g>
     <g id="text_18">
      <!-- 0.00150 -->
      <g transform="translate(5.646875 92.719219)scale(0.1 -0.1)">
       <use xlink:href="#DejaVuSans-30"/>
       <use x="63.623047" xlink:href="#DejaVuSans-2e"/>
       <use x="95.410156" xlink:href="#DejaVuSans-30"/>
       <use x="159.033203" xlink:href="#DejaVuSans-30"/>
       <use x="222.65625" xlink:href="#DejaVuSans-31"/>
       <use x="286.279297" xlink:href="#DejaVuSans-35"/>
       <use x="349.902344" xlink:href="#DejaVuSans-30"/>
      </g>
     </g>
    </g>
    <g id="ytick_8">
     <g id="line2d_35">
      <path clip-path="url(#p1c02164e4a)" d="M 54 61.74 
L 388.8 61.74 
" style="fill:none;stroke:#b0b0b0;stroke-linecap:square;stroke-width:0.8;"/>
     </g>
     <g id="line2d_36">
      <g>
       <use style="stroke:#000000;stroke-width:0.8;" x="54" xlink:href="#md130e65977" y="61.74"/>
      </g>
     </g>
     <g id="text_19">
      <!-- 0.00175 -->
      <g transform="translate(5.646875 65.539219)scale(0.1 -0.1)">
       <use xlink:href="#DejaVuSans-30"/>
       <use x="63.623047" xlink:href="#DejaVuSans-2e"/>
       <use x="95.410156" xlink:href="#DejaVuSans-30"/>
       <use x="159.033203" xlink:href="#DejaVuSans-30"/>
       <use x="222.65625" xlink:href="#DejaVuSans-31"/>
       <use x="286.279297" xlink:href="#DejaVuSans-37"/>
       <use x="349.902344" xlink:href="#DejaVuSans-35"/>
      </g>
     </g>
    </g>
    <g id="ytick_9">
     <g id="line2d_37">
      <path clip-path="url(#p1c02164e4a)" d="M 54 34.56 
L 388.8 34.56 
" style="fill:none;stroke:#b0b0b0;stroke-linecap:square;stroke-width:0.8;"/>
     </g>
     <g id="line2d_38">
      <g>
       <use style="stroke:#000000;stroke-width:0.8;" x="54" xlink:href="#md130e65977" y="34.56"/>
      </g>
     </g>
     <g id="text_20">
      <!-- 0.00200 -->
      <g transform="translate(5.646875 38.359219)scale(0.1 -0.1)">
       <use xlink:href="#DejaVuSans-30"/>
       <use x="63.623047" xlink:href="#DejaVuSans-2e"/>
       <use x="95.410156" xlink:href="#DejaVuSans-30"/>
       <use x="159.033203" xlink:href="#DejaVuSans-30"/>
       <use x="222.65625" xlink:href="#DejaVuSans-32"/>
       <use x="286.279297" xlink:href="#DejaVuSans-30"/>
       <use x="349.902344" xlink:href="#DejaVuSans-30"/>
      </g>
     </g>
    </g>
    <g id="text_21">
     <!-- $I_D$ -->
     <g transform="translate(-0.432813 147.63)rotate(-90)scale(0.1 -0.1)">
      <defs>
       <path d="M 1081 4666 
L 1716 4666 
L 806 0 
L 172 0 
L 1081 4666 
z
" id="DejaVuSans-Oblique-49" transform="scale(0.015625)"/>
      </defs>
      <use transform="translate(0 0.09375)" xlink:href="#DejaVuSans-Oblique-49"/>
      <use transform="translate(29.492188 -16.3125)scale(0.7)" xlink:href="#DejaVuSans-Oblique-44"/>
     </g>
    </g>
   </g>
   <g id="line2d_39">
    <path clip-path="url(#p1c02164e4a)" d="M 54 252 
L 57.72 250.417649 
L 61.44 249.05008 
L 65.16 247.887378 
L 68.88 246.919178 
L 72.6 246.133608 
L 76.32 245.515287 
L 80.04 245.042612 
L 83.759999 244.686599 
L 87.480001 244.41456 
L 91.200001 244.197271 
L 94.92 244.013515 
L 98.639999 243.849875 
L 102.359998 243.69838 
L 106.08 243.55435 
L 109.800002 243.414989 
L 113.519999 243.278578 
L 117.240001 243.144021 
L 120.960003 243.0106 
L 124.679999 242.877825 
L 128.400001 242.745359 
L 132.119998 242.61296 
L 135.84 242.480451 
L 139.560002 242.347701 
L 143.279998 242.214611 
L 147 242.081104 
L 150.719996 241.947122 
L 154.440004 241.812619 
L 158.16 241.677557 
L 161.879997 241.541908 
L 165.600004 241.405647 
L 169.320001 241.268755 
L 173.039997 241.131217 
L 176.760005 240.993021 
L 180.480001 240.854155 
L 184.199998 240.71461 
L 187.920005 240.574381 
L 191.640002 240.433461 
L 195.359998 240.291844 
L 199.079995 240.149529 
L 202.800002 240.006511 
L 206.519999 239.862788 
L 210.239995 239.718358 
L 213.960003 239.573221 
L 217.679999 239.427374 
L 221.399996 239.280819 
L 225.120003 239.133553 
L 228.84 238.985577 
L 232.559996 238.836891 
L 236.280004 238.687495 
L 240 238.53739 
L 243.719996 238.386578 
L 247.439993 238.235059 
L 251.159989 238.082831 
L 254.880008 237.929898 
L 258.600004 237.776262 
L 262.320001 237.621922 
L 266.039997 237.466881 
L 269.759994 237.311139 
L 273.47999 237.154698 
L 277.200009 236.997559 
L 280.920005 236.839724 
L 284.640002 236.681194 
L 288.359998 236.521972 
L 292.079995 236.362058 
L 295.799991 236.201454 
L 299.52001 236.040162 
L 303.240006 235.878184 
L 306.960003 235.715522 
L 310.679999 235.552175 
L 314.399996 235.388149 
L 318.119992 235.223443 
L 321.840011 235.05806 
L 325.560007 234.891999 
L 329.280004 234.725267 
L 333 234.55786 
L 336.719996 234.389784 
L 340.439993 234.221041 
L 344.159989 234.051629 
L 347.880008 233.881552 
L 351.600004 233.710814 
L 355.320001 233.539414 
L 359.039997 233.367353 
L 362.759994 233.194637 
L 366.47999 233.021262 
L 370.200009 232.847236 
L 373.920005 232.672557 
L 377.640002 232.497227 
L 381.359998 232.321249 
L 385.079995 232.144625 
L 388.799991 231.967354 
" style="fill:none;stroke:#0000ff;stroke-linecap:square;stroke-width:1.5;"/>
   </g>
   <g id="line2d_40">
    <path clip-path="url(#p1c02164e4a)" d="M 54 252 
L 61.44 249.925336 
L 68.88 248.065618 
L 76.32 246.42872 
L 83.76 245.022517 
L 91.2 243.854886 
L 98.64 242.933699 
L 106.08 242.266834 
L 113.52 241.862164 
L 120.96 241.709177 
L 386.94 238.210524 
L 386.94 238.210524 
" style="fill:none;stroke:#0000ff;stroke-dasharray:5.55,2.4;stroke-dashoffset:0;stroke-width:1.5;"/>
   </g>
   <g id="line2d_41">
    <path clip-path="url(#p1c02164e4a)" d="M 54 252 
L 57.72 248.35049 
L 61.44 244.946629 
L 65.16 241.779917 
L 68.88 238.842387 
L 72.6 236.126596 
L 76.32 233.625634 
L 80.04 231.333125 
L 83.759999 229.243229 
L 87.480001 227.350628 
L 91.200001 225.650435 
L 94.92 224.137969 
L 98.639999 222.808236 
L 102.359998 221.654944 
L 106.08 220.668989 
L 109.800002 219.836797 
L 113.519999 219.139563 
L 117.240001 218.554515 
L 120.960003 218.057921 
L 124.679999 217.62823 
L 128.400001 217.247856 
L 132.119998 216.903449 
L 135.84 216.585285 
L 139.560002 216.286417 
L 143.279998 216.001888 
L 147 215.728166 
L 150.719996 215.462676 
L 154.440004 215.203547 
L 158.16 214.949372 
L 161.879997 214.699102 
L 165.600004 214.451927 
L 169.320001 214.20722 
L 173.039997 213.964487 
L 176.760005 213.723345 
L 180.480001 213.483476 
L 184.199998 213.244626 
L 187.920005 213.006592 
L 191.640002 212.769197 
L 195.359998 212.532302 
L 199.079995 212.295787 
L 202.800002 212.05955 
L 206.519999 211.823506 
L 210.239995 211.587585 
L 213.960003 211.351722 
L 217.679999 211.115862 
L 221.399996 210.87996 
L 225.120003 210.643974 
L 228.84 210.40787 
L 232.559996 210.171617 
L 236.280004 209.935184 
L 240 209.698548 
L 243.719996 209.461691 
L 247.439993 209.224591 
L 251.159989 208.987231 
L 254.880008 208.749595 
L 258.600004 208.511669 
L 262.320001 208.273445 
L 266.039997 208.034905 
L 269.759994 207.796045 
L 273.47999 207.556853 
L 277.200009 207.317319 
L 280.920005 207.07744 
L 284.640002 206.837207 
L 288.359998 206.596613 
L 292.079995 206.355655 
L 295.799991 206.114324 
L 299.52001 205.872616 
L 303.240006 205.630532 
L 306.960003 205.388062 
L 310.679999 205.145202 
L 314.399996 204.901957 
L 318.119992 204.658313 
L 321.840011 204.414276 
L 325.560007 204.169838 
L 329.280004 203.924998 
L 333 203.679753 
L 336.719996 203.434106 
L 340.439993 203.188047 
L 344.159989 202.941581 
L 347.880008 202.694703 
L 351.600004 202.447413 
L 355.320001 202.19971 
L 359.039997 201.951591 
L 362.759994 201.703055 
L 366.47999 201.454105 
L 370.200009 201.204734 
L 373.920005 200.954945 
L 377.640002 200.704735 
L 381.359998 200.454104 
L 385.079995 200.203053 
L 388.799991 199.951581 
" style="fill:none;stroke:#008000;stroke-linecap:square;stroke-width:1.5;"/>
   </g>
   <g id="line2d_42">
    <path clip-path="url(#p1c02164e4a)" d="M 54 252 
L 63.3 247.042895 
L 72.6 242.363196 
L 81.9 237.976282 
L 89.34 234.687893 
L 96.78 231.604606 
L 104.22 228.734295 
L 111.66 226.084836 
L 119.1 223.664105 
L 126.54 221.479974 
L 133.98 219.540321 
L 141.42 217.85302 
L 148.86 216.425945 
L 152.58 215.812454 
L 160.02 215.448672 
L 386.94 205.351057 
L 386.94 205.351057 
" style="fill:none;stroke:#008000;stroke-dasharray:5.55,2.4;stroke-dashoffset:0;stroke-width:1.5;"/>
   </g>
   <g id="line2d_43">
    <path clip-path="url(#p1c02164e4a)" d="M 54 252 
L 57.72 247.088785 
L 61.44 242.405843 
L 65.16 237.944663 
L 68.88 233.699041 
L 72.6 229.663092 
L 76.32 225.831235 
L 80.04 222.198204 
L 83.759999 218.75905 
L 87.480001 215.509158 
L 91.200001 212.444265 
L 94.92 209.560483 
L 98.639999 206.854341 
L 102.359998 204.322813 
L 106.08 201.963378 
L 109.800002 199.774036 
L 113.519999 197.753319 
L 117.240001 195.900205 
L 120.960003 194.213867 
L 124.679999 192.693155 
L 128.400001 191.335677 
L 132.119998 190.136583 
L 135.84 189.087313 
L 139.560002 188.174938 
L 143.279998 187.382751 
L 147 186.691962 
L 150.719996 186.083872 
L 154.440004 185.541572 
L 158.16 185.050803 
L 161.879997 184.600149 
L 165.600004 184.180701 
L 169.320001 183.785629 
L 173.039997 183.409726 
L 176.760005 183.049023 
L 180.480001 182.700471 
L 184.199998 182.361728 
L 187.920005 182.030952 
L 191.640002 181.706713 
L 195.359998 181.387873 
L 199.079995 181.073513 
L 202.800002 180.762905 
L 206.519999 180.455437 
L 210.239995 180.150626 
L 213.960003 179.848062 
L 217.679999 179.547402 
L 221.399996 179.248363 
L 225.120003 178.950697 
L 228.84 178.654215 
L 232.559996 178.358726 
L 236.280004 178.064085 
L 240 177.770165 
L 243.719996 177.476847 
L 247.439993 177.184034 
L 251.159989 176.891646 
L 254.880008 176.5996 
L 258.600004 176.307832 
L 262.320001 176.016279 
L 266.039997 175.724897 
L 269.759994 175.433635 
L 273.47999 175.142443 
L 277.200009 174.851296 
L 280.920005 174.560154 
L 284.640002 174.268981 
L 288.359998 173.977764 
L 292.079995 173.686464 
L 295.799991 173.395063 
L 299.52001 173.103535 
L 303.240006 172.811875 
L 306.960003 172.520056 
L 310.679999 172.228061 
L 314.399996 171.935875 
L 318.119992 171.643493 
L 321.840011 171.350896 
L 325.560007 171.058071 
L 329.280004 170.765012 
L 333 170.471707 
L 336.719996 170.178148 
L 340.439993 169.884329 
L 344.159989 169.590239 
L 347.880008 169.295864 
L 351.600004 169.00121 
L 355.320001 168.706265 
L 359.039997 168.411017 
L 362.759994 168.115471 
L 366.47999 167.819621 
L 370.200009 167.523455 
L 373.920005 167.226966 
L 377.640002 166.930161 
L 381.359998 166.633032 
L 385.079995 166.335569 
L 388.799991 166.037776 
" style="fill:none;stroke:#ff0000;stroke-linecap:square;stroke-width:1.5;"/>
   </g>
   <g id="line2d_44">
    <path clip-path="url(#p1c02164e4a)" d="M 54 252 
L 65.16 243.200424 
L 76.32 234.716148 
L 85.62 227.905945 
L 94.92 221.348538 
L 104.22 215.059308 
L 113.52 209.053635 
L 122.82 203.3469 
L 132.12 197.954485 
L 139.56 193.877198 
L 147 190.018794 
L 152.58 187.273371 
L 154.44 187.006848 
L 386.94 168.484598 
L 386.94 168.484598 
" style="fill:none;stroke:#ff0000;stroke-dasharray:5.55,2.4;stroke-dashoffset:0;stroke-width:1.5;"/>
   </g>
   <g id="line2d_45">
    <path clip-path="url(#p1c02164e4a)" d="M 54 252 
L 57.72 246.324931 
L 61.44 240.852203 
L 65.16 235.577004 
L 68.88 230.494702 
L 72.6 225.600849 
L 76.32 220.891171 
L 80.04 216.361566 
L 83.759999 212.00811 
L 87.480001 207.82706 
L 91.200001 203.81485 
L 94.92 199.968107 
L 98.639999 196.283651 
L 102.359998 192.758515 
L 106.08 189.389947 
L 109.800002 186.175468 
L 113.519999 183.112851 
L 117.240001 180.200196 
L 120.960003 177.435947 
L 124.679999 174.818945 
L 128.400001 172.348489 
L 132.119998 170.024376 
L 135.84 167.84689 
L 139.560002 165.81681 
L 143.279998 163.935231 
L 147 162.203247 
L 150.719996 160.621385 
L 154.440004 159.18875 
L 158.16 157.90201 
L 161.879997 156.754562 
L 165.600004 155.736187 
L 169.320001 154.833564 
L 173.039997 154.031466 
L 176.760005 153.314307 
L 180.480001 152.667387 
L 184.199998 152.077706 
L 187.920005 151.534298 
L 191.640002 151.028176 
L 195.359998 150.552127 
L 199.079995 150.100417 
L 202.800002 149.668489 
L 206.519999 149.252755 
L 210.239995 148.850349 
L 213.960003 148.458992 
L 217.679999 148.076843 
L 221.399996 147.702433 
L 225.120003 147.334541 
L 228.84 146.972193 
L 232.559996 146.61456 
L 236.280004 146.260977 
L 240 145.910862 
L 243.719996 145.563752 
L 247.439993 145.219238 
L 251.159989 144.876976 
L 254.880008 144.536663 
L 258.600004 144.198072 
L 262.320001 143.860949 
L 266.039997 143.525129 
L 269.759994 143.190449 
L 273.47999 142.856743 
L 277.200009 142.523885 
L 280.920005 142.191787 
L 284.640002 141.860334 
L 288.359998 141.529425 
L 292.079995 141.198997 
L 295.799991 140.868974 
L 299.52001 140.539306 
L 303.240006 140.209916 
L 306.960003 139.880754 
L 310.679999 139.551782 
L 314.399996 139.222961 
L 318.119992 138.894242 
L 321.840011 138.565599 
L 325.560007 138.236994 
L 329.280004 137.908401 
L 333 137.579783 
L 336.719996 137.25114 
L 340.439993 136.922421 
L 344.159989 136.593626 
L 347.880008 136.264717 
L 351.600004 135.935694 
L 355.320001 135.606545 
L 359.039997 135.277231 
L 362.759994 134.947752 
L 366.47999 134.618084 
L 370.200009 134.288238 
L 373.920005 133.958177 
L 377.640002 133.627901 
L 381.359998 133.29741 
L 385.079995 132.966679 
L 388.799991 132.635707 
" style="fill:none;stroke:#00bfbf;stroke-linecap:square;stroke-width:1.5;"/>
   </g>
   <g id="line2d_46">
    <path clip-path="url(#p1c02164e4a)" d="M 54 252 
L 67.02 238.390665 
L 80.04 225.09593 
L 91.2 213.982831 
L 102.36 203.158453 
L 113.52 192.649374 
L 124.68 182.482172 
L 133.98 174.289835 
L 143.28 166.36875 
L 152.58 158.734299 
L 154.44 158.316734 
L 386.94 131.618154 
L 386.94 131.618154 
" style="fill:none;stroke:#00bfbf;stroke-dasharray:5.55,2.4;stroke-dashoffset:0;stroke-width:1.5;"/>
   </g>
   <g id="line2d_47">
    <path clip-path="url(#p1c02164e4a)" d="M 54 252 
L 57.72 245.869282 
L 61.44 239.915277 
L 65.16 234.134442 
L 68.88 228.523343 
L 72.6 223.078652 
L 76.32 217.797149 
L 80.04 212.675708 
L 83.759999 207.711311 
L 87.480001 202.901048 
L 91.200001 198.242101 
L 94.92 193.731756 
L 98.639999 189.367412 
L 102.359998 185.146569 
L 106.08 181.066849 
L 109.800002 177.125985 
L 113.519999 173.321831 
L 117.240001 169.652383 
L 120.960003 166.11578 
L 124.679999 162.710324 
L 128.400001 159.434499 
L 132.119998 156.286986 
L 135.84 153.266705 
L 139.560002 150.372845 
L 143.279998 147.604882 
L 147 144.962662 
L 150.719996 142.446401 
L 154.440004 140.05677 
L 158.16 137.794884 
L 161.879997 135.662323 
L 165.600004 133.661024 
L 169.320001 131.793051 
L 173.039997 130.060327 
L 176.760005 128.463966 
L 180.480001 127.003652 
L 184.199998 125.676802 
L 187.920005 124.478038 
L 191.640002 123.398993 
L 195.359998 122.428821 
L 199.079995 121.555017 
L 202.800002 120.764532 
L 206.519999 120.044747 
L 210.239995 119.384144 
L 213.960003 118.772662 
L 217.679999 118.201745 
L 221.399996 117.664317 
L 225.120003 117.154544 
L 228.84 116.667693 
L 232.559996 116.199915 
L 236.280004 115.748084 
L 240 115.309644 
L 243.719996 114.88252 
L 247.439993 114.465014 
L 251.159989 114.055684 
L 254.880008 113.653379 
L 258.600004 113.257137 
L 262.320001 112.866109 
L 266.039997 112.479612 
L 269.759994 112.097064 
L 273.47999 111.717971 
L 277.200009 111.341904 
L 280.920005 110.968481 
L 284.640002 110.5974 
L 288.359998 110.22837 
L 292.079995 109.861149 
L 295.799991 109.495535 
L 299.52001 109.13134 
L 303.240006 108.768397 
L 306.960003 108.406568 
L 310.679999 108.045701 
L 314.399996 107.685707 
L 318.119992 107.326473 
L 321.840011 106.967909 
L 325.560007 106.60994 
L 329.280004 106.252465 
L 333 105.895446 
L 336.719996 105.538793 
L 340.439993 105.182483 
L 344.159989 104.826438 
L 347.880008 104.470621 
L 351.600004 104.114994 
L 355.320001 103.759518 
L 359.039997 103.404157 
L 362.759994 103.048871 
L 366.47999 102.693636 
L 370.200009 102.338427 
L 373.920005 101.983217 
L 377.640002 101.62797 
L 381.359998 101.272684 
L 385.079995 100.917323 
L 388.799991 100.561873 
" style="fill:none;stroke:#bf00bf;stroke-linecap:square;stroke-width:1.5;"/>
   </g>
   <g id="line2d_48">
    <path clip-path="url(#p1c02164e4a)" d="M 54 252 
L 72.6 227.79631 
L 89.34 206.379578 
L 104.22 187.709345 
L 117.24 171.707809 
L 130.26 156.063078 
L 141.42 142.969288 
L 152.58 130.195228 
L 154.44 129.62662 
L 386.94 94.751709 
L 386.94 94.751709 
" style="fill:none;stroke:#bf00bf;stroke-dasharray:5.55,2.4;stroke-dashoffset:0;stroke-width:1.5;"/>
   </g>
   <g id="patch_3">
    <path d="M 54 252 
L 54 34.56 
" style="fill:none;stroke:#000000;stroke-linecap:square;stroke-linejoin:miter;stroke-width:0.8;"/>
   </g>
   <g id="patch_4">
    <path d="M 388.8 252 
L 388.8 34.56 
" style="fill:none;stroke:#000000;stroke-linecap:square;stroke-linejoin:miter;stroke-width:0.8;"/>
   </g>
   <g id="patch_5">
    <path d="M 54 252 
L 388.8 252 
" style="fill:none;stroke:#000000;stroke-linecap:square;stroke-linejoin:miter;stroke-width:0.8;"/>
   </g>
   <g id="patch_6">
    <path d="M 54 34.56 
L 388.8 34.56 
" style="fill:none;stroke:#000000;stroke-linecap:square;stroke-linejoin:miter;stroke-width:0.8;"/>
   </g>
   <g id="text_22">
    <!-- $V_{GS} = 0.6 V$ -->
    <g transform="translate(295.799991 225.329454)scale(0.1 -0.1)">
     <defs>
      <path d="M 3494 697 
L 3738 1919 
L 2700 1919 
L 2797 2438 
L 4453 2438 
L 4050 384 
Q 3634 156 3143 32 
Q 2653 -91 2156 -91 
Q 1278 -91 783 396 
Q 288 884 288 1753 
Q 288 2475 589 3126 
Q 891 3778 1422 4213 
Q 1756 4484 2153 4617 
Q 2550 4750 3034 4750 
Q 3472 4750 3873 4639 
Q 4275 4528 4641 4306 
L 4513 3634 
Q 4231 3928 3853 4083 
Q 3475 4238 3047 4238 
Q 2550 4238 2172 4048 
Q 1794 3859 1497 3463 
Q 1244 3125 1098 2667 
Q 953 2209 953 1734 
Q 953 1081 1287 751 
Q 1622 422 2284 422 
Q 2616 422 2925 492 
Q 3234 563 3494 697 
z
" id="DejaVuSans-Oblique-47" transform="scale(0.015625)"/>
      <path d="M 678 2906 
L 4684 2906 
L 4684 2381 
L 678 2381 
L 678 2906 
z
M 678 1631 
L 4684 1631 
L 4684 1100 
L 678 1100 
L 678 1631 
z
" id="DejaVuSans-3d" transform="scale(0.015625)"/>
     </defs>
     <use transform="translate(0 0.78125)" xlink:href="#DejaVuSans-Oblique-56"/>
     <use transform="translate(68.408203 -15.625)scale(0.7)" xlink:href="#DejaVuSans-Oblique-47"/>
     <use transform="translate(122.651367 -15.625)scale(0.7)" xlink:href="#DejaVuSans-Oblique-53"/>
     <use transform="translate(189.301758 0.78125)" xlink:href="#DejaVuSans-3d"/>
     <use transform="translate(292.573242 0.78125)" xlink:href="#DejaVuSans-30"/>
     <use transform="translate(356.196289 0.78125)" xlink:href="#DejaVuSans-2e"/>
     <use transform="translate(387.983398 0.78125)" xlink:href="#DejaVuSans-36"/>
     <use transform="translate(451.606445 0.78125)" xlink:href="#DejaVuSans-Oblique-56"/>
    </g>
   </g>
   <g id="text_23">
    <!-- $V_{GS} = 0.9 V$ -->
    <g transform="translate(295.799991 195.242324)scale(0.1 -0.1)">
     <defs>
      <path d="M 703 97 
L 703 672 
Q 941 559 1184 500 
Q 1428 441 1663 441 
Q 2288 441 2617 861 
Q 2947 1281 2994 2138 
Q 2813 1869 2534 1725 
Q 2256 1581 1919 1581 
Q 1219 1581 811 2004 
Q 403 2428 403 3163 
Q 403 3881 828 4315 
Q 1253 4750 1959 4750 
Q 2769 4750 3195 4129 
Q 3622 3509 3622 2328 
Q 3622 1225 3098 567 
Q 2575 -91 1691 -91 
Q 1453 -91 1209 -44 
Q 966 3 703 97 
z
M 1959 2075 
Q 2384 2075 2632 2365 
Q 2881 2656 2881 3163 
Q 2881 3666 2632 3958 
Q 2384 4250 1959 4250 
Q 1534 4250 1286 3958 
Q 1038 3666 1038 3163 
Q 1038 2656 1286 2365 
Q 1534 2075 1959 2075 
z
" id="DejaVuSans-39" transform="scale(0.015625)"/>
     </defs>
     <use transform="translate(0 0.78125)" xlink:href="#DejaVuSans-Oblique-56"/>
     <use transform="translate(68.408203 -15.625)scale(0.7)" xlink:href="#DejaVuSans-Oblique-47"/>
     <use transform="translate(122.651367 -15.625)scale(0.7)" xlink:href="#DejaVuSans-Oblique-53"/>
     <use transform="translate(189.301758 0.78125)" xlink:href="#DejaVuSans-3d"/>
     <use transform="translate(292.573242 0.78125)" xlink:href="#DejaVuSans-30"/>
     <use transform="translate(356.196289 0.78125)" xlink:href="#DejaVuSans-2e"/>
     <use transform="translate(387.983398 0.78125)" xlink:href="#DejaVuSans-39"/>
     <use transform="translate(451.606445 0.78125)" xlink:href="#DejaVuSans-Oblique-56"/>
    </g>
   </g>
   <g id="text_24">
    <!-- $V_{GS} = 1.2 V$ -->
    <g transform="translate(295.799991 162.523063)scale(0.1 -0.1)">
     <use transform="translate(0 0.78125)" xlink:href="#DejaVuSans-Oblique-56"/>
     <use transform="translate(68.408203 -15.625)scale(0.7)" xlink:href="#DejaVuSans-Oblique-47"/>
     <use transform="translate(122.651367 -15.625)scale(0.7)" xlink:href="#DejaVuSans-Oblique-53"/>
     <use transform="translate(189.301758 0.78125)" xlink:href="#DejaVuSans-3d"/>
     <use transform="translate(292.573242 0.78125)" xlink:href="#DejaVuSans-31"/>
     <use transform="translate(356.196289 0.78125)" xlink:href="#DejaVuSans-2e"/>
     <use transform="translate(382.483398 0.78125)" xlink:href="#DejaVuSans-32"/>
     <use transform="translate(446.106445 0.78125)" xlink:href="#DejaVuSans-Oblique-56"/>
    </g>
   </g>
   <g id="text_25">
    <!-- $V_{GS} = 1.5 V$ -->
    <g transform="translate(295.799991 129.996974)scale(0.1 -0.1)">
     <use transform="translate(0 0.09375)" xlink:href="#DejaVuSans-Oblique-56"/>
     <use transform="translate(68.408203 -16.3125)scale(0.7)" xlink:href="#DejaVuSans-Oblique-47"/>
     <use transform="translate(122.651367 -16.3125)scale(0.7)" xlink:href="#DejaVuSans-Oblique-53"/>
     <use transform="translate(189.301758 0.09375)" xlink:href="#DejaVuSans-3d"/>
     <use transform="translate(292.573242 0.09375)" xlink:href="#DejaVuSans-31"/>
     <use transform="translate(356.196289 0.09375)" xlink:href="#DejaVuSans-2e"/>
     <use transform="translate(387.983398 0.09375)" xlink:href="#DejaVuSans-35"/>
     <use transform="translate(451.606445 0.09375)" xlink:href="#DejaVuSans-Oblique-56"/>
    </g>
   </g>
   <g id="text_26">
    <!-- $V_{GS} = 1.8 V$ -->
    <g transform="translate(295.799991 98.623535)scale(0.1 -0.1)">
     <use transform="translate(0 0.78125)" xlink:href="#DejaVuSans-Oblique-56"/>
     <use transform="translate(68.408203 -15.625)scale(0.7)" xlink:href="#DejaVuSans-Oblique-47"/>
     <use transform="translate(122.651367 -15.625)scale(0.7)" xlink:href="#DejaVuSans-Oblique-53"/>
     <use transform="translate(189.301758 0.78125)" xlink:href="#DejaVuSans-3d"/>
     <use transform="translate(292.573242 0.78125)" xlink:href="#DejaVuSans-31"/>
     <use transform="translate(356.196289 0.78125)" xlink:href="#DejaVuSans-2e"/>
     <use transform="translate(385.358398 0.78125)" xlink:href="#DejaVuSans-38"/>
     <use transform="translate(448.981445 0.78125)" xlink:href="#DejaVuSans-Oblique-56"/>
    </g>
   </g>
   <g id="text_27">
    <!-- $I_D$ vs $V_{DS}$ -->
    <g transform="translate(195.54 28.56)scale(0.12 -0.12)">
     <defs>
      <path id="DejaVuSans-20" transform="scale(0.015625)"/>
      <path d="M 191 3500 
L 800 3500 
L 1894 563 
L 2988 3500 
L 3597 3500 
L 2284 0 
L 1503 0 
L 191 3500 
z
" id="DejaVuSans-76" transform="scale(0.015625)"/>
      <path d="M 2834 3397 
L 2834 2853 
Q 2591 2978 2328 3040 
Q 2066 3103 1784 3103 
Q 1356 3103 1142 2972 
Q 928 2841 928 2578 
Q 928 2378 1081 2264 
Q 1234 2150 1697 2047 
L 1894 2003 
Q 2506 1872 2764 1633 
Q 3022 1394 3022 966 
Q 3022 478 2636 193 
Q 2250 -91 1575 -91 
Q 1294 -91 989 -36 
Q 684 19 347 128 
L 347 722 
Q 666 556 975 473 
Q 1284 391 1588 391 
Q 1994 391 2212 530 
Q 2431 669 2431 922 
Q 2431 1156 2273 1281 
Q 2116 1406 1581 1522 
L 1381 1569 
Q 847 1681 609 1914 
Q 372 2147 372 2553 
Q 372 3047 722 3315 
Q 1072 3584 1716 3584 
Q 2034 3584 2315 3537 
Q 2597 3491 2834 3397 
z
" id="DejaVuSans-73" transform="scale(0.015625)"/>
     </defs>
     <use transform="translate(0 0.09375)" xlink:href="#DejaVuSans-Oblique-49"/>
     <use transform="translate(29.492188 -16.3125)scale(0.7)" xlink:href="#DejaVuSans-Oblique-44"/>
     <use transform="translate(86.12793 0.09375)" xlink:href="#DejaVuSans-20"/>
     <use transform="translate(117.915039 0.09375)" xlink:href="#DejaVuSans-76"/>
     <use transform="translate(177.094727 0.09375)" xlink:href="#DejaVuSans-73"/>
     <use transform="translate(229.194336 0.09375)" xlink:href="#DejaVuSans-20"/>
     <use transform="translate(260.981445 0.09375)" xlink:href="#DejaVuSans-Oblique-56"/>
     <use transform="translate(329.389648 -16.3125)scale(0.7)" xlink:href="#DejaVuSans-Oblique-44"/>
     <use transform="translate(383.291016 -16.3125)scale(0.7)" xlink:href="#DejaVuSans-Oblique-53"/>
    </g>
   </g>
   <g id="legend_1">
    <g id="patch_7">
     <path d="M 280.248438 71.91625 
L 381.8 71.91625 
Q 383.8 71.91625 383.8 69.91625 
L 383.8 41.56 
Q 383.8 39.56 381.8 39.56 
L 280.248438 39.56 
Q 278.248438 39.56 278.248438 41.56 
L 278.248438 69.91625 
Q 278.248438 71.91625 280.248438 71.91625 
z
" style="fill:#ffffff;opacity:0.8;stroke:#cccccc;stroke-linejoin:miter;"/>
    </g>
    <g id="line2d_49">
     <path d="M 282.248438 47.658437 
L 302.248438 47.658437 
" style="fill:none;stroke:#000000;stroke-linecap:square;stroke-width:1.5;"/>
    </g>
    <g id="line2d_50"/>
    <g id="text_28">
     <!-- BSIM-3 -->
     <g transform="translate(310.248438 51.158437)scale(0.1 -0.1)">
      <defs>
       <path d="M 1259 2228 
L 1259 519 
L 2272 519 
Q 2781 519 3026 730 
Q 3272 941 3272 1375 
Q 3272 1813 3026 2020 
Q 2781 2228 2272 2228 
L 1259 2228 
z
M 1259 4147 
L 1259 2741 
L 2194 2741 
Q 2656 2741 2882 2914 
Q 3109 3088 3109 3444 
Q 3109 3797 2882 3972 
Q 2656 4147 2194 4147 
L 1259 4147 
z
M 628 4666 
L 2241 4666 
Q 2963 4666 3353 4366 
Q 3744 4066 3744 3513 
Q 3744 3084 3544 2831 
Q 3344 2578 2956 2516 
Q 3422 2416 3680 2098 
Q 3938 1781 3938 1306 
Q 3938 681 3513 340 
Q 3088 0 2303 0 
L 628 0 
L 628 4666 
z
" id="DejaVuSans-42" transform="scale(0.015625)"/>
       <path d="M 3425 4513 
L 3425 3897 
Q 3066 4069 2747 4153 
Q 2428 4238 2131 4238 
Q 1616 4238 1336 4038 
Q 1056 3838 1056 3469 
Q 1056 3159 1242 3001 
Q 1428 2844 1947 2747 
L 2328 2669 
Q 3034 2534 3370 2195 
Q 3706 1856 3706 1288 
Q 3706 609 3251 259 
Q 2797 -91 1919 -91 
Q 1588 -91 1214 -16 
Q 841 59 441 206 
L 441 856 
Q 825 641 1194 531 
Q 1563 422 1919 422 
Q 2459 422 2753 634 
Q 3047 847 3047 1241 
Q 3047 1584 2836 1778 
Q 2625 1972 2144 2069 
L 1759 2144 
Q 1053 2284 737 2584 
Q 422 2884 422 3419 
Q 422 4038 858 4394 
Q 1294 4750 2059 4750 
Q 2388 4750 2728 4690 
Q 3069 4631 3425 4513 
z
" id="DejaVuSans-53" transform="scale(0.015625)"/>
       <path d="M 628 4666 
L 1259 4666 
L 1259 0 
L 628 0 
L 628 4666 
z
" id="DejaVuSans-49" transform="scale(0.015625)"/>
       <path d="M 628 4666 
L 1569 4666 
L 2759 1491 
L 3956 4666 
L 4897 4666 
L 4897 0 
L 4281 0 
L 4281 4097 
L 3078 897 
L 2444 897 
L 1241 4097 
L 1241 0 
L 628 0 
L 628 4666 
z
" id="DejaVuSans-4d" transform="scale(0.015625)"/>
       <path d="M 313 2009 
L 1997 2009 
L 1997 1497 
L 313 1497 
L 313 2009 
z
" id="DejaVuSans-2d" transform="scale(0.015625)"/>
       <path d="M 2597 2516 
Q 3050 2419 3304 2112 
Q 3559 1806 3559 1356 
Q 3559 666 3084 287 
Q 2609 -91 1734 -91 
Q 1441 -91 1130 -33 
Q 819 25 488 141 
L 488 750 
Q 750 597 1062 519 
Q 1375 441 1716 441 
Q 2309 441 2620 675 
Q 2931 909 2931 1356 
Q 2931 1769 2642 2001 
Q 2353 2234 1838 2234 
L 1294 2234 
L 1294 2753 
L 1863 2753 
Q 2328 2753 2575 2939 
Q 2822 3125 2822 3475 
Q 2822 3834 2567 4026 
Q 2313 4219 1838 4219 
Q 1578 4219 1281 4162 
Q 984 4106 628 3988 
L 628 4550 
Q 988 4650 1302 4700 
Q 1616 4750 1894 4750 
Q 2613 4750 3031 4423 
Q 3450 4097 3450 3541 
Q 3450 3153 3228 2886 
Q 3006 2619 2597 2516 
z
" id="DejaVuSans-33" transform="scale(0.015625)"/>
      </defs>
      <use xlink:href="#DejaVuSans-42"/>
      <use x="66.853516" xlink:href="#DejaVuSans-53"/>
      <use x="130.330078" xlink:href="#DejaVuSans-49"/>
      <use x="159.822266" xlink:href="#DejaVuSans-4d"/>
      <use x="246.101562" xlink:href="#DejaVuSans-2d"/>
      <use x="282.185547" xlink:href="#DejaVuSans-33"/>
     </g>
    </g>
    <g id="line2d_51">
     <path d="M 282.248438 62.336562 
L 302.248438 62.336562 
" style="fill:none;stroke:#000000;stroke-dasharray:5.55,2.4;stroke-dashoffset:0;stroke-width:1.5;"/>
    </g>
    <g id="line2d_52"/>
    <g id="text_29">
     <!-- Unified model -->
     <g transform="translate(310.248438 65.836562)scale(0.1 -0.1)">
      <defs>
       <path d="M 556 4666 
L 1191 4666 
L 1191 1831 
Q 1191 1081 1462 751 
Q 1734 422 2344 422 
Q 2950 422 3222 751 
Q 3494 1081 3494 1831 
L 3494 4666 
L 4128 4666 
L 4128 1753 
Q 4128 841 3676 375 
Q 3225 -91 2344 -91 
Q 1459 -91 1007 375 
Q 556 841 556 1753 
L 556 4666 
z
" id="DejaVuSans-55" transform="scale(0.015625)"/>
       <path d="M 3513 2113 
L 3513 0 
L 2938 0 
L 2938 2094 
Q 2938 2591 2744 2837 
Q 2550 3084 2163 3084 
Q 1697 3084 1428 2787 
Q 1159 2491 1159 1978 
L 1159 0 
L 581 0 
L 581 3500 
L 1159 3500 
L 1159 2956 
Q 1366 3272 1645 3428 
Q 1925 3584 2291 3584 
Q 2894 3584 3203 3211 
Q 3513 2838 3513 2113 
z
" id="DejaVuSans-6e" transform="scale(0.015625)"/>
       <path d="M 603 3500 
L 1178 3500 
L 1178 0 
L 603 0 
L 603 3500 
z
M 603 4863 
L 1178 4863 
L 1178 4134 
L 603 4134 
L 603 4863 
z
" id="DejaVuSans-69" transform="scale(0.015625)"/>
       <path d="M 2375 4863 
L 2375 4384 
L 1825 4384 
Q 1516 4384 1395 4259 
Q 1275 4134 1275 3809 
L 1275 3500 
L 2222 3500 
L 2222 3053 
L 1275 3053 
L 1275 0 
L 697 0 
L 697 3053 
L 147 3053 
L 147 3500 
L 697 3500 
L 697 3744 
Q 697 4328 969 4595 
Q 1241 4863 1831 4863 
L 2375 4863 
z
" id="DejaVuSans-66" transform="scale(0.015625)"/>
       <path d="M 3597 1894 
L 3597 1613 
L 953 1613 
Q 991 1019 1311 708 
Q 1631 397 2203 397 
Q 2534 397 2845 478 
Q 3156 559 3463 722 
L 3463 178 
Q 3153 47 2828 -22 
Q 2503 -91 2169 -91 
Q 1331 -91 842 396 
Q 353 884 353 1716 
Q 353 2575 817 3079 
Q 1281 3584 2069 3584 
Q 2775 3584 3186 3129 
Q 3597 2675 3597 1894 
z
M 3022 2063 
Q 3016 2534 2758 2815 
Q 2500 3097 2075 3097 
Q 1594 3097 1305 2825 
Q 1016 2553 972 2059 
L 3022 2063 
z
" id="DejaVuSans-65" transform="scale(0.015625)"/>
       <path d="M 2906 2969 
L 2906 4863 
L 3481 4863 
L 3481 0 
L 2906 0 
L 2906 525 
Q 2725 213 2448 61 
Q 2172 -91 1784 -91 
Q 1150 -91 751 415 
Q 353 922 353 1747 
Q 353 2572 751 3078 
Q 1150 3584 1784 3584 
Q 2172 3584 2448 3432 
Q 2725 3281 2906 2969 
z
M 947 1747 
Q 947 1113 1208 752 
Q 1469 391 1925 391 
Q 2381 391 2643 752 
Q 2906 1113 2906 1747 
Q 2906 2381 2643 2742 
Q 2381 3103 1925 3103 
Q 1469 3103 1208 2742 
Q 947 2381 947 1747 
z
" id="DejaVuSans-64" transform="scale(0.015625)"/>
       <path d="M 3328 2828 
Q 3544 3216 3844 3400 
Q 4144 3584 4550 3584 
Q 5097 3584 5394 3201 
Q 5691 2819 5691 2113 
L 5691 0 
L 5113 0 
L 5113 2094 
Q 5113 2597 4934 2840 
Q 4756 3084 4391 3084 
Q 3944 3084 3684 2787 
Q 3425 2491 3425 1978 
L 3425 0 
L 2847 0 
L 2847 2094 
Q 2847 2600 2669 2842 
Q 2491 3084 2119 3084 
Q 1678 3084 1418 2786 
Q 1159 2488 1159 1978 
L 1159 0 
L 581 0 
L 581 3500 
L 1159 3500 
L 1159 2956 
Q 1356 3278 1631 3431 
Q 1906 3584 2284 3584 
Q 2666 3584 2933 3390 
Q 3200 3197 3328 2828 
z
" id="DejaVuSans-6d" transform="scale(0.015625)"/>
       <path d="M 1959 3097 
Q 1497 3097 1228 2736 
Q 959 2375 959 1747 
Q 959 1119 1226 758 
Q 1494 397 1959 397 
Q 2419 397 2687 759 
Q 2956 1122 2956 1747 
Q 2956 2369 2687 2733 
Q 2419 3097 1959 3097 
z
M 1959 3584 
Q 2709 3584 3137 3096 
Q 3566 2609 3566 1747 
Q 3566 888 3137 398 
Q 2709 -91 1959 -91 
Q 1206 -91 779 398 
Q 353 888 353 1747 
Q 353 2609 779 3096 
Q 1206 3584 1959 3584 
z
" id="DejaVuSans-6f" transform="scale(0.015625)"/>
       <path d="M 603 4863 
L 1178 4863 
L 1178 0 
L 603 0 
L 603 4863 
z
" id="DejaVuSans-6c" transform="scale(0.015625)"/>
      </defs>
      <use xlink:href="#DejaVuSans-55"/>
      <use x="73.193359" xlink:href="#DejaVuSans-6e"/>
      <use x="136.572266" xlink:href="#DejaVuSans-69"/>
      <use x="164.355469" xlink:href="#DejaVuSans-66"/>
      <use x="199.560547" xlink:href="#DejaVuSans-69"/>
      <use x="227.34375" xlink:href="#DejaVuSans-65"/>
      <use x="288.867188" xlink:href="#DejaVuSans-64"/>
      <use x="352.34375" xlink:href="#DejaVuSans-20"/>
      <use x="384.130859" xlink:href="#DejaVuSans-6d"/>
      <use x="481.542969" xlink:href="#DejaVuSans-6f"/>
      <use x="542.724609" xlink:href="#DejaVuSans-64"/>
      <use x="606.201172" xlink:href="#DejaVuSans-65"/>
      <use x="667.724609" xlink:href="#DejaVuSans-6c"/>
     </g>
    </g>
   </g>
  </g>
 </g>
 <defs>
  <clipPath id="p1c02164e4a">
   <rect height="217.44" width="334.8" x="54" y="34.56"/>
  </clipPath>
 </defs>
</svg>
