<?xml version="1.0" encoding="utf-8" standalone="no"?>
<!DOCTYPE svg PUBLIC "-//W3C//DTD SVG 1.1//EN"
  "http://www.w3.org/Graphics/SVG/1.1/DTD/svg11.dtd">
<svg height="288pt" version="1.1" viewBox="0 0 432 288" width="432pt" xmlns="http://www.w3.org/2000/svg" xmlns:xlink="http://www.w3.org/1999/xlink">
 <metadata>
  <rdf:RDF xmlns:cc="http://creativecommons.org/ns#" xmlns:dc="http://purl.org/dc/elements/1.1/" xmlns:rdf="http://www.w3.org/1999/02/22-rdf-syntax-ns#">
   <cc:Work>
    <dc:type rdf:resource="http://purl.org/dc/dcmitype/StillImage"/>
    <dc:date>2021-10-07T13:50:01.184234</dc:date>
    <dc:format>image/svg+xml</dc:format>
    <dc:creator>
     <cc:Agent>
      <dc:title>Matplotlib v3.4.3, https://matplotlib.org/</dc:title>
     </cc:Agent>
    </dc:creator>
   </cc:Work>
  </rdf:RDF>
 </metadata>
 <defs>
  <style type="text/css">*{stroke-linecap:butt;stroke-linejoin:round;}</style>
 </defs>
 <g id="figure_1">
  <g id="patch_1">
   <path d="M 0 288 
L 432 288 
L 432 0 
L 0 0 
z
" style="fill:none;"/>
  </g>
  <g id="axes_1">
   <g id="patch_2">
    <path d="M 54 252 
L 388.8 252 
L 388.8 34.56 
L 54 34.56 
z
" style="fill:#ffffff;"/>
   </g>
   <g id="matplotlib.axis_1">
    <g id="xtick_1">
     <g id="line2d_1">
      <defs>
       <path d="M 0 0 
L 0 3.5 
" id="m986e8d0691" style="stroke:#000000;stroke-width:0.8;"/>
      </defs>
      <g>
       <use style="stroke:#000000;stroke-width:0.8;" x="54" xlink:href="#m986e8d0691" y="252"/>
      </g>
     </g>
     <g id="text_1">
      <!-- 0.0 -->
      <g transform="translate(46.048437 266.598437)scale(0.1 -0.1)">
       <defs>
        <path d="M 2034 4250 
Q 1547 4250 1301 3770 
Q 1056 3291 1056 2328 
Q 1056 1369 1301 889 
Q 1547 409 2034 409 
Q 2525 409 2770 889 
Q 3016 1369 3016 2328 
Q 3016 3291 2770 3770 
Q 2525 4250 2034 4250 
z
M 2034 4750 
Q 2819 4750 3233 4129 
Q 3647 3509 3647 2328 
Q 3647 1150 3233 529 
Q 2819 -91 2034 -91 
Q 1250 -91 836 529 
Q 422 1150 422 2328 
Q 422 3509 836 4129 
Q 1250 4750 2034 4750 
z
" id="DejaVuSans-30" transform="scale(0.015625)"/>
        <path d="M 684 794 
L 1344 794 
L 1344 0 
L 684 0 
L 684 794 
z
" id="DejaVuSans-2e" transform="scale(0.015625)"/>
       </defs>
       <use xlink:href="#DejaVuSans-30"/>
       <use x="63.623047" xlink:href="#DejaVuSans-2e"/>
       <use x="95.410156" xlink:href="#DejaVuSans-30"/>
      </g>
     </g>
    </g>
    <g id="xtick_2">
     <g id="line2d_2">
      <g>
       <use style="stroke:#000000;stroke-width:0.8;" x="91.2" xlink:href="#m986e8d0691" y="252"/>
      </g>
     </g>
     <g id="text_2">
      <!-- 0.2 -->
      <g transform="translate(83.248438 266.598437)scale(0.1 -0.1)">
       <defs>
        <path d="M 1228 531 
L 3431 531 
L 3431 0 
L 469 0 
L 469 531 
Q 828 903 1448 1529 
Q 2069 2156 2228 2338 
Q 2531 2678 2651 2914 
Q 2772 3150 2772 3378 
Q 2772 3750 2511 3984 
Q 2250 4219 1831 4219 
Q 1534 4219 1204 4116 
Q 875 4013 500 3803 
L 500 4441 
Q 881 4594 1212 4672 
Q 1544 4750 1819 4750 
Q 2544 4750 2975 4387 
Q 3406 4025 3406 3419 
Q 3406 3131 3298 2873 
Q 3191 2616 2906 2266 
Q 2828 2175 2409 1742 
Q 1991 1309 1228 531 
z
" id="DejaVuSans-32" transform="scale(0.015625)"/>
       </defs>
       <use xlink:href="#DejaVuSans-30"/>
       <use x="63.623047" xlink:href="#DejaVuSans-2e"/>
       <use x="95.410156" xlink:href="#DejaVuSans-32"/>
      </g>
     </g>
    </g>
    <g id="xtick_3">
     <g id="line2d_3">
      <g>
       <use style="stroke:#000000;stroke-width:0.8;" x="128.4" xlink:href="#m986e8d0691" y="252"/>
      </g>
     </g>
     <g id="text_3">
      <!-- 0.4 -->
      <g transform="translate(120.448438 266.598437)scale(0.1 -0.1)">
       <defs>
        <path d="M 2419 4116 
L 825 1625 
L 2419 1625 
L 2419 4116 
z
M 2253 4666 
L 3047 4666 
L 3047 1625 
L 3713 1625 
L 3713 1100 
L 3047 1100 
L 3047 0 
L 2419 0 
L 2419 1100 
L 313 1100 
L 313 1709 
L 2253 4666 
z
" id="DejaVuSans-34" transform="scale(0.015625)"/>
       </defs>
       <use xlink:href="#DejaVuSans-30"/>
       <use x="63.623047" xlink:href="#DejaVuSans-2e"/>
       <use x="95.410156" xlink:href="#DejaVuSans-34"/>
      </g>
     </g>
    </g>
    <g id="xtick_4">
     <g id="line2d_4">
      <g>
       <use style="stroke:#000000;stroke-width:0.8;" x="165.6" xlink:href="#m986e8d0691" y="252"/>
      </g>
     </g>
     <g id="text_4">
      <!-- 0.6 -->
      <g transform="translate(157.648438 266.598437)scale(0.1 -0.1)">
       <defs>
        <path d="M 2113 2584 
Q 1688 2584 1439 2293 
Q 1191 2003 1191 1497 
Q 1191 994 1439 701 
Q 1688 409 2113 409 
Q 2538 409 2786 701 
Q 3034 994 3034 1497 
Q 3034 2003 2786 2293 
Q 2538 2584 2113 2584 
z
M 3366 4563 
L 3366 3988 
Q 3128 4100 2886 4159 
Q 2644 4219 2406 4219 
Q 1781 4219 1451 3797 
Q 1122 3375 1075 2522 
Q 1259 2794 1537 2939 
Q 1816 3084 2150 3084 
Q 2853 3084 3261 2657 
Q 3669 2231 3669 1497 
Q 3669 778 3244 343 
Q 2819 -91 2113 -91 
Q 1303 -91 875 529 
Q 447 1150 447 2328 
Q 447 3434 972 4092 
Q 1497 4750 2381 4750 
Q 2619 4750 2861 4703 
Q 3103 4656 3366 4563 
z
" id="DejaVuSans-36" transform="scale(0.015625)"/>
       </defs>
       <use xlink:href="#DejaVuSans-30"/>
       <use x="63.623047" xlink:href="#DejaVuSans-2e"/>
       <use x="95.410156" xlink:href="#DejaVuSans-36"/>
      </g>
     </g>
    </g>
    <g id="xtick_5">
     <g id="line2d_5">
      <g>
       <use style="stroke:#000000;stroke-width:0.8;" x="202.8" xlink:href="#m986e8d0691" y="252"/>
      </g>
     </g>
     <g id="text_5">
      <!-- 0.8 -->
      <g transform="translate(194.848438 266.598437)scale(0.1 -0.1)">
       <defs>
        <path d="M 2034 2216 
Q 1584 2216 1326 1975 
Q 1069 1734 1069 1313 
Q 1069 891 1326 650 
Q 1584 409 2034 409 
Q 2484 409 2743 651 
Q 3003 894 3003 1313 
Q 3003 1734 2745 1975 
Q 2488 2216 2034 2216 
z
M 1403 2484 
Q 997 2584 770 2862 
Q 544 3141 544 3541 
Q 544 4100 942 4425 
Q 1341 4750 2034 4750 
Q 2731 4750 3128 4425 
Q 3525 4100 3525 3541 
Q 3525 3141 3298 2862 
Q 3072 2584 2669 2484 
Q 3125 2378 3379 2068 
Q 3634 1759 3634 1313 
Q 3634 634 3220 271 
Q 2806 -91 2034 -91 
Q 1263 -91 848 271 
Q 434 634 434 1313 
Q 434 1759 690 2068 
Q 947 2378 1403 2484 
z
M 1172 3481 
Q 1172 3119 1398 2916 
Q 1625 2713 2034 2713 
Q 2441 2713 2670 2916 
Q 2900 3119 2900 3481 
Q 2900 3844 2670 4047 
Q 2441 4250 2034 4250 
Q 1625 4250 1398 4047 
Q 1172 3844 1172 3481 
z
" id="DejaVuSans-38" transform="scale(0.015625)"/>
       </defs>
       <use xlink:href="#DejaVuSans-30"/>
       <use x="63.623047" xlink:href="#DejaVuSans-2e"/>
       <use x="95.410156" xlink:href="#DejaVuSans-38"/>
      </g>
     </g>
    </g>
    <g id="xtick_6">
     <g id="line2d_6">
      <g>
       <use style="stroke:#000000;stroke-width:0.8;" x="240" xlink:href="#m986e8d0691" y="252"/>
      </g>
     </g>
     <g id="text_6">
      <!-- 1.0 -->
      <g transform="translate(232.048438 266.598437)scale(0.1 -0.1)">
       <defs>
        <path d="M 794 531 
L 1825 531 
L 1825 4091 
L 703 3866 
L 703 4441 
L 1819 4666 
L 2450 4666 
L 2450 531 
L 3481 531 
L 3481 0 
L 794 0 
L 794 531 
z
" id="DejaVuSans-31" transform="scale(0.015625)"/>
       </defs>
       <use xlink:href="#DejaVuSans-31"/>
       <use x="63.623047" xlink:href="#DejaVuSans-2e"/>
       <use x="95.410156" xlink:href="#DejaVuSans-30"/>
      </g>
     </g>
    </g>
    <g id="xtick_7">
     <g id="line2d_7">
      <g>
       <use style="stroke:#000000;stroke-width:0.8;" x="277.2" xlink:href="#m986e8d0691" y="252"/>
      </g>
     </g>
     <g id="text_7">
      <!-- 1.2 -->
      <g transform="translate(269.248438 266.598437)scale(0.1 -0.1)">
       <use xlink:href="#DejaVuSans-31"/>
       <use x="63.623047" xlink:href="#DejaVuSans-2e"/>
       <use x="95.410156" xlink:href="#DejaVuSans-32"/>
      </g>
     </g>
    </g>
    <g id="xtick_8">
     <g id="line2d_8">
      <g>
       <use style="stroke:#000000;stroke-width:0.8;" x="314.4" xlink:href="#m986e8d0691" y="252"/>
      </g>
     </g>
     <g id="text_8">
      <!-- 1.4 -->
      <g transform="translate(306.448438 266.598437)scale(0.1 -0.1)">
       <use xlink:href="#DejaVuSans-31"/>
       <use x="63.623047" xlink:href="#DejaVuSans-2e"/>
       <use x="95.410156" xlink:href="#DejaVuSans-34"/>
      </g>
     </g>
    </g>
    <g id="xtick_9">
     <g id="line2d_9">
      <g>
       <use style="stroke:#000000;stroke-width:0.8;" x="351.6" xlink:href="#m986e8d0691" y="252"/>
      </g>
     </g>
     <g id="text_9">
      <!-- 1.6 -->
      <g transform="translate(343.648438 266.598437)scale(0.1 -0.1)">
       <use xlink:href="#DejaVuSans-31"/>
       <use x="63.623047" xlink:href="#DejaVuSans-2e"/>
       <use x="95.410156" xlink:href="#DejaVuSans-36"/>
      </g>
     </g>
    </g>
    <g id="xtick_10">
     <g id="line2d_10">
      <g>
       <use style="stroke:#000000;stroke-width:0.8;" x="388.8" xlink:href="#m986e8d0691" y="252"/>
      </g>
     </g>
     <g id="text_10">
      <!-- 1.8 -->
      <g transform="translate(380.848438 266.598437)scale(0.1 -0.1)">
       <use xlink:href="#DejaVuSans-31"/>
       <use x="63.623047" xlink:href="#DejaVuSans-2e"/>
       <use x="95.410156" xlink:href="#DejaVuSans-38"/>
      </g>
     </g>
    </g>
   </g>
   <g id="matplotlib.axis_2">
    <g id="ytick_1">
     <g id="line2d_11">
      <defs>
       <path d="M 0 0 
L -3.5 0 
" id="m453cc29775" style="stroke:#000000;stroke-width:0.8;"/>
      </defs>
      <g>
       <use style="stroke:#000000;stroke-width:0.8;" x="54" xlink:href="#m453cc29775" y="252"/>
      </g>
     </g>
     <g id="text_11">
      <!-- 0.00000 -->
      <g transform="translate(5.646875 255.799219)scale(0.1 -0.1)">
       <use xlink:href="#DejaVuSans-30"/>
       <use x="63.623047" xlink:href="#DejaVuSans-2e"/>
       <use x="95.410156" xlink:href="#DejaVuSans-30"/>
       <use x="159.033203" xlink:href="#DejaVuSans-30"/>
       <use x="222.65625" xlink:href="#DejaVuSans-30"/>
       <use x="286.279297" xlink:href="#DejaVuSans-30"/>
       <use x="349.902344" xlink:href="#DejaVuSans-30"/>
      </g>
     </g>
    </g>
    <g id="ytick_2">
     <g id="line2d_12">
      <g>
       <use style="stroke:#000000;stroke-width:0.8;" x="54" xlink:href="#m453cc29775" y="224.82"/>
      </g>
     </g>
     <g id="text_12">
      <!-- 0.00025 -->
      <g transform="translate(5.646875 228.619219)scale(0.1 -0.1)">
       <defs>
        <path d="M 691 4666 
L 3169 4666 
L 3169 4134 
L 1269 4134 
L 1269 2991 
Q 1406 3038 1543 3061 
Q 1681 3084 1819 3084 
Q 2600 3084 3056 2656 
Q 3513 2228 3513 1497 
Q 3513 744 3044 326 
Q 2575 -91 1722 -91 
Q 1428 -91 1123 -41 
Q 819 9 494 109 
L 494 744 
Q 775 591 1075 516 
Q 1375 441 1709 441 
Q 2250 441 2565 725 
Q 2881 1009 2881 1497 
Q 2881 1984 2565 2268 
Q 2250 2553 1709 2553 
Q 1456 2553 1204 2497 
Q 953 2441 691 2322 
L 691 4666 
z
" id="DejaVuSans-35" transform="scale(0.015625)"/>
       </defs>
       <use xlink:href="#DejaVuSans-30"/>
       <use x="63.623047" xlink:href="#DejaVuSans-2e"/>
       <use x="95.410156" xlink:href="#DejaVuSans-30"/>
       <use x="159.033203" xlink:href="#DejaVuSans-30"/>
       <use x="222.65625" xlink:href="#DejaVuSans-30"/>
       <use x="286.279297" xlink:href="#DejaVuSans-32"/>
       <use x="349.902344" xlink:href="#DejaVuSans-35"/>
      </g>
     </g>
    </g>
    <g id="ytick_3">
     <g id="line2d_13">
      <g>
       <use style="stroke:#000000;stroke-width:0.8;" x="54" xlink:href="#m453cc29775" y="197.64"/>
      </g>
     </g>
     <g id="text_13">
      <!-- 0.00050 -->
      <g transform="translate(5.646875 201.439219)scale(0.1 -0.1)">
       <use xlink:href="#DejaVuSans-30"/>
       <use x="63.623047" xlink:href="#DejaVuSans-2e"/>
       <use x="95.410156" xlink:href="#DejaVuSans-30"/>
       <use x="159.033203" xlink:href="#DejaVuSans-30"/>
       <use x="222.65625" xlink:href="#DejaVuSans-30"/>
       <use x="286.279297" xlink:href="#DejaVuSans-35"/>
       <use x="349.902344" xlink:href="#DejaVuSans-30"/>
      </g>
     </g>
    </g>
    <g id="ytick_4">
     <g id="line2d_14">
      <g>
       <use style="stroke:#000000;stroke-width:0.8;" x="54" xlink:href="#m453cc29775" y="170.46"/>
      </g>
     </g>
     <g id="text_14">
      <!-- 0.00075 -->
      <g transform="translate(5.646875 174.259219)scale(0.1 -0.1)">
       <defs>
        <path d="M 525 4666 
L 3525 4666 
L 3525 4397 
L 1831 0 
L 1172 0 
L 2766 4134 
L 525 4134 
L 525 4666 
z
" id="DejaVuSans-37" transform="scale(0.015625)"/>
       </defs>
       <use xlink:href="#DejaVuSans-30"/>
       <use x="63.623047" xlink:href="#DejaVuSans-2e"/>
       <use x="95.410156" xlink:href="#DejaVuSans-30"/>
       <use x="159.033203" xlink:href="#DejaVuSans-30"/>
       <use x="222.65625" xlink:href="#DejaVuSans-30"/>
       <use x="286.279297" xlink:href="#DejaVuSans-37"/>
       <use x="349.902344" xlink:href="#DejaVuSans-35"/>
      </g>
     </g>
    </g>
    <g id="ytick_5">
     <g id="line2d_15">
      <g>
       <use style="stroke:#000000;stroke-width:0.8;" x="54" xlink:href="#m453cc29775" y="143.28"/>
      </g>
     </g>
     <g id="text_15">
      <!-- 0.00100 -->
      <g transform="translate(5.646875 147.079219)scale(0.1 -0.1)">
       <use xlink:href="#DejaVuSans-30"/>
       <use x="63.623047" xlink:href="#DejaVuSans-2e"/>
       <use x="95.410156" xlink:href="#DejaVuSans-30"/>
       <use x="159.033203" xlink:href="#DejaVuSans-30"/>
       <use x="222.65625" xlink:href="#DejaVuSans-31"/>
       <use x="286.279297" xlink:href="#DejaVuSans-30"/>
       <use x="349.902344" xlink:href="#DejaVuSans-30"/>
      </g>
     </g>
    </g>
    <g id="ytick_6">
     <g id="line2d_16">
      <g>
       <use style="stroke:#000000;stroke-width:0.8;" x="54" xlink:href="#m453cc29775" y="116.1"/>
      </g>
     </g>
     <g id="text_16">
      <!-- 0.00125 -->
      <g transform="translate(5.646875 119.899219)scale(0.1 -0.1)">
       <use xlink:href="#DejaVuSans-30"/>
       <use x="63.623047" xlink:href="#DejaVuSans-2e"/>
       <use x="95.410156" xlink:href="#DejaVuSans-30"/>
       <use x="159.033203" xlink:href="#DejaVuSans-30"/>
       <use x="222.65625" xlink:href="#DejaVuSans-31"/>
       <use x="286.279297" xlink:href="#DejaVuSans-32"/>
       <use x="349.902344" xlink:href="#DejaVuSans-35"/>
      </g>
     </g>
    </g>
    <g id="ytick_7">
     <g id="line2d_17">
      <g>
       <use style="stroke:#000000;stroke-width:0.8;" x="54" xlink:href="#m453cc29775" y="88.92"/>
      </g>
     </g>
     <g id="text_17">
      <!-- 0.00150 -->
      <g transform="translate(5.646875 92.719219)scale(0.1 -0.1)">
       <use xlink:href="#DejaVuSans-30"/>
       <use x="63.623047" xlink:href="#DejaVuSans-2e"/>
       <use x="95.410156" xlink:href="#DejaVuSans-30"/>
       <use x="159.033203" xlink:href="#DejaVuSans-30"/>
       <use x="222.65625" xlink:href="#DejaVuSans-31"/>
       <use x="286.279297" xlink:href="#DejaVuSans-35"/>
       <use x="349.902344" xlink:href="#DejaVuSans-30"/>
      </g>
     </g>
    </g>
    <g id="ytick_8">
     <g id="line2d_18">
      <g>
       <use style="stroke:#000000;stroke-width:0.8;" x="54" xlink:href="#m453cc29775" y="61.74"/>
      </g>
     </g>
     <g id="text_18">
      <!-- 0.00175 -->
      <g transform="translate(5.646875 65.539219)scale(0.1 -0.1)">
       <use xlink:href="#DejaVuSans-30"/>
       <use x="63.623047" xlink:href="#DejaVuSans-2e"/>
       <use x="95.410156" xlink:href="#DejaVuSans-30"/>
       <use x="159.033203" xlink:href="#DejaVuSans-30"/>
       <use x="222.65625" xlink:href="#DejaVuSans-31"/>
       <use x="286.279297" xlink:href="#DejaVuSans-37"/>
       <use x="349.902344" xlink:href="#DejaVuSans-35"/>
      </g>
     </g>
    </g>
    <g id="ytick_9">
     <g id="line2d_19">
      <g>
       <use style="stroke:#000000;stroke-width:0.8;" x="54" xlink:href="#m453cc29775" y="34.56"/>
      </g>
     </g>
     <g id="text_19">
      <!-- 0.00200 -->
      <g transform="translate(5.646875 38.359219)scale(0.1 -0.1)">
       <use xlink:href="#DejaVuSans-30"/>
       <use x="63.623047" xlink:href="#DejaVuSans-2e"/>
       <use x="95.410156" xlink:href="#DejaVuSans-30"/>
       <use x="159.033203" xlink:href="#DejaVuSans-30"/>
       <use x="222.65625" xlink:href="#DejaVuSans-32"/>
       <use x="286.279297" xlink:href="#DejaVuSans-30"/>
       <use x="349.902344" xlink:href="#DejaVuSans-30"/>
      </g>
     </g>
    </g>
   </g>
   <g id="line2d_20">
    <path clip-path="url(#p308c53d814)" d="M 54 252 
L 57.72 250.417649 
L 61.44 249.05008 
L 65.16 247.887378 
L 68.88 246.919178 
L 72.6 246.133608 
L 76.32 245.515287 
L 80.04 245.042612 
L 83.759999 244.686599 
L 87.480001 244.41456 
L 91.200001 244.197271 
L 94.92 244.013515 
L 98.639999 243.849875 
L 102.359998 243.69838 
L 106.08 243.55435 
L 109.800002 243.414989 
L 113.519999 243.278578 
L 117.240001 243.144021 
L 120.960003 243.0106 
L 124.679999 242.877825 
L 128.400001 242.745359 
L 132.119998 242.61296 
L 135.84 242.480451 
L 139.560002 242.347701 
L 143.279998 242.214611 
L 147 242.081104 
L 150.719996 241.947122 
L 154.440004 241.812619 
L 158.16 241.677557 
L 161.879997 241.541908 
L 165.600004 241.405647 
L 169.320001 241.268755 
L 173.039997 241.131217 
L 176.760005 240.993021 
L 180.480001 240.854155 
L 184.199998 240.71461 
L 187.920005 240.574381 
L 191.640002 240.433461 
L 195.359998 240.291844 
L 199.079995 240.149529 
L 202.800002 240.006511 
L 206.519999 239.862788 
L 210.239995 239.718358 
L 213.960003 239.573221 
L 217.679999 239.427374 
L 221.399996 239.280819 
L 225.120003 239.133553 
L 228.84 238.985577 
L 232.559996 238.836891 
L 236.280004 238.687495 
L 240 238.53739 
L 243.719996 238.386578 
L 247.439993 238.235059 
L 251.159989 238.082831 
L 254.880008 237.929898 
L 258.600004 237.776262 
L 262.320001 237.621922 
L 266.039997 237.466881 
L 269.759994 237.311139 
L 273.47999 237.154698 
L 277.200009 236.997559 
L 280.920005 236.839724 
L 284.640002 236.681194 
L 288.359998 236.521972 
L 292.079995 236.362058 
L 295.799991 236.201454 
L 299.52001 236.040162 
L 303.240006 235.878184 
L 306.960003 235.715522 
L 310.679999 235.552175 
L 314.399996 235.388149 
L 318.119992 235.223443 
L 321.840011 235.05806 
L 325.560007 234.891999 
L 329.280004 234.725267 
L 333 234.55786 
L 336.719996 234.389784 
L 340.439993 234.221041 
L 344.159989 234.051629 
L 347.880008 233.881552 
L 351.600004 233.710814 
L 355.320001 233.539414 
L 359.039997 233.367353 
L 362.759994 233.194637 
L 366.47999 233.021262 
L 370.200009 232.847236 
L 373.920005 232.672557 
L 377.640002 232.497227 
L 381.359998 232.321249 
L 385.079995 232.144625 
L 388.799991 231.967354 
" style="fill:none;stroke:#0000ff;stroke-linecap:square;stroke-width:1.5;"/>
   </g>
   <g id="line2d_21">
    <path clip-path="url(#p308c53d814)" d="M 54 252 
L 61.44 249.925336 
L 68.88 248.065618 
L 76.32 246.42872 
L 83.76 245.022517 
L 91.2 243.854886 
L 98.64 242.933699 
L 106.08 242.266834 
L 113.52 241.862164 
L 120.96 241.709177 
L 386.94 238.210524 
L 386.94 238.210524 
" style="fill:none;stroke:#0000ff;stroke-dasharray:5.55,2.4;stroke-dashoffset:0;stroke-width:1.5;"/>
   </g>
   <g id="line2d_22">
    <path clip-path="url(#p308c53d814)" d="M 54 252 
L 57.72 248.35049 
L 61.44 244.946629 
L 65.16 241.779917 
L 68.88 238.842387 
L 72.6 236.126596 
L 76.32 233.625634 
L 80.04 231.333125 
L 83.759999 229.243229 
L 87.480001 227.350628 
L 91.200001 225.650435 
L 94.92 224.137969 
L 98.639999 222.808236 
L 102.359998 221.654944 
L 106.08 220.668989 
L 109.800002 219.836797 
L 113.519999 219.139563 
L 117.240001 218.554515 
L 120.960003 218.057921 
L 124.679999 217.62823 
L 128.400001 217.247856 
L 132.119998 216.903449 
L 135.84 216.585285 
L 139.560002 216.286417 
L 143.279998 216.001888 
L 147 215.728166 
L 150.719996 215.462676 
L 154.440004 215.203547 
L 158.16 214.949372 
L 161.879997 214.699102 
L 165.600004 214.451927 
L 169.320001 214.20722 
L 173.039997 213.964487 
L 176.760005 213.723345 
L 180.480001 213.483476 
L 184.199998 213.244626 
L 187.920005 213.006592 
L 191.640002 212.769197 
L 195.359998 212.532302 
L 199.079995 212.295787 
L 202.800002 212.05955 
L 206.519999 211.823506 
L 210.239995 211.587585 
L 213.960003 211.351722 
L 217.679999 211.115862 
L 221.399996 210.87996 
L 225.120003 210.643974 
L 228.84 210.40787 
L 232.559996 210.171617 
L 236.280004 209.935184 
L 240 209.698548 
L 243.719996 209.461691 
L 247.439993 209.224591 
L 251.159989 208.987231 
L 254.880008 208.749595 
L 258.600004 208.511669 
L 262.320001 208.273445 
L 266.039997 208.034905 
L 269.759994 207.796045 
L 273.47999 207.556853 
L 277.200009 207.317319 
L 280.920005 207.07744 
L 284.640002 206.837207 
L 288.359998 206.596613 
L 292.079995 206.355655 
L 295.799991 206.114324 
L 299.52001 205.872616 
L 303.240006 205.630532 
L 306.960003 205.388062 
L 310.679999 205.145202 
L 314.399996 204.901957 
L 318.119992 204.658313 
L 321.840011 204.414276 
L 325.560007 204.169838 
L 329.280004 203.924998 
L 333 203.679753 
L 336.719996 203.434106 
L 340.439993 203.188047 
L 344.159989 202.941581 
L 347.880008 202.694703 
L 351.600004 202.447413 
L 355.320001 202.19971 
L 359.039997 201.951591 
L 362.759994 201.703055 
L 366.47999 201.454105 
L 370.200009 201.204734 
L 373.920005 200.954945 
L 377.640002 200.704735 
L 381.359998 200.454104 
L 385.079995 200.203053 
L 388.799991 199.951581 
" style="fill:none;stroke:#008000;stroke-linecap:square;stroke-width:1.5;"/>
   </g>
   <g id="line2d_23">
    <path clip-path="url(#p308c53d814)" d="M 54 252 
L 63.3 247.042895 
L 72.6 242.363196 
L 81.9 237.976282 
L 89.34 234.687893 
L 96.78 231.604606 
L 104.22 228.734295 
L 111.66 226.084836 
L 119.1 223.664105 
L 126.54 221.479974 
L 133.98 219.540321 
L 141.42 217.85302 
L 148.86 216.425945 
L 152.58 215.812454 
L 160.02 215.448672 
L 386.94 205.351057 
L 386.94 205.351057 
" style="fill:none;stroke:#008000;stroke-dasharray:5.55,2.4;stroke-dashoffset:0;stroke-width:1.5;"/>
   </g>
   <g id="line2d_24">
    <path clip-path="url(#p308c53d814)" d="M 54 252 
L 57.72 247.088785 
L 61.44 242.405843 
L 65.16 237.944663 
L 68.88 233.699041 
L 72.6 229.663092 
L 76.32 225.831235 
L 80.04 222.198204 
L 83.759999 218.75905 
L 87.480001 215.509158 
L 91.200001 212.444265 
L 94.92 209.560483 
L 98.639999 206.854341 
L 102.359998 204.322813 
L 106.08 201.963378 
L 109.800002 199.774036 
L 113.519999 197.753319 
L 117.240001 195.900205 
L 120.960003 194.213867 
L 124.679999 192.693155 
L 128.400001 191.335677 
L 132.119998 190.136583 
L 135.84 189.087313 
L 139.560002 188.174938 
L 143.279998 187.382751 
L 147 186.691962 
L 150.719996 186.083872 
L 154.440004 185.541572 
L 158.16 185.050803 
L 161.879997 184.600149 
L 165.600004 184.180701 
L 169.320001 183.785629 
L 173.039997 183.409726 
L 176.760005 183.049023 
L 180.480001 182.700471 
L 184.199998 182.361728 
L 187.920005 182.030952 
L 191.640002 181.706713 
L 195.359998 181.387873 
L 199.079995 181.073513 
L 202.800002 180.762905 
L 206.519999 180.455437 
L 210.239995 180.150626 
L 213.960003 179.848062 
L 217.679999 179.547402 
L 221.399996 179.248363 
L 225.120003 178.950697 
L 228.84 178.654215 
L 232.559996 178.358726 
L 236.280004 178.064085 
L 240 177.770165 
L 243.719996 177.476847 
L 247.439993 177.184034 
L 251.159989 176.891646 
L 254.880008 176.5996 
L 258.600004 176.307832 
L 262.320001 176.016279 
L 266.039997 175.724897 
L 269.759994 175.433635 
L 273.47999 175.142443 
L 277.200009 174.851296 
L 280.920005 174.560154 
L 284.640002 174.268981 
L 288.359998 173.977764 
L 292.079995 173.686464 
L 295.799991 173.395063 
L 299.52001 173.103535 
L 303.240006 172.811875 
L 306.960003 172.520056 
L 310.679999 172.228061 
L 314.399996 171.935875 
L 318.119992 171.643493 
L 321.840011 171.350896 
L 325.560007 171.058071 
L 329.280004 170.765012 
L 333 170.471707 
L 336.719996 170.178148 
L 340.439993 169.884329 
L 344.159989 169.590239 
L 347.880008 169.295864 
L 351.600004 169.00121 
L 355.320001 168.706265 
L 359.039997 168.411017 
L 362.759994 168.115471 
L 366.47999 167.819621 
L 370.200009 167.523455 
L 373.920005 167.226966 
L 377.640002 166.930161 
L 381.359998 166.633032 
L 385.079995 166.335569 
L 388.799991 166.037776 
" style="fill:none;stroke:#ff0000;stroke-linecap:square;stroke-width:1.5;"/>
   </g>
   <g id="line2d_25">
    <path clip-path="url(#p308c53d814)" d="M 54 252 
L 65.16 243.200424 
L 76.32 234.716148 
L 85.62 227.905945 
L 94.92 221.348538 
L 104.22 215.059308 
L 113.52 209.053635 
L 122.82 203.3469 
L 132.12 197.954485 
L 139.56 193.877198 
L 147 190.018794 
L 152.58 187.273371 
L 154.44 187.006848 
L 386.94 168.484598 
L 386.94 168.484598 
" style="fill:none;stroke:#ff0000;stroke-dasharray:5.55,2.4;stroke-dashoffset:0;stroke-width:1.5;"/>
   </g>
   <g id="line2d_26">
    <path clip-path="url(#p308c53d814)" d="M 54 252 
L 57.72 246.324931 
L 61.44 240.852203 
L 65.16 235.577004 
L 68.88 230.494702 
L 72.6 225.600849 
L 76.32 220.891171 
L 80.04 216.361566 
L 83.759999 212.00811 
L 87.480001 207.82706 
L 91.200001 203.81485 
L 94.92 199.968107 
L 98.639999 196.283651 
L 102.359998 192.758515 
L 106.08 189.389947 
L 109.800002 186.175468 
L 113.519999 183.112851 
L 117.240001 180.200196 
L 120.960003 177.435947 
L 124.679999 174.818945 
L 128.400001 172.348489 
L 132.119998 170.024376 
L 135.84 167.84689 
L 139.560002 165.81681 
L 143.279998 163.935231 
L 147 162.203247 
L 150.719996 160.621385 
L 154.440004 159.18875 
L 158.16 157.90201 
L 161.879997 156.754562 
L 165.600004 155.736187 
L 169.320001 154.833564 
L 173.039997 154.031466 
L 176.760005 153.314307 
L 180.480001 152.667387 
L 184.199998 152.077706 
L 187.920005 151.534298 
L 191.640002 151.028176 
L 195.359998 150.552127 
L 199.079995 150.100417 
L 202.800002 149.668489 
L 206.519999 149.252755 
L 210.239995 148.850349 
L 213.960003 148.458992 
L 217.679999 148.076843 
L 221.399996 147.702433 
L 225.120003 147.334541 
L 228.84 146.972193 
L 232.559996 146.61456 
L 236.280004 146.260977 
L 240 145.910862 
L 243.719996 145.563752 
L 247.439993 145.219238 
L 251.159989 144.876976 
L 254.880008 144.536663 
L 258.600004 144.198072 
L 262.320001 143.860949 
L 266.039997 143.525129 
L 269.759994 143.190449 
L 273.47999 142.856743 
L 277.200009 142.523885 
L 280.920005 142.191787 
L 284.640002 141.860334 
L 288.359998 141.529425 
L 292.079995 141.198997 
L 295.799991 140.868974 
L 299.52001 140.539306 
L 303.240006 140.209916 
L 306.960003 139.880754 
L 310.679999 139.551782 
L 314.399996 139.222961 
L 318.119992 138.894242 
L 321.840011 138.565599 
L 325.560007 138.236994 
L 329.280004 137.908401 
L 333 137.579783 
L 336.719996 137.25114 
L 340.439993 136.922421 
L 344.159989 136.593626 
L 347.880008 136.264717 
L 351.600004 135.935694 
L 355.320001 135.606545 
L 359.039997 135.277231 
L 362.759994 134.947752 
L 366.47999 134.618084 
L 370.200009 134.288238 
L 373.920005 133.958177 
L 377.640002 133.627901 
L 381.359998 133.29741 
L 385.079995 132.966679 
L 388.799991 132.635707 
" style="fill:none;stroke:#00bfbf;stroke-linecap:square;stroke-width:1.5;"/>
   </g>
   <g id="line2d_27">
    <path clip-path="url(#p308c53d814)" d="M 54 252 
L 67.02 238.390665 
L 80.04 225.09593 
L 91.2 213.982831 
L 102.36 203.158453 
L 113.52 192.649374 
L 124.68 182.482172 
L 133.98 174.289835 
L 143.28 166.36875 
L 152.58 158.734299 
L 154.44 158.316734 
L 386.94 131.618154 
L 386.94 131.618154 
" style="fill:none;stroke:#00bfbf;stroke-dasharray:5.55,2.4;stroke-dashoffset:0;stroke-width:1.5;"/>
   </g>
   <g id="line2d_28">
    <path clip-path="url(#p308c53d814)" d="M 54 252 
L 57.72 245.869282 
L 61.44 239.915277 
L 65.16 234.134442 
L 68.88 228.523343 
L 72.6 223.078652 
L 76.32 217.797149 
L 80.04 212.675708 
L 83.759999 207.711311 
L 87.480001 202.901048 
L 91.200001 198.242101 
L 94.92 193.731756 
L 98.639999 189.367412 
L 102.359998 185.146569 
L 106.08 181.066849 
L 109.800002 177.125985 
L 113.519999 173.321831 
L 117.240001 169.652383 
L 120.960003 166.11578 
L 124.679999 162.710324 
L 128.400001 159.434499 
L 132.119998 156.286986 
L 135.84 153.266705 
L 139.560002 150.372845 
L 143.279998 147.604882 
L 147 144.962662 
L 150.719996 142.446401 
L 154.440004 140.05677 
L 158.16 137.794884 
L 161.879997 135.662323 
L 165.600004 133.661024 
L 169.320001 131.793051 
L 173.039997 130.060327 
L 176.760005 128.463966 
L 180.480001 127.003652 
L 184.199998 125.676802 
L 187.920005 124.478038 
L 191.640002 123.398993 
L 195.359998 122.428821 
L 199.079995 121.555017 
L 202.800002 120.764532 
L 206.519999 120.044747 
L 210.239995 119.384144 
L 213.960003 118.772662 
L 217.679999 118.201745 
L 221.399996 117.664317 
L 225.120003 117.154544 
L 228.84 116.667693 
L 232.559996 116.199915 
L 236.280004 115.748084 
L 240 115.309644 
L 243.719996 114.88252 
L 247.439993 114.465014 
L 251.159989 114.055684 
L 254.880008 113.653379 
L 258.600004 113.257137 
L 262.320001 112.866109 
L 266.039997 112.479612 
L 269.759994 112.097064 
L 273.47999 111.717971 
L 277.200009 111.341904 
L 280.920005 110.968481 
L 284.640002 110.5974 
L 288.359998 110.22837 
L 292.079995 109.861149 
L 295.799991 109.495535 
L 299.52001 109.13134 
L 303.240006 108.768397 
L 306.960003 108.406568 
L 310.679999 108.045701 
L 314.399996 107.685707 
L 318.119992 107.326473 
L 321.840011 106.967909 
L 325.560007 106.60994 
L 329.280004 106.252465 
L 333 105.895446 
L 336.719996 105.538793 
L 340.439993 105.182483 
L 344.159989 104.826438 
L 347.880008 104.470621 
L 351.600004 104.114994 
L 355.320001 103.759518 
L 359.039997 103.404157 
L 362.759994 103.048871 
L 366.47999 102.693636 
L 370.200009 102.338427 
L 373.920005 101.983217 
L 377.640002 101.62797 
L 381.359998 101.272684 
L 385.079995 100.917323 
L 388.799991 100.561873 
" style="fill:none;stroke:#bf00bf;stroke-linecap:square;stroke-width:1.5;"/>
   </g>
   <g id="line2d_29">
    <path clip-path="url(#p308c53d814)" d="M 54 252 
L 72.6 227.79631 
L 89.34 206.379578 
L 104.22 187.709345 
L 117.24 171.707809 
L 130.26 156.063078 
L 141.42 142.969288 
L 152.58 130.195228 
L 154.44 129.62662 
L 386.94 94.751709 
L 386.94 94.751709 
" style="fill:none;stroke:#bf00bf;stroke-dasharray:5.55,2.4;stroke-dashoffset:0;stroke-width:1.5;"/>
   </g>
   <g id="patch_3">
    <path d="M 54 252 
L 54 34.56 
" style="fill:none;stroke:#000000;stroke-linecap:square;stroke-linejoin:miter;stroke-width:0.8;"/>
   </g>
   <g id="patch_4">
    <path d="M 388.8 252 
L 388.8 34.56 
" style="fill:none;stroke:#000000;stroke-linecap:square;stroke-linejoin:miter;stroke-width:0.8;"/>
   </g>
   <g id="patch_5">
    <path d="M 54 252 
L 388.8 252 
" style="fill:none;stroke:#000000;stroke-linecap:square;stroke-linejoin:miter;stroke-width:0.8;"/>
   </g>
   <g id="patch_6">
    <path d="M 54 34.56 
L 388.8 34.56 
" style="fill:none;stroke:#000000;stroke-linecap:square;stroke-linejoin:miter;stroke-width:0.8;"/>
   </g>
  </g>
 </g>
 <defs>
  <clipPath id="p308c53d814">
   <rect height="217.44" width="334.8" x="54" y="34.56"/>
  </clipPath>
 </defs>
</svg>
